<?xml version="1.0" encoding="UTF-8" standalone="no"?>
<!DOCTYPE svg PUBLIC "-//W3C//DTD SVG 1.1//EN"
 "http://www.w3.org/Graphics/SVG/1.1/DTD/svg11.dtd">
<!-- Generated by graphviz version 12.2.1 (20241206.2353)
 -->
<!-- Pages: 1 -->
<svg width="5232pt" height="260pt"
 viewBox="0.00 0.00 5231.91 260.00" xmlns="http://www.w3.org/2000/svg" xmlns:xlink="http://www.w3.org/1999/xlink">
<g id="graph0" class="graph" transform="scale(1 1) rotate(0) translate(4 256)">
<polygon fill="white" stroke="none" points="-4,4 -4,-256 5227.91,-256 5227.91,4 -4,4"/>
<!-- 0.0 -->
<g id="node1" class="node">
<title>0.0</title>
<g id="a_node1"><a xlink:title="Node: 0.0">
<ellipse fill="none" stroke="black" cx="27" cy="-124" rx="27" ry="18"/>
<text text-anchor="middle" x="27" y="-118.95" font-family="Times New Roman,serif" font-size="14.00">0.0</text>
</a>
</g>
</g>
<!-- 1.0 -->
<g id="node2" class="node">
<title>1.0</title>
<g id="a_node2"><a xlink:title="Node: 1.0">
<ellipse fill="none" stroke="black" cx="153" cy="-124" rx="27" ry="18"/>
<text text-anchor="middle" x="153" y="-118.95" font-family="Times New Roman,serif" font-size="14.00">1.0</text>
</a>
</g>
</g>
<!-- 0.0&#45;&gt;1.0 -->
<g id="edge28" class="edge">
<title>0.0&#45;&gt;1.0</title>
<path fill="none" stroke="black" d="M54.3,-124C71.72,-124 94.86,-124 114.24,-124"/>
<polygon fill="black" stroke="black" points="114.23,-127.5 124.23,-124 114.23,-120.5 114.23,-127.5"/>
</g>
<!-- 2.0 -->
<g id="node3" class="node">
<title>2.0</title>
<g id="a_node3"><a xlink:title="Node: 2.0">
<ellipse fill="none" stroke="black" cx="279" cy="-124" rx="27" ry="18"/>
<text text-anchor="middle" x="279" y="-118.95" font-family="Times New Roman,serif" font-size="14.00">2.0</text>
</a>
</g>
</g>
<!-- 1.0&#45;&gt;2.0 -->
<g id="edge30" class="edge">
<title>1.0&#45;&gt;2.0</title>
<path fill="none" stroke="black" d="M180.3,-124C197.72,-124 220.86,-124 240.24,-124"/>
<polygon fill="black" stroke="black" points="240.23,-127.5 250.23,-124 240.23,-120.5 240.23,-127.5"/>
</g>
<!-- 3.0 -->
<g id="node4" class="node">
<title>3.0</title>
<g id="a_node4"><a xlink:title="Node: 3.0">
<polygon fill="orange" stroke="orange" points="410.09,-142 378,-124 410.09,-106 442.18,-124 410.09,-142"/>
<text text-anchor="middle" x="410.09" y="-118.95" font-family="Times New Roman,serif" font-size="14.00">3.0</text>
</a>
</g>
</g>
<!-- 2.0&#45;&gt;3.0 -->
<g id="edge54" class="edge">
<title>2.0&#45;&gt;3.0</title>
<path fill="none" stroke="black" d="M306.43,-124C323.5,-124 346.09,-124 365.74,-124"/>
<polygon fill="black" stroke="black" points="365.7,-127.5 375.7,-124 365.7,-120.5 365.7,-127.5"/>
</g>
<!-- 14.0 -->
<g id="node5" class="node">
<title>14.0</title>
<g id="a_node5"><a xlink:title="Node: 14.0">
<ellipse fill="none" stroke="black" cx="541.47" cy="-124" rx="27.3" ry="18"/>
<text text-anchor="middle" x="541.47" y="-118.95" font-family="Times New Roman,serif" font-size="14.00">14.0</text>
</a>
</g>
</g>
<!-- 3.0&#45;&gt;14.0 -->
<g id="edge50" class="edge">
<title>3.0&#45;&gt;14.0</title>
<path fill="none" stroke="black" d="M443.07,-124C461.08,-124 483.68,-124 502.58,-124"/>
<polygon fill="black" stroke="black" points="502.57,-127.5 512.57,-124 502.57,-120.5 502.57,-127.5"/>
</g>
<!-- 15.0 -->
<g id="node6" class="node">
<title>15.0</title>
<g id="a_node6"><a xlink:title="Node: 15.0">
<polygon fill="yellow" stroke="yellow" points="679.37,-142 640.77,-124 679.37,-106 717.98,-124 679.37,-142"/>
<text text-anchor="middle" x="679.37" y="-118.95" font-family="Times New Roman,serif" font-size="14.00">15.0</text>
</a>
</g>
</g>
<!-- 14.0&#45;&gt;15.0 -->
<g id="edge26" class="edge">
<title>14.0&#45;&gt;15.0</title>
<path fill="none" stroke="black" d="M569,-124C585.93,-124 608.41,-124 628.59,-124"/>
<polygon fill="black" stroke="black" points="628.31,-127.5 638.31,-124 628.31,-120.5 628.31,-127.5"/>
</g>
<!-- 16.0 -->
<g id="node7" class="node">
<title>16.0</title>
<g id="a_node7"><a xlink:title="Node: 16.0">
<polygon fill="orange" stroke="orange" points="955.17,-179 916.57,-161 955.17,-143 993.78,-161 955.17,-179"/>
<text text-anchor="middle" x="955.17" y="-155.95" font-family="Times New Roman,serif" font-size="14.00">16.0</text>
</a>
</g>
</g>
<!-- 15.0&#45;&gt;16.0 -->
<g id="edge38" class="edge">
<title>15.0&#45;&gt;16.0</title>
<path fill="none" stroke="black" d="M710.2,-128.03C759.37,-134.67 857.53,-147.94 913.19,-155.46"/>
<polygon fill="black" stroke="black" points="912.51,-158.9 922.89,-156.77 913.45,-151.96 912.51,-158.9"/>
</g>
<!-- 17.0 -->
<g id="node41" class="node">
<title>17.0</title>
<g id="a_node41"><a xlink:title="Node: 17.0">
<ellipse fill="none" stroke="black" cx="817.27" cy="-88" rx="27.3" ry="18"/>
<text text-anchor="middle" x="817.27" y="-82.95" font-family="Times New Roman,serif" font-size="14.00">17.0</text>
</a>
</g>
</g>
<!-- 15.0&#45;&gt;17.0 -->
<g id="edge13" class="edge">
<title>15.0&#45;&gt;17.0</title>
<path fill="none" stroke="black" d="M704.98,-117.48C726.02,-111.91 756.56,-103.82 780.33,-97.52"/>
<polygon fill="black" stroke="black" points="781.15,-100.92 789.92,-94.98 779.36,-94.16 781.15,-100.92"/>
</g>
<!-- 23.0 -->
<g id="node8" class="node">
<title>23.0</title>
<g id="a_node8"><a xlink:title="Node: 23.0">
<ellipse fill="none" stroke="black" cx="1242.28" cy="-124" rx="27.3" ry="18"/>
<text text-anchor="middle" x="1242.28" y="-118.95" font-family="Times New Roman,serif" font-size="14.00">23.0</text>
</a>
</g>
</g>
<!-- 16.0&#45;&gt;23.0 -->
<g id="edge59" class="edge">
<title>16.0&#45;&gt;23.0</title>
<path fill="none" stroke="black" d="M986.41,-157.08C1038.86,-150.27 1146.55,-136.29 1203.71,-128.88"/>
<polygon fill="black" stroke="black" points="1204.13,-132.35 1213.6,-127.59 1203.23,-125.41 1204.13,-132.35"/>
</g>
<!-- 24.0 -->
<g id="node9" class="node">
<title>24.0</title>
<g id="a_node9"><a xlink:title="Node: 24.0">
<ellipse fill="none" stroke="black" cx="1368.87" cy="-124" rx="27.3" ry="18"/>
<text text-anchor="middle" x="1368.87" y="-118.95" font-family="Times New Roman,serif" font-size="14.00">24.0</text>
</a>
</g>
</g>
<!-- 23.0&#45;&gt;24.0 -->
<g id="edge25" class="edge">
<title>23.0&#45;&gt;24.0</title>
<path fill="none" stroke="black" d="M1270.01,-124C1287.41,-124 1310.4,-124 1329.71,-124"/>
<polygon fill="black" stroke="black" points="1329.67,-127.5 1339.67,-124 1329.67,-120.5 1329.67,-127.5"/>
</g>
<!-- 25.0 -->
<g id="node10" class="node">
<title>25.0</title>
<g id="a_node10"><a xlink:title="Node: 25.0">
<polygon fill="yellow" stroke="yellow" points="1506.77,-142 1468.17,-124 1506.77,-106 1545.37,-124 1506.77,-142"/>
<text text-anchor="middle" x="1506.77" y="-118.95" font-family="Times New Roman,serif" font-size="14.00">25.0</text>
</a>
</g>
</g>
<!-- 24.0&#45;&gt;25.0 -->
<g id="edge39" class="edge">
<title>24.0&#45;&gt;25.0</title>
<path fill="none" stroke="black" d="M1396.4,-124C1413.33,-124 1435.81,-124 1455.98,-124"/>
<polygon fill="black" stroke="black" points="1455.71,-127.5 1465.71,-124 1455.71,-120.5 1455.71,-127.5"/>
</g>
<!-- 26.0 -->
<g id="node11" class="node">
<title>26.0</title>
<g id="a_node11"><a xlink:title="Node: 26.0">
<polygon fill="yellow" stroke="yellow" points="1909.16,-179 1870.56,-161 1909.16,-143 1947.76,-161 1909.16,-179"/>
<text text-anchor="middle" x="1909.16" y="-155.95" font-family="Times New Roman,serif" font-size="14.00">26.0</text>
</a>
</g>
</g>
<!-- 25.0&#45;&gt;26.0 -->
<g id="edge58" class="edge">
<title>25.0&#45;&gt;26.0</title>
<path fill="none" stroke="black" d="M1539.86,-126.97C1611.31,-133.57 1783.61,-149.49 1864.65,-156.98"/>
<polygon fill="black" stroke="black" points="1864.13,-160.45 1874.41,-157.88 1864.78,-153.48 1864.13,-160.45"/>
</g>
<!-- 27.0 -->
<g id="node29" class="node">
<title>27.0</title>
<g id="a_node29"><a xlink:title="Node: 27.0">
<ellipse fill="none" stroke="black" cx="1644.67" cy="-88" rx="27.3" ry="18"/>
<text text-anchor="middle" x="1644.67" y="-82.95" font-family="Times New Roman,serif" font-size="14.00">27.0</text>
</a>
</g>
</g>
<!-- 25.0&#45;&gt;27.0 -->
<g id="edge42" class="edge">
<title>25.0&#45;&gt;27.0</title>
<path fill="none" stroke="black" d="M1532.38,-117.48C1553.41,-111.91 1583.96,-103.82 1607.73,-97.52"/>
<polygon fill="black" stroke="black" points="1608.55,-100.92 1617.32,-94.98 1606.76,-94.16 1608.55,-100.92"/>
</g>
<!-- 37.0 -->
<g id="node12" class="node">
<title>37.0</title>
<g id="a_node12"><a xlink:title="Node: 37.0">
<polygon fill="orange" stroke="orange" points="2058.37,-215 2019.76,-197 2058.37,-179 2096.97,-197 2058.37,-215"/>
<text text-anchor="middle" x="2058.37" y="-191.95" font-family="Times New Roman,serif" font-size="14.00">37.0</text>
</a>
</g>
</g>
<!-- 26.0&#45;&gt;37.0 -->
<g id="edge46" class="edge">
<title>26.0&#45;&gt;37.0</title>
<path fill="none" stroke="black" d="M1935.47,-167.19C1959.1,-172.97 1994.62,-181.65 2021.23,-188.16"/>
<polygon fill="black" stroke="black" points="2020.38,-191.56 2030.92,-190.53 2022.04,-184.76 2020.38,-191.56"/>
</g>
<!-- 38.0 -->
<g id="node32" class="node">
<title>38.0</title>
<g id="a_node32"><a xlink:title="Node: 38.0">
<polygon fill="orange" stroke="orange" points="2058.37,-143 2019.76,-125 2058.37,-107 2096.97,-125 2058.37,-143"/>
<text text-anchor="middle" x="2058.37" y="-119.95" font-family="Times New Roman,serif" font-size="14.00">38.0</text>
</a>
</g>
</g>
<!-- 26.0&#45;&gt;38.0 -->
<g id="edge21" class="edge">
<title>26.0&#45;&gt;38.0</title>
<path fill="none" stroke="black" d="M1935.47,-154.81C1959.1,-149.03 1994.62,-140.35 2021.23,-133.84"/>
<polygon fill="black" stroke="black" points="2022.04,-137.24 2030.92,-131.47 2020.38,-130.44 2022.04,-137.24"/>
</g>
<!-- 42.0 -->
<g id="node13" class="node">
<title>42.0</title>
<g id="a_node13"><a xlink:title="Node: 42.0">
<ellipse fill="none" stroke="black" cx="2196.27" cy="-125" rx="27.3" ry="18"/>
<text text-anchor="middle" x="2196.27" y="-119.95" font-family="Times New Roman,serif" font-size="14.00">42.0</text>
</a>
</g>
</g>
<!-- 37.0&#45;&gt;42.0 -->
<g id="edge9" class="edge">
<title>37.0&#45;&gt;42.0</title>
<path fill="none" stroke="black" d="M2077.41,-187.44C2099.6,-175.69 2137.59,-155.56 2164.43,-141.34"/>
<polygon fill="black" stroke="black" points="2165.94,-144.5 2173.13,-136.73 2162.66,-138.31 2165.94,-144.5"/>
</g>
<!-- 43.0 -->
<g id="node14" class="node">
<title>43.0</title>
<g id="a_node14"><a xlink:title="Node: 43.0">
<ellipse fill="none" stroke="black" cx="2322.86" cy="-125" rx="27.3" ry="18"/>
<text text-anchor="middle" x="2322.86" y="-119.95" font-family="Times New Roman,serif" font-size="14.00">43.0</text>
</a>
</g>
</g>
<!-- 42.0&#45;&gt;43.0 -->
<g id="edge43" class="edge">
<title>42.0&#45;&gt;43.0</title>
<path fill="none" stroke="black" d="M2224,-125C2241.4,-125 2264.39,-125 2283.7,-125"/>
<polygon fill="black" stroke="black" points="2283.66,-128.5 2293.66,-125 2283.66,-121.5 2283.66,-128.5"/>
</g>
<!-- 44.0 -->
<g id="node15" class="node">
<title>44.0</title>
<g id="a_node15"><a xlink:title="Node: 44.0">
<polygon fill="orange" stroke="orange" points="2460.76,-143 2422.16,-125 2460.76,-107 2499.36,-125 2460.76,-143"/>
<text text-anchor="middle" x="2460.76" y="-119.95" font-family="Times New Roman,serif" font-size="14.00">44.0</text>
</a>
</g>
</g>
<!-- 43.0&#45;&gt;44.0 -->
<g id="edge44" class="edge">
<title>43.0&#45;&gt;44.0</title>
<path fill="none" stroke="black" d="M2350.39,-125C2367.32,-125 2389.8,-125 2409.97,-125"/>
<polygon fill="black" stroke="black" points="2409.7,-128.5 2419.7,-125 2409.7,-121.5 2409.7,-128.5"/>
</g>
<!-- 46.0 -->
<g id="node16" class="node">
<title>46.0</title>
<g id="a_node16"><a xlink:title="Node: 46.0">
<ellipse fill="none" stroke="black" cx="2598.66" cy="-125" rx="27.3" ry="18"/>
<text text-anchor="middle" x="2598.66" y="-119.95" font-family="Times New Roman,serif" font-size="14.00">46.0</text>
</a>
</g>
</g>
<!-- 44.0&#45;&gt;46.0 -->
<g id="edge48" class="edge">
<title>44.0&#45;&gt;46.0</title>
<path fill="none" stroke="black" d="M2500.34,-125C2518.97,-125 2541.24,-125 2559.78,-125"/>
<polygon fill="black" stroke="black" points="2559.54,-128.5 2569.54,-125 2559.54,-121.5 2559.54,-128.5"/>
</g>
<!-- 47.0 -->
<g id="node17" class="node">
<title>47.0</title>
<g id="a_node17"><a xlink:title="Node: 47.0">
<polygon fill="yellow" stroke="yellow" points="2736.56,-143 2697.96,-125 2736.56,-107 2775.16,-125 2736.56,-143"/>
<text text-anchor="middle" x="2736.56" y="-119.95" font-family="Times New Roman,serif" font-size="14.00">47.0</text>
</a>
</g>
</g>
<!-- 46.0&#45;&gt;47.0 -->
<g id="edge22" class="edge">
<title>46.0&#45;&gt;47.0</title>
<path fill="none" stroke="black" d="M2626.18,-125C2643.12,-125 2665.6,-125 2685.77,-125"/>
<polygon fill="black" stroke="black" points="2685.5,-128.5 2695.5,-125 2685.5,-121.5 2685.5,-128.5"/>
</g>
<!-- 48.0 -->
<g id="node18" class="node">
<title>48.0</title>
<g id="a_node18"><a xlink:title="Node: 48.0">
<polygon fill="orange" stroke="orange" points="2885.76,-179 2847.16,-161 2885.76,-143 2924.37,-161 2885.76,-179"/>
<text text-anchor="middle" x="2885.76" y="-155.95" font-family="Times New Roman,serif" font-size="14.00">48.0</text>
</a>
</g>
</g>
<!-- 47.0&#45;&gt;48.0 -->
<g id="edge41" class="edge">
<title>47.0&#45;&gt;48.0</title>
<path fill="none" stroke="black" d="M2762.86,-131.19C2786.49,-136.97 2822.02,-145.65 2848.63,-152.16"/>
<polygon fill="black" stroke="black" points="2847.77,-155.56 2858.32,-154.53 2849.44,-148.76 2847.77,-155.56"/>
</g>
<!-- 49.0 -->
<g id="node34" class="node">
<title>49.0</title>
<g id="a_node34"><a xlink:title="Node: 49.0">
<polygon fill="orange" stroke="orange" points="2885.76,-107 2847.16,-89 2885.76,-71 2924.37,-89 2885.76,-107"/>
<text text-anchor="middle" x="2885.76" y="-83.95" font-family="Times New Roman,serif" font-size="14.00">49.0</text>
</a>
</g>
</g>
<!-- 47.0&#45;&gt;49.0 -->
<g id="edge11" class="edge">
<title>47.0&#45;&gt;49.0</title>
<path fill="none" stroke="black" d="M2762.86,-118.81C2786.49,-113.03 2822.02,-104.35 2848.63,-97.84"/>
<polygon fill="black" stroke="black" points="2849.44,-101.24 2858.32,-95.47 2847.77,-94.44 2849.44,-101.24"/>
</g>
<!-- 50.0 -->
<g id="node19" class="node">
<title>50.0</title>
<g id="a_node19"><a xlink:title="Node: 50.0">
<ellipse fill="none" stroke="black" cx="3023.66" cy="-161" rx="27.3" ry="18"/>
<text text-anchor="middle" x="3023.66" y="-155.95" font-family="Times New Roman,serif" font-size="14.00">50.0</text>
</a>
</g>
</g>
<!-- 48.0&#45;&gt;50.0 -->
<g id="edge29" class="edge">
<title>48.0&#45;&gt;50.0</title>
<path fill="none" stroke="black" d="M2925.34,-161C2943.97,-161 2966.24,-161 2984.78,-161"/>
<polygon fill="black" stroke="black" points="2984.54,-164.5 2994.54,-161 2984.54,-157.5 2984.54,-164.5"/>
</g>
<!-- 51.0 -->
<g id="node20" class="node">
<title>51.0</title>
<g id="a_node20"><a xlink:title="Node: 51.0">
<polygon fill="yellow" stroke="yellow" points="3563.95,-180 3525.35,-162 3563.95,-144 3602.56,-162 3563.95,-180"/>
<text text-anchor="middle" x="3563.95" y="-156.95" font-family="Times New Roman,serif" font-size="14.00">51.0</text>
</a>
</g>
</g>
<!-- 50.0&#45;&gt;51.0 -->
<g id="edge14" class="edge">
<title>50.0&#45;&gt;51.0</title>
<path fill="none" stroke="black" d="M3051.36,-161.05C3136.49,-161.21 3402.46,-161.7 3513.49,-161.91"/>
<polygon fill="black" stroke="black" points="3513.16,-165.41 3523.16,-161.93 3513.17,-158.41 3513.16,-165.41"/>
</g>
<!-- 53.0 -->
<g id="node21" class="node">
<title>53.0</title>
<g id="a_node21"><a xlink:title="Node: 53.0">
<polygon fill="orange" stroke="orange" points="3713.16,-252 3674.56,-234 3713.16,-216 3751.76,-234 3713.16,-252"/>
<text text-anchor="middle" x="3713.16" y="-228.95" font-family="Times New Roman,serif" font-size="14.00">53.0</text>
</a>
</g>
</g>
<!-- 51.0&#45;&gt;53.0 -->
<g id="edge2" class="edge">
<title>51.0&#45;&gt;53.0</title>
<path fill="none" stroke="black" d="M3583.6,-171.12C3608.82,-183.45 3654.03,-205.57 3683.56,-220.01"/>
<polygon fill="black" stroke="black" points="3681.79,-223.04 3692.31,-224.29 3684.86,-216.75 3681.79,-223.04"/>
</g>
<!-- 52.0 -->
<g id="node33" class="node">
<title>52.0</title>
<g id="a_node33"><a xlink:title="Node: 52.0">
<polygon fill="orange" stroke="orange" points="3713.16,-180 3674.56,-162 3713.16,-144 3751.76,-162 3713.16,-180"/>
<text text-anchor="middle" x="3713.16" y="-156.95" font-family="Times New Roman,serif" font-size="14.00">52.0</text>
</a>
</g>
</g>
<!-- 51.0&#45;&gt;52.0 -->
<g id="edge20" class="edge">
<title>51.0&#45;&gt;52.0</title>
<path fill="none" stroke="black" d="M3603.63,-162C3621.56,-162 3643.1,-162 3662.24,-162"/>
<polygon fill="black" stroke="black" points="3661.97,-165.5 3671.97,-162 3661.97,-158.5 3661.97,-165.5"/>
</g>
<!-- 56.0 -->
<g id="node22" class="node">
<title>56.0</title>
<g id="a_node22"><a xlink:title="Node: 56.0">
<polygon fill="orange" stroke="orange" points="3862.37,-144 3823.76,-126 3862.37,-108 3900.97,-126 3862.37,-144"/>
<text text-anchor="middle" x="3862.37" y="-120.95" font-family="Times New Roman,serif" font-size="14.00">56.0</text>
</a>
</g>
</g>
<!-- 53.0&#45;&gt;56.0 -->
<g id="edge10" class="edge">
<title>53.0&#45;&gt;56.0</title>
<path fill="none" stroke="black" d="M3729.09,-223.05C3754.54,-204.37 3806.58,-166.19 3837.25,-143.69"/>
<polygon fill="black" stroke="black" points="3839.19,-146.61 3845.18,-137.87 3835.05,-140.97 3839.19,-146.61"/>
</g>
<!-- 97.0 -->
<g id="node23" class="node">
<title>97.0</title>
<g id="a_node23"><a xlink:title="Node: 97.0">
<ellipse fill="none" stroke="black" cx="4000.27" cy="-126" rx="27.3" ry="18"/>
<text text-anchor="middle" x="4000.27" y="-120.95" font-family="Times New Roman,serif" font-size="14.00">97.0</text>
</a>
</g>
</g>
<!-- 56.0&#45;&gt;97.0 -->
<g id="edge32" class="edge">
<title>56.0&#45;&gt;97.0</title>
<path fill="none" stroke="black" d="M3901.95,-126C3920.57,-126 3942.85,-126 3961.38,-126"/>
<polygon fill="black" stroke="black" points="3961.15,-129.5 3971.15,-126 3961.15,-122.5 3961.15,-129.5"/>
</g>
<!-- 98.0 -->
<g id="node24" class="node">
<title>98.0</title>
<g id="a_node24"><a xlink:title="Node: 98.0">
<polygon fill="yellow" stroke="yellow" points="4138.17,-144 4099.56,-126 4138.17,-108 4176.77,-126 4138.17,-144"/>
<text text-anchor="middle" x="4138.17" y="-120.95" font-family="Times New Roman,serif" font-size="14.00">98.0</text>
</a>
</g>
</g>
<!-- 97.0&#45;&gt;98.0 -->
<g id="edge27" class="edge">
<title>97.0&#45;&gt;98.0</title>
<path fill="none" stroke="black" d="M4027.79,-126C4044.72,-126 4067.2,-126 4087.38,-126"/>
<polygon fill="black" stroke="black" points="4087.1,-129.5 4097.1,-126 4087.1,-122.5 4087.1,-129.5"/>
</g>
<!-- 99.0 -->
<g id="node25" class="node">
<title>99.0</title>
<g id="a_node25"><a xlink:title="Node: 99.0">
<polygon fill="orange" stroke="orange" points="4429.69,-181 4391.09,-163 4429.69,-145 4468.29,-163 4429.69,-181"/>
<text text-anchor="middle" x="4429.69" y="-157.95" font-family="Times New Roman,serif" font-size="14.00">99.0</text>
</a>
</g>
</g>
<!-- 98.0&#45;&gt;99.0 -->
<g id="edge45" class="edge">
<title>98.0&#45;&gt;99.0</title>
<path fill="none" stroke="black" d="M4169.6,-129.89C4221.87,-136.57 4328.73,-150.22 4387.56,-157.74"/>
<polygon fill="black" stroke="black" points="4386.8,-161.17 4397.16,-158.97 4387.68,-154.23 4386.8,-161.17"/>
</g>
<!-- 100.0 -->
<g id="node45" class="node">
<title>100.0</title>
<g id="a_node45"><a xlink:title="Node: 100.0">
<ellipse fill="none" stroke="black" cx="4280.67" cy="-90" rx="31.9" ry="18"/>
<text text-anchor="middle" x="4280.67" y="-84.95" font-family="Times New Roman,serif" font-size="14.00">100.0</text>
</a>
</g>
</g>
<!-- 98.0&#45;&gt;100.0 -->
<g id="edge18" class="edge">
<title>98.0&#45;&gt;100.0</title>
<path fill="none" stroke="black" d="M4163.96,-119.65C4185.04,-114.24 4215.7,-106.39 4240.16,-100.12"/>
<polygon fill="black" stroke="black" points="4240.97,-103.53 4249.79,-97.66 4239.23,-96.75 4240.97,-103.53"/>
</g>
<!-- 105.0 -->
<g id="node26" class="node">
<title>105.0</title>
<g id="a_node26"><a xlink:title="Node: 105.0">
<ellipse fill="none" stroke="black" cx="4754.16" cy="-126" rx="31.9" ry="18"/>
<text text-anchor="middle" x="4754.16" y="-120.95" font-family="Times New Roman,serif" font-size="14.00">105.0</text>
</a>
</g>
</g>
<!-- 99.0&#45;&gt;105.0 -->
<g id="edge19" class="edge">
<title>99.0&#45;&gt;105.0</title>
<path fill="none" stroke="black" d="M4461.61,-159.45C4519.91,-152.76 4646.08,-138.29 4711.67,-130.76"/>
<polygon fill="black" stroke="black" points="4711.77,-134.27 4721.3,-129.66 4710.97,-127.32 4711.77,-134.27"/>
</g>
<!-- 106.0 -->
<g id="node27" class="node">
<title>106.0</title>
<g id="a_node27"><a xlink:title="Node: 106.0">
<ellipse fill="none" stroke="black" cx="4903.18" cy="-126" rx="31.9" ry="18"/>
<text text-anchor="middle" x="4903.18" y="-120.95" font-family="Times New Roman,serif" font-size="14.00">106.0</text>
</a>
</g>
</g>
<!-- 105.0&#45;&gt;106.0 -->
<g id="edge15" class="edge">
<title>105.0&#45;&gt;106.0</title>
<path fill="none" stroke="black" d="M4786.34,-126C4807.61,-126 4836.06,-126 4859.44,-126"/>
<polygon fill="black" stroke="black" points="4859.28,-129.5 4869.28,-126 4859.28,-122.5 4859.28,-129.5"/>
</g>
<!-- 107.0 -->
<g id="node28" class="node">
<title>107.0</title>
<g id="a_node28"><a xlink:title="Node: 107.0">
<polygon fill="orange" stroke="orange" points="5052.2,-144 5007.08,-126 5052.2,-108 5097.32,-126 5052.2,-144"/>
<text text-anchor="middle" x="5052.2" y="-120.95" font-family="Times New Roman,serif" font-size="14.00">107.0</text>
</a>
</g>
</g>
<!-- 106.0&#45;&gt;107.0 -->
<g id="edge33" class="edge">
<title>106.0&#45;&gt;107.0</title>
<path fill="none" stroke="black" d="M4935.36,-126C4952.56,-126 4974.45,-126 4994.57,-126"/>
<polygon fill="black" stroke="black" points="4994.32,-129.5 5004.32,-126 4994.32,-122.5 4994.32,-129.5"/>
</g>
<!-- 57.0 -->
<g id="node51" class="node">
<title>57.0</title>
<ellipse fill="none" stroke="black" cx="5196.61" cy="-126" rx="27.3" ry="18"/>
<text text-anchor="middle" x="5196.61" y="-120.95" font-family="Times New Roman,serif" font-size="14.00">57.0</text>
</g>
<!-- 107.0&#45;&gt;57.0 -->
<g id="edge23" class="edge">
<title>107.0&#45;&gt;57.0</title>
<path fill="none" stroke="black" d="M5098.65,-126C5117.75,-126 5139.7,-126 5157.89,-126"/>
<polygon fill="black" stroke="black" points="5157.71,-129.5 5167.71,-126 5157.71,-122.5 5157.71,-129.5"/>
</g>
<!-- 28.0 -->
<g id="node30" class="node">
<title>28.0</title>
<g id="a_node30"><a xlink:title="Node: 28.0">
<ellipse fill="none" stroke="black" cx="1771.26" cy="-88" rx="27.3" ry="18"/>
<text text-anchor="middle" x="1771.26" y="-82.95" font-family="Times New Roman,serif" font-size="14.00">28.0</text>
</a>
</g>
</g>
<!-- 27.0&#45;&gt;28.0 -->
<g id="edge7" class="edge">
<title>27.0&#45;&gt;28.0</title>
<path fill="none" stroke="black" d="M1672.4,-88C1689.81,-88 1712.79,-88 1732.11,-88"/>
<polygon fill="black" stroke="black" points="1732.06,-91.5 1742.06,-88 1732.06,-84.5 1732.06,-91.5"/>
</g>
<!-- 29.0 -->
<g id="node31" class="node">
<title>29.0</title>
<g id="a_node31"><a xlink:title="Node: 29.0">
<polygon fill="yellow" stroke="yellow" points="1909.16,-106 1870.56,-88 1909.16,-70 1947.76,-88 1909.16,-106"/>
<text text-anchor="middle" x="1909.16" y="-82.95" font-family="Times New Roman,serif" font-size="14.00">29.0</text>
</a>
</g>
</g>
<!-- 28.0&#45;&gt;29.0 -->
<g id="edge37" class="edge">
<title>28.0&#45;&gt;29.0</title>
<path fill="none" stroke="black" d="M1798.79,-88C1815.72,-88 1838.2,-88 1858.38,-88"/>
<polygon fill="black" stroke="black" points="1858.1,-91.5 1868.1,-88 1858.1,-84.5 1858.1,-91.5"/>
</g>
<!-- 29.0&#45;&gt;38.0 -->
<g id="edge4" class="edge">
<title>29.0&#45;&gt;38.0</title>
<path fill="none" stroke="black" d="M1935.13,-94.28C1958.82,-100.23 1994.67,-109.24 2021.42,-115.97"/>
<polygon fill="black" stroke="black" points="2020.25,-119.28 2030.81,-118.32 2021.96,-112.49 2020.25,-119.28"/>
</g>
<!-- 39.0 -->
<g id="node49" class="node">
<title>39.0</title>
<g id="a_node49"><a xlink:title="Node: 39.0">
<polygon fill="orange" stroke="orange" points="2058.37,-71 2019.76,-53 2058.37,-35 2096.97,-53 2058.37,-71"/>
<text text-anchor="middle" x="2058.37" y="-47.95" font-family="Times New Roman,serif" font-size="14.00">39.0</text>
</a>
</g>
</g>
<!-- 29.0&#45;&gt;39.0 -->
<g id="edge53" class="edge">
<title>29.0&#45;&gt;39.0</title>
<path fill="none" stroke="black" d="M1935.8,-81.9C1959.34,-76.31 1994.46,-67.96 2020.91,-61.67"/>
<polygon fill="black" stroke="black" points="2021.63,-65.1 2030.55,-59.38 2020.01,-58.28 2021.63,-65.1"/>
</g>
<!-- 38.0&#45;&gt;42.0 -->
<g id="edge51" class="edge">
<title>38.0&#45;&gt;42.0</title>
<path fill="none" stroke="black" d="M2097.95,-125C2116.57,-125 2138.85,-125 2157.38,-125"/>
<polygon fill="black" stroke="black" points="2157.15,-128.5 2167.15,-125 2157.15,-121.5 2157.15,-128.5"/>
</g>
<!-- 52.0&#45;&gt;56.0 -->
<g id="edge47" class="edge">
<title>52.0&#45;&gt;56.0</title>
<path fill="none" stroke="black" d="M3739.47,-155.81C3763.1,-150.03 3798.62,-141.35 3825.23,-134.84"/>
<polygon fill="black" stroke="black" points="3826.04,-138.24 3834.92,-132.47 3824.38,-131.44 3826.04,-138.24"/>
</g>
<!-- 58.0 -->
<g id="node35" class="node">
<title>58.0</title>
<g id="a_node35"><a xlink:title="Node: 58.0">
<ellipse fill="none" stroke="black" cx="3023.66" cy="-89" rx="27.3" ry="18"/>
<text text-anchor="middle" x="3023.66" y="-83.95" font-family="Times New Roman,serif" font-size="14.00">58.0</text>
</a>
</g>
</g>
<!-- 49.0&#45;&gt;58.0 -->
<g id="edge36" class="edge">
<title>49.0&#45;&gt;58.0</title>
<path fill="none" stroke="black" d="M2925.34,-89C2943.97,-89 2966.24,-89 2984.78,-89"/>
<polygon fill="black" stroke="black" points="2984.54,-92.5 2994.54,-89 2984.54,-85.5 2984.54,-92.5"/>
</g>
<!-- 59.0 -->
<g id="node36" class="node">
<title>59.0</title>
<g id="a_node36"><a xlink:title="Node: 59.0">
<polygon fill="orange" stroke="orange" points="3161.56,-107 3122.96,-89 3161.56,-71 3200.17,-89 3161.56,-107"/>
<text text-anchor="middle" x="3161.56" y="-83.95" font-family="Times New Roman,serif" font-size="14.00">59.0</text>
</a>
</g>
</g>
<!-- 58.0&#45;&gt;59.0 -->
<g id="edge1" class="edge">
<title>58.0&#45;&gt;59.0</title>
<path fill="none" stroke="black" d="M3051.19,-89C3068.12,-89 3090.6,-89 3110.78,-89"/>
<polygon fill="black" stroke="black" points="3110.5,-92.5 3120.5,-89 3110.5,-85.5 3110.5,-92.5"/>
</g>
<!-- 65.0 -->
<g id="node37" class="node">
<title>65.0</title>
<g id="a_node37"><a xlink:title="Node: 65.0">
<ellipse fill="none" stroke="black" cx="3299.46" cy="-89" rx="27.3" ry="18"/>
<text text-anchor="middle" x="3299.46" y="-83.95" font-family="Times New Roman,serif" font-size="14.00">65.0</text>
</a>
</g>
</g>
<!-- 59.0&#45;&gt;65.0 -->
<g id="edge49" class="edge">
<title>59.0&#45;&gt;65.0</title>
<path fill="none" stroke="black" d="M3201.14,-89C3219.77,-89 3242.04,-89 3260.58,-89"/>
<polygon fill="black" stroke="black" points="3260.34,-92.5 3270.34,-89 3260.34,-85.5 3260.34,-92.5"/>
</g>
<!-- 66.0 -->
<g id="node38" class="node">
<title>66.0</title>
<g id="a_node38"><a xlink:title="Node: 66.0">
<ellipse fill="none" stroke="black" cx="3426.06" cy="-89" rx="27.3" ry="18"/>
<text text-anchor="middle" x="3426.06" y="-83.95" font-family="Times New Roman,serif" font-size="14.00">66.0</text>
</a>
</g>
</g>
<!-- 65.0&#45;&gt;66.0 -->
<g id="edge31" class="edge">
<title>65.0&#45;&gt;66.0</title>
<path fill="none" stroke="black" d="M3327.19,-89C3344.6,-89 3367.58,-89 3386.9,-89"/>
<polygon fill="black" stroke="black" points="3386.86,-92.5 3396.86,-89 3386.86,-85.5 3386.86,-92.5"/>
</g>
<!-- 67.0 -->
<g id="node39" class="node">
<title>67.0</title>
<g id="a_node39"><a xlink:title="Node: 67.0">
<polygon fill="yellow" stroke="yellow" points="3563.95,-107 3525.35,-89 3563.95,-71 3602.56,-89 3563.95,-107"/>
<text text-anchor="middle" x="3563.95" y="-83.95" font-family="Times New Roman,serif" font-size="14.00">67.0</text>
</a>
</g>
</g>
<!-- 66.0&#45;&gt;67.0 -->
<g id="edge55" class="edge">
<title>66.0&#45;&gt;67.0</title>
<path fill="none" stroke="black" d="M3453.58,-89C3470.51,-89 3492.99,-89 3513.17,-89"/>
<polygon fill="black" stroke="black" points="3512.89,-92.5 3522.89,-89 3512.89,-85.5 3512.89,-92.5"/>
</g>
<!-- 54.0 -->
<g id="node40" class="node">
<title>54.0</title>
<g id="a_node40"><a xlink:title="Node: 54.0">
<polygon fill="orange" stroke="orange" points="3713.16,-108 3674.56,-90 3713.16,-72 3751.76,-90 3713.16,-108"/>
<text text-anchor="middle" x="3713.16" y="-84.95" font-family="Times New Roman,serif" font-size="14.00">54.0</text>
</a>
</g>
</g>
<!-- 67.0&#45;&gt;54.0 -->
<g id="edge40" class="edge">
<title>67.0&#45;&gt;54.0</title>
<path fill="none" stroke="black" d="M3602.86,-89.26C3621.08,-89.38 3643.14,-89.53 3662.67,-89.66"/>
<polygon fill="black" stroke="black" points="3662.59,-93.16 3672.61,-89.73 3662.63,-86.16 3662.59,-93.16"/>
</g>
<!-- 55.0 -->
<g id="node44" class="node">
<title>55.0</title>
<g id="a_node44"><a xlink:title="Node: 55.0">
<ellipse fill="none" stroke="black" cx="3713.16" cy="-18" rx="27.3" ry="18"/>
<text text-anchor="middle" x="3713.16" y="-12.95" font-family="Times New Roman,serif" font-size="14.00">55.0</text>
</a>
</g>
</g>
<!-- 67.0&#45;&gt;55.0 -->
<g id="edge16" class="edge">
<title>67.0&#45;&gt;55.0</title>
<path fill="none" stroke="black" d="M3583.9,-79.86C3608.24,-68.12 3650.86,-47.57 3680.25,-33.39"/>
<polygon fill="black" stroke="black" points="3681.57,-36.64 3689.06,-29.14 3678.53,-30.34 3681.57,-36.64"/>
</g>
<!-- 54.0&#45;&gt;56.0 -->
<g id="edge56" class="edge">
<title>54.0&#45;&gt;56.0</title>
<path fill="none" stroke="black" d="M3739.47,-96.19C3763.1,-101.97 3798.62,-110.65 3825.23,-117.16"/>
<polygon fill="black" stroke="black" points="3824.38,-120.56 3834.92,-119.53 3826.04,-113.76 3824.38,-120.56"/>
</g>
<!-- 18.0 -->
<g id="node42" class="node">
<title>18.0</title>
<g id="a_node42"><a xlink:title="Node: 18.0">
<ellipse fill="none" stroke="black" cx="955.17" cy="-88" rx="27.3" ry="18"/>
<text text-anchor="middle" x="955.17" y="-82.95" font-family="Times New Roman,serif" font-size="14.00">18.0</text>
</a>
</g>
</g>
<!-- 17.0&#45;&gt;18.0 -->
<g id="edge6" class="edge">
<title>17.0&#45;&gt;18.0</title>
<path fill="none" stroke="black" d="M844.8,-88C865.19,-88 893.63,-88 916.4,-88"/>
<polygon fill="black" stroke="black" points="916.2,-91.5 926.2,-88 916.2,-84.5 916.2,-91.5"/>
</g>
<!-- 19.0 -->
<g id="node43" class="node">
<title>19.0</title>
<g id="a_node43"><a xlink:title="Node: 19.0">
<polygon fill="orange" stroke="orange" points="1104.38,-106 1065.78,-88 1104.38,-70 1142.98,-88 1104.38,-106"/>
<text text-anchor="middle" x="1104.38" y="-82.95" font-family="Times New Roman,serif" font-size="14.00">19.0</text>
</a>
</g>
</g>
<!-- 18.0&#45;&gt;19.0 -->
<g id="edge17" class="edge">
<title>18.0&#45;&gt;19.0</title>
<path fill="none" stroke="black" d="M982.83,-88C1002.48,-88 1029.8,-88 1053.46,-88"/>
<polygon fill="black" stroke="black" points="1053.22,-91.5 1063.21,-88 1053.21,-84.5 1053.22,-91.5"/>
</g>
<!-- 19.0&#45;&gt;23.0 -->
<g id="edge34" class="edge">
<title>19.0&#45;&gt;23.0</title>
<path fill="none" stroke="black" d="M1129.99,-94.52C1151.02,-100.09 1181.57,-108.18 1205.34,-114.48"/>
<polygon fill="black" stroke="black" points="1204.37,-117.84 1214.93,-117.02 1206.16,-111.08 1204.37,-117.84"/>
</g>
<!-- 55.0&#45;&gt;56.0 -->
<g id="edge12" class="edge">
<title>55.0&#45;&gt;56.0</title>
<path fill="none" stroke="black" d="M3732.21,-31.24C3758.7,-50.68 3808.13,-86.94 3837.56,-108.54"/>
<polygon fill="black" stroke="black" points="3835.36,-111.26 3845.49,-114.35 3839.5,-105.62 3835.36,-111.26"/>
</g>
<!-- 101.0 -->
<g id="node46" class="node">
<title>101.0</title>
<g id="a_node46"><a xlink:title="Node: 101.0">
<polygon fill="yellow" stroke="yellow" points="4429.69,-108 4384.57,-90 4429.69,-72 4474.81,-90 4429.69,-108"/>
<text text-anchor="middle" x="4429.69" y="-84.95" font-family="Times New Roman,serif" font-size="14.00">101.0</text>
</a>
</g>
</g>
<!-- 100.0&#45;&gt;101.0 -->
<g id="edge8" class="edge">
<title>100.0&#45;&gt;101.0</title>
<path fill="none" stroke="black" d="M4312.85,-90C4330.05,-90 4351.95,-90 4372.06,-90"/>
<polygon fill="black" stroke="black" points="4371.81,-93.5 4381.81,-90 4371.81,-86.5 4371.81,-93.5"/>
</g>
<!-- 103.0 -->
<g id="node47" class="node">
<title>103.0</title>
<g id="a_node47"><a xlink:title="Node: 103.0">
<ellipse fill="none" stroke="black" cx="4591.93" cy="-18" rx="31.9" ry="18"/>
<text text-anchor="middle" x="4591.93" y="-12.95" font-family="Times New Roman,serif" font-size="14.00">103.0</text>
</a>
</g>
</g>
<!-- 101.0&#45;&gt;103.0 -->
<g id="edge3" class="edge">
<title>101.0&#45;&gt;103.0</title>
<path fill="none" stroke="black" d="M4451.97,-80.44C4478.51,-68.51 4524.25,-47.96 4555.97,-33.71"/>
<polygon fill="black" stroke="black" points="4557.07,-37.05 4564.76,-29.76 4554.2,-30.67 4557.07,-37.05"/>
</g>
<!-- 102.0 -->
<g id="node50" class="node">
<title>102.0</title>
<g id="a_node50"><a xlink:title="Node: 102.0">
<polygon fill="orange" stroke="orange" points="4591.93,-108 4546.81,-90 4591.93,-72 4637.04,-90 4591.93,-108"/>
<text text-anchor="middle" x="4591.93" y="-84.95" font-family="Times New Roman,serif" font-size="14.00">102.0</text>
</a>
</g>
</g>
<!-- 101.0&#45;&gt;102.0 -->
<g id="edge24" class="edge">
<title>101.0&#45;&gt;102.0</title>
<path fill="none" stroke="black" d="M4475.75,-90C4493.93,-90 4515.1,-90 4534.3,-90"/>
<polygon fill="black" stroke="black" points="4534.13,-93.5 4544.13,-90 4534.13,-86.5 4534.13,-93.5"/>
</g>
<!-- 104.0 -->
<g id="node48" class="node">
<title>104.0</title>
<g id="a_node48"><a xlink:title="Node: 104.0">
<polygon fill="orange" stroke="orange" points="4754.16,-36 4709.04,-18 4754.16,0 4799.28,-18 4754.16,-36"/>
<text text-anchor="middle" x="4754.16" y="-12.95" font-family="Times New Roman,serif" font-size="14.00">104.0</text>
</a>
</g>
</g>
<!-- 103.0&#45;&gt;104.0 -->
<g id="edge52" class="edge">
<title>103.0&#45;&gt;104.0</title>
<path fill="none" stroke="black" d="M4624.2,-18C4644.72,-18 4672.16,-18 4696.44,-18"/>
<polygon fill="black" stroke="black" points="4696.19,-21.5 4706.19,-18 4696.19,-14.5 4696.19,-21.5"/>
</g>
<!-- 113.0 -->
<g id="node52" class="node">
<title>113.0</title>
<ellipse fill="none" stroke="black" cx="4903.18" cy="-18" rx="31.9" ry="18"/>
<text text-anchor="middle" x="4903.18" y="-12.95" font-family="Times New Roman,serif" font-size="14.00">113.0</text>
</g>
<!-- 104.0&#45;&gt;113.0 -->
<g id="edge35" class="edge">
<title>104.0&#45;&gt;113.0</title>
<path fill="none" stroke="black" d="M4800.47,-18C4819.39,-18 4841.24,-18 4859.83,-18"/>
<polygon fill="black" stroke="black" points="4859.7,-21.5 4869.7,-18 4859.7,-14.5 4859.7,-21.5"/>
</g>
<!-- 39.0&#45;&gt;42.0 -->
<g id="edge5" class="edge">
<title>39.0&#45;&gt;42.0</title>
<path fill="none" stroke="black" d="M2077.41,-62.56C2099.6,-74.31 2137.59,-94.44 2164.43,-108.66"/>
<polygon fill="black" stroke="black" points="2162.66,-111.69 2173.13,-113.27 2165.94,-105.5 2162.66,-111.69"/>
</g>
<!-- 102.0&#45;&gt;105.0 -->
<g id="edge57" class="edge">
<title>102.0&#45;&gt;105.0</title>
<path fill="none" stroke="black" d="M4621.94,-96.52C4647.39,-102.24 4684.63,-110.6 4712.95,-116.97"/>
<polygon fill="black" stroke="black" points="4712.09,-120.36 4722.61,-119.14 4713.62,-113.53 4712.09,-120.36"/>
</g>
</g>
</svg>
