<?xml version="1.0" encoding="UTF-8" standalone="no"?>
<!DOCTYPE svg PUBLIC "-//W3C//DTD SVG 1.1//EN"
 "http://www.w3.org/Graphics/SVG/1.1/DTD/svg11.dtd">
<!-- Generated by graphviz version 12.2.1 (20241206.2353)
 -->
<!-- Pages: 1 -->
<svg width="5837pt" height="262pt"
 viewBox="0.00 0.00 5837.10 262.00" xmlns="http://www.w3.org/2000/svg" xmlns:xlink="http://www.w3.org/1999/xlink">
<g id="graph0" class="graph" transform="scale(1 1) rotate(0) translate(4 258)">
<polygon fill="white" stroke="none" points="-4,4 -4,-258 5833.1,-258 5833.1,4 -4,4"/>
<!-- 0.0 -->
<g id="node1" class="node">
<title>0.0</title>
<g id="a_node1"><a xlink:title="Node: 0.0">
<ellipse fill="none" stroke="black" cx="27" cy="-55" rx="27" ry="18"/>
<text text-anchor="middle" x="27" y="-49.95" font-family="Times New Roman,serif" font-size="14.00">0.0</text>
</a>
</g>
</g>
<!-- 1.0 -->
<g id="node2" class="node">
<title>1.0</title>
<g id="a_node2"><a xlink:title="Node: 1.0">
<ellipse fill="none" stroke="black" cx="153" cy="-55" rx="27" ry="18"/>
<text text-anchor="middle" x="153" y="-49.95" font-family="Times New Roman,serif" font-size="14.00">1.0</text>
</a>
</g>
</g>
<!-- 0.0&#45;&gt;1.0 -->
<g id="edge37" class="edge">
<title>0.0&#45;&gt;1.0</title>
<path fill="none" stroke="black" d="M54.3,-55C71.72,-55 94.86,-55 114.24,-55"/>
<polygon fill="black" stroke="black" points="114.23,-58.5 124.23,-55 114.23,-51.5 114.23,-58.5"/>
</g>
<!-- 2.0 -->
<g id="node3" class="node">
<title>2.0</title>
<g id="a_node3"><a xlink:title="Node: 2.0">
<ellipse fill="none" stroke="black" cx="279" cy="-55" rx="27" ry="18"/>
<text text-anchor="middle" x="279" y="-49.95" font-family="Times New Roman,serif" font-size="14.00">2.0</text>
</a>
</g>
</g>
<!-- 1.0&#45;&gt;2.0 -->
<g id="edge38" class="edge">
<title>1.0&#45;&gt;2.0</title>
<path fill="none" stroke="black" d="M180.3,-55C197.72,-55 220.86,-55 240.24,-55"/>
<polygon fill="black" stroke="black" points="240.23,-58.5 250.23,-55 240.23,-51.5 240.23,-58.5"/>
</g>
<!-- 3.0 -->
<g id="node4" class="node">
<title>3.0</title>
<g id="a_node4"><a xlink:title="Node: 3.0">
<ellipse fill="none" stroke="black" cx="405" cy="-55" rx="27" ry="18"/>
<text text-anchor="middle" x="405" y="-49.95" font-family="Times New Roman,serif" font-size="14.00">3.0</text>
</a>
</g>
</g>
<!-- 2.0&#45;&gt;3.0 -->
<g id="edge68" class="edge">
<title>2.0&#45;&gt;3.0</title>
<path fill="none" stroke="black" d="M306.3,-55C323.72,-55 346.86,-55 366.24,-55"/>
<polygon fill="black" stroke="black" points="366.23,-58.5 376.23,-55 366.23,-51.5 366.23,-58.5"/>
</g>
<!-- 4.0 -->
<g id="node5" class="node">
<title>4.0</title>
<g id="a_node5"><a xlink:title="Node: 4.0">
<ellipse fill="none" stroke="black" cx="531" cy="-55" rx="27" ry="18"/>
<text text-anchor="middle" x="531" y="-49.95" font-family="Times New Roman,serif" font-size="14.00">4.0</text>
</a>
</g>
</g>
<!-- 3.0&#45;&gt;4.0 -->
<g id="edge4" class="edge">
<title>3.0&#45;&gt;4.0</title>
<path fill="none" stroke="black" d="M432.3,-55C449.72,-55 472.86,-55 492.24,-55"/>
<polygon fill="black" stroke="black" points="492.23,-58.5 502.23,-55 492.23,-51.5 492.23,-58.5"/>
</g>
<!-- 5.0 -->
<g id="node6" class="node">
<title>5.0</title>
<g id="a_node6"><a xlink:title="Node: 5.0">
<ellipse fill="none" stroke="black" cx="657" cy="-55" rx="27" ry="18"/>
<text text-anchor="middle" x="657" y="-49.95" font-family="Times New Roman,serif" font-size="14.00">5.0</text>
</a>
</g>
</g>
<!-- 4.0&#45;&gt;5.0 -->
<g id="edge26" class="edge">
<title>4.0&#45;&gt;5.0</title>
<path fill="none" stroke="black" d="M558.3,-55C575.72,-55 598.86,-55 618.24,-55"/>
<polygon fill="black" stroke="black" points="618.23,-58.5 628.23,-55 618.23,-51.5 618.23,-58.5"/>
</g>
<!-- 6.0 -->
<g id="node7" class="node">
<title>6.0</title>
<g id="a_node7"><a xlink:title="Node: 6.0">
<ellipse fill="none" stroke="black" cx="783" cy="-55" rx="27" ry="18"/>
<text text-anchor="middle" x="783" y="-49.95" font-family="Times New Roman,serif" font-size="14.00">6.0</text>
</a>
</g>
</g>
<!-- 5.0&#45;&gt;6.0 -->
<g id="edge27" class="edge">
<title>5.0&#45;&gt;6.0</title>
<path fill="none" stroke="black" d="M684.3,-55C701.72,-55 724.86,-55 744.24,-55"/>
<polygon fill="black" stroke="black" points="744.23,-58.5 754.23,-55 744.23,-51.5 744.23,-58.5"/>
</g>
<!-- 7.0 -->
<g id="node8" class="node">
<title>7.0</title>
<g id="a_node8"><a xlink:title="Node: 7.0">
<ellipse fill="none" stroke="black" cx="909" cy="-55" rx="27" ry="18"/>
<text text-anchor="middle" x="909" y="-49.95" font-family="Times New Roman,serif" font-size="14.00">7.0</text>
</a>
</g>
</g>
<!-- 6.0&#45;&gt;7.0 -->
<g id="edge45" class="edge">
<title>6.0&#45;&gt;7.0</title>
<path fill="none" stroke="black" d="M810.3,-55C827.72,-55 850.86,-55 870.24,-55"/>
<polygon fill="black" stroke="black" points="870.23,-58.5 880.23,-55 870.23,-51.5 870.23,-58.5"/>
</g>
<!-- 8.0 -->
<g id="node9" class="node">
<title>8.0</title>
<g id="a_node9"><a xlink:title="Node: 8.0">
<polygon fill="yellow" stroke="yellow" points="1040.09,-73 1008,-55 1040.09,-37 1072.18,-55 1040.09,-73"/>
<text text-anchor="middle" x="1040.09" y="-49.95" font-family="Times New Roman,serif" font-size="14.00">8.0</text>
</a>
</g>
</g>
<!-- 7.0&#45;&gt;8.0 -->
<g id="edge72" class="edge">
<title>7.0&#45;&gt;8.0</title>
<path fill="none" stroke="black" d="M936.43,-55C953.5,-55 976.09,-55 995.74,-55"/>
<polygon fill="black" stroke="black" points="995.7,-58.5 1005.7,-55 995.7,-51.5 995.7,-58.5"/>
</g>
<!-- 9.0 -->
<g id="node10" class="node">
<title>9.0</title>
<g id="a_node10"><a xlink:title="Node: 9.0">
<polygon fill="orange" stroke="orange" points="1302.86,-110 1270.77,-92 1302.86,-74 1334.95,-92 1302.86,-110"/>
<text text-anchor="middle" x="1302.86" y="-86.95" font-family="Times New Roman,serif" font-size="14.00">9.0</text>
</a>
</g>
</g>
<!-- 8.0&#45;&gt;9.0 -->
<g id="edge13" class="edge">
<title>8.0&#45;&gt;9.0</title>
<path fill="none" stroke="black" d="M1066.57,-58.62C1112.92,-65.19 1211.18,-79.13 1264.9,-86.76"/>
<polygon fill="black" stroke="black" points="1264.39,-90.22 1274.78,-88.16 1265.37,-83.29 1264.39,-90.22"/>
</g>
<!-- 10.0 -->
<g id="node61" class="node">
<title>10.0</title>
<g id="a_node61"><a xlink:title="Node: 10.0">
<ellipse fill="none" stroke="black" cx="1171.47" cy="-19" rx="27.3" ry="18"/>
<text text-anchor="middle" x="1171.47" y="-13.95" font-family="Times New Roman,serif" font-size="14.00">10.0</text>
</a>
</g>
</g>
<!-- 8.0&#45;&gt;10.0 -->
<g id="edge67" class="edge">
<title>8.0&#45;&gt;10.0</title>
<path fill="none" stroke="black" d="M1062.45,-49.06C1082.19,-43.56 1111.89,-35.3 1135.15,-28.83"/>
<polygon fill="black" stroke="black" points="1135.83,-32.27 1144.53,-26.22 1133.96,-25.53 1135.83,-32.27"/>
</g>
<!-- 21.0 -->
<g id="node11" class="node">
<title>21.0</title>
<g id="a_node11"><a xlink:title="Node: 21.0">
<ellipse fill="none" stroke="black" cx="1583.45" cy="-55" rx="27.3" ry="18"/>
<text text-anchor="middle" x="1583.45" y="-49.95" font-family="Times New Roman,serif" font-size="14.00">21.0</text>
</a>
</g>
</g>
<!-- 9.0&#45;&gt;21.0 -->
<g id="edge69" class="edge">
<title>9.0&#45;&gt;21.0</title>
<path fill="none" stroke="black" d="M1329.82,-88.55C1379.48,-81.96 1488.09,-67.53 1545.38,-59.92"/>
<polygon fill="black" stroke="black" points="1545.5,-63.44 1554.96,-58.65 1544.58,-56.5 1545.5,-63.44"/>
</g>
<!-- 22.0 -->
<g id="node12" class="node">
<title>22.0</title>
<g id="a_node12"><a xlink:title="Node: 22.0">
<ellipse fill="none" stroke="black" cx="1710.04" cy="-55" rx="27.3" ry="18"/>
<text text-anchor="middle" x="1710.04" y="-49.95" font-family="Times New Roman,serif" font-size="14.00">22.0</text>
</a>
</g>
</g>
<!-- 21.0&#45;&gt;22.0 -->
<g id="edge9" class="edge">
<title>21.0&#45;&gt;22.0</title>
<path fill="none" stroke="black" d="M1611.18,-55C1628.59,-55 1651.57,-55 1670.89,-55"/>
<polygon fill="black" stroke="black" points="1670.85,-58.5 1680.85,-55 1670.85,-51.5 1670.85,-58.5"/>
</g>
<!-- 23.0 -->
<g id="node13" class="node">
<title>23.0</title>
<g id="a_node13"><a xlink:title="Node: 23.0">
<ellipse fill="none" stroke="black" cx="1836.64" cy="-55" rx="27.3" ry="18"/>
<text text-anchor="middle" x="1836.64" y="-49.95" font-family="Times New Roman,serif" font-size="14.00">23.0</text>
</a>
</g>
</g>
<!-- 22.0&#45;&gt;23.0 -->
<g id="edge10" class="edge">
<title>22.0&#45;&gt;23.0</title>
<path fill="none" stroke="black" d="M1737.77,-55C1755.18,-55 1778.16,-55 1797.48,-55"/>
<polygon fill="black" stroke="black" points="1797.44,-58.5 1807.44,-55 1797.44,-51.5 1797.44,-58.5"/>
</g>
<!-- 24.0 -->
<g id="node14" class="node">
<title>24.0</title>
<g id="a_node14"><a xlink:title="Node: 24.0">
<ellipse fill="none" stroke="black" cx="1963.23" cy="-55" rx="27.3" ry="18"/>
<text text-anchor="middle" x="1963.23" y="-49.95" font-family="Times New Roman,serif" font-size="14.00">24.0</text>
</a>
</g>
</g>
<!-- 23.0&#45;&gt;24.0 -->
<g id="edge34" class="edge">
<title>23.0&#45;&gt;24.0</title>
<path fill="none" stroke="black" d="M1864.36,-55C1881.77,-55 1904.75,-55 1924.07,-55"/>
<polygon fill="black" stroke="black" points="1924.03,-58.5 1934.03,-55 1924.03,-51.5 1924.03,-58.5"/>
</g>
<!-- 25.0 -->
<g id="node15" class="node">
<title>25.0</title>
<g id="a_node15"><a xlink:title="Node: 25.0">
<polygon fill="yellow" stroke="yellow" points="2101.13,-73 2062.53,-55 2101.13,-37 2139.73,-55 2101.13,-73"/>
<text text-anchor="middle" x="2101.13" y="-49.95" font-family="Times New Roman,serif" font-size="14.00">25.0</text>
</a>
</g>
</g>
<!-- 24.0&#45;&gt;25.0 -->
<g id="edge46" class="edge">
<title>24.0&#45;&gt;25.0</title>
<path fill="none" stroke="black" d="M1990.75,-55C2007.69,-55 2030.17,-55 2050.34,-55"/>
<polygon fill="black" stroke="black" points="2050.07,-58.5 2060.07,-55 2050.07,-51.5 2050.07,-58.5"/>
</g>
<!-- 26.0 -->
<g id="node16" class="node">
<title>26.0</title>
<g id="a_node16"><a xlink:title="Node: 26.0">
<polygon fill="orange" stroke="orange" points="2376.93,-110 2338.32,-92 2376.93,-74 2415.53,-92 2376.93,-110"/>
<text text-anchor="middle" x="2376.93" y="-86.95" font-family="Times New Roman,serif" font-size="14.00">26.0</text>
</a>
</g>
</g>
<!-- 25.0&#45;&gt;26.0 -->
<g id="edge75" class="edge">
<title>25.0&#45;&gt;26.0</title>
<path fill="none" stroke="black" d="M2131.95,-59.03C2181.12,-65.67 2279.29,-78.94 2334.94,-86.46"/>
<polygon fill="black" stroke="black" points="2334.26,-89.9 2344.64,-87.77 2335.2,-82.96 2334.26,-89.9"/>
</g>
<!-- 27.0 -->
<g id="node64" class="node">
<title>27.0</title>
<g id="a_node64"><a xlink:title="Node: 27.0">
<ellipse fill="none" stroke="black" cx="2239.03" cy="-19" rx="27.3" ry="18"/>
<text text-anchor="middle" x="2239.03" y="-13.95" font-family="Times New Roman,serif" font-size="14.00">27.0</text>
</a>
</g>
</g>
<!-- 25.0&#45;&gt;27.0 -->
<g id="edge49" class="edge">
<title>25.0&#45;&gt;27.0</title>
<path fill="none" stroke="black" d="M2126.74,-48.48C2147.77,-42.91 2178.32,-34.82 2202.09,-28.52"/>
<polygon fill="black" stroke="black" points="2202.91,-31.92 2211.68,-25.98 2201.12,-25.16 2202.91,-31.92"/>
</g>
<!-- 33.0 -->
<g id="node17" class="node">
<title>33.0</title>
<g id="a_node17"><a xlink:title="Node: 33.0">
<ellipse fill="none" stroke="black" cx="2664.03" cy="-55" rx="27.3" ry="18"/>
<text text-anchor="middle" x="2664.03" y="-49.95" font-family="Times New Roman,serif" font-size="14.00">33.0</text>
</a>
</g>
</g>
<!-- 26.0&#45;&gt;33.0 -->
<g id="edge8" class="edge">
<title>26.0&#45;&gt;33.0</title>
<path fill="none" stroke="black" d="M2408.17,-88.08C2460.62,-81.27 2568.3,-67.29 2625.46,-59.88"/>
<polygon fill="black" stroke="black" points="2625.89,-63.35 2635.35,-58.59 2624.98,-56.41 2625.89,-63.35"/>
</g>
<!-- 34.0 -->
<g id="node18" class="node">
<title>34.0</title>
<g id="a_node18"><a xlink:title="Node: 34.0">
<ellipse fill="none" stroke="black" cx="2790.63" cy="-55" rx="27.3" ry="18"/>
<text text-anchor="middle" x="2790.63" y="-49.95" font-family="Times New Roman,serif" font-size="14.00">34.0</text>
</a>
</g>
</g>
<!-- 33.0&#45;&gt;34.0 -->
<g id="edge50" class="edge">
<title>33.0&#45;&gt;34.0</title>
<path fill="none" stroke="black" d="M2691.76,-55C2709.17,-55 2732.15,-55 2751.47,-55"/>
<polygon fill="black" stroke="black" points="2751.43,-58.5 2761.43,-55 2751.43,-51.5 2751.43,-58.5"/>
</g>
<!-- 35.0 -->
<g id="node19" class="node">
<title>35.0</title>
<g id="a_node19"><a xlink:title="Node: 35.0">
<polygon fill="yellow" stroke="yellow" points="2928.52,-73 2889.92,-55 2928.52,-37 2967.13,-55 2928.52,-73"/>
<text text-anchor="middle" x="2928.52" y="-49.95" font-family="Times New Roman,serif" font-size="14.00">35.0</text>
</a>
</g>
</g>
<!-- 34.0&#45;&gt;35.0 -->
<g id="edge65" class="edge">
<title>34.0&#45;&gt;35.0</title>
<path fill="none" stroke="black" d="M2818.15,-55C2835.08,-55 2857.56,-55 2877.74,-55"/>
<polygon fill="black" stroke="black" points="2877.46,-58.5 2887.46,-55 2877.46,-51.5 2877.46,-58.5"/>
</g>
<!-- 36.0 -->
<g id="node20" class="node">
<title>36.0</title>
<g id="a_node20"><a xlink:title="Node: 36.0">
<polygon fill="orange" stroke="orange" points="3077.73,-109 3039.13,-91 3077.73,-73 3116.33,-91 3077.73,-109"/>
<text text-anchor="middle" x="3077.73" y="-85.95" font-family="Times New Roman,serif" font-size="14.00">36.0</text>
</a>
</g>
</g>
<!-- 35.0&#45;&gt;36.0 -->
<g id="edge7" class="edge">
<title>35.0&#45;&gt;36.0</title>
<path fill="none" stroke="black" d="M2954.83,-61.19C2978.46,-66.97 3013.98,-75.65 3040.59,-82.16"/>
<polygon fill="black" stroke="black" points="3039.74,-85.56 3050.29,-84.53 3041.4,-78.76 3039.74,-85.56"/>
</g>
<!-- 37.0 -->
<g id="node32" class="node">
<title>37.0</title>
<g id="a_node32"><a xlink:title="Node: 37.0">
<ellipse fill="none" stroke="black" cx="3077.73" cy="-19" rx="27.3" ry="18"/>
<text text-anchor="middle" x="3077.73" y="-13.95" font-family="Times New Roman,serif" font-size="14.00">37.0</text>
</a>
</g>
</g>
<!-- 35.0&#45;&gt;37.0 -->
<g id="edge51" class="edge">
<title>35.0&#45;&gt;37.0</title>
<path fill="none" stroke="black" d="M2954.83,-48.81C2978.46,-43.03 3013.98,-34.35 3040.59,-27.84"/>
<polygon fill="black" stroke="black" points="3041.4,-31.24 3050.29,-25.47 3039.74,-24.44 3041.4,-31.24"/>
</g>
<!-- 81.0 -->
<g id="node21" class="node">
<title>81.0</title>
<g id="a_node21"><a xlink:title="Node: 81.0">
<ellipse fill="none" stroke="black" cx="3215.63" cy="-91" rx="27.3" ry="18"/>
<text text-anchor="middle" x="3215.63" y="-85.95" font-family="Times New Roman,serif" font-size="14.00">81.0</text>
</a>
</g>
</g>
<!-- 36.0&#45;&gt;81.0 -->
<g id="edge63" class="edge">
<title>36.0&#45;&gt;81.0</title>
<path fill="none" stroke="black" d="M3117.31,-91C3135.94,-91 3158.21,-91 3176.75,-91"/>
<polygon fill="black" stroke="black" points="3176.51,-94.5 3186.51,-91 3176.51,-87.5 3176.51,-94.5"/>
</g>
<!-- 82.0 -->
<g id="node22" class="node">
<title>82.0</title>
<g id="a_node22"><a xlink:title="Node: 82.0">
<ellipse fill="none" stroke="black" cx="3342.22" cy="-91" rx="27.3" ry="18"/>
<text text-anchor="middle" x="3342.22" y="-85.95" font-family="Times New Roman,serif" font-size="14.00">82.0</text>
</a>
</g>
</g>
<!-- 81.0&#45;&gt;82.0 -->
<g id="edge1" class="edge">
<title>81.0&#45;&gt;82.0</title>
<path fill="none" stroke="black" d="M3243.36,-91C3260.77,-91 3283.75,-91 3303.07,-91"/>
<polygon fill="black" stroke="black" points="3303.03,-94.5 3313.03,-91 3303.03,-87.5 3303.03,-94.5"/>
</g>
<!-- 83.0 -->
<g id="node23" class="node">
<title>83.0</title>
<g id="a_node23"><a xlink:title="Node: 83.0">
<ellipse fill="none" stroke="black" cx="3468.82" cy="-91" rx="27.3" ry="18"/>
<text text-anchor="middle" x="3468.82" y="-85.95" font-family="Times New Roman,serif" font-size="14.00">83.0</text>
</a>
</g>
</g>
<!-- 82.0&#45;&gt;83.0 -->
<g id="edge23" class="edge">
<title>82.0&#45;&gt;83.0</title>
<path fill="none" stroke="black" d="M3369.95,-91C3387.36,-91 3410.34,-91 3429.66,-91"/>
<polygon fill="black" stroke="black" points="3429.62,-94.5 3439.62,-91 3429.62,-87.5 3429.62,-94.5"/>
</g>
<!-- 84.0 -->
<g id="node24" class="node">
<title>84.0</title>
<g id="a_node24"><a xlink:title="Node: 84.0">
<polygon fill="yellow" stroke="yellow" points="3606.72,-109 3568.11,-91 3606.72,-73 3645.32,-91 3606.72,-109"/>
<text text-anchor="middle" x="3606.72" y="-85.95" font-family="Times New Roman,serif" font-size="14.00">84.0</text>
</a>
</g>
</g>
<!-- 83.0&#45;&gt;84.0 -->
<g id="edge39" class="edge">
<title>83.0&#45;&gt;84.0</title>
<path fill="none" stroke="black" d="M3496.34,-91C3513.27,-91 3535.75,-91 3555.93,-91"/>
<polygon fill="black" stroke="black" points="3555.65,-94.5 3565.65,-91 3555.65,-87.5 3555.65,-94.5"/>
</g>
<!-- 85.0 -->
<g id="node25" class="node">
<title>85.0</title>
<g id="a_node25"><a xlink:title="Node: 85.0">
<polygon fill="orange" stroke="orange" points="3755.92,-181 3717.32,-163 3755.92,-145 3794.52,-163 3755.92,-181"/>
<text text-anchor="middle" x="3755.92" y="-157.95" font-family="Times New Roman,serif" font-size="14.00">85.0</text>
</a>
</g>
</g>
<!-- 84.0&#45;&gt;85.0 -->
<g id="edge54" class="edge">
<title>84.0&#45;&gt;85.0</title>
<path fill="none" stroke="black" d="M3626.36,-100.12C3651.58,-112.45 3696.8,-134.57 3726.33,-149.01"/>
<polygon fill="black" stroke="black" points="3724.55,-152.04 3735.07,-153.29 3727.62,-145.75 3724.55,-152.04"/>
</g>
<!-- 86.0 -->
<g id="node51" class="node">
<title>86.0</title>
<g id="a_node51"><a xlink:title="Node: 86.0">
<ellipse fill="none" stroke="black" cx="3755.92" cy="-91" rx="27.3" ry="18"/>
<text text-anchor="middle" x="3755.92" y="-85.95" font-family="Times New Roman,serif" font-size="14.00">86.0</text>
</a>
</g>
</g>
<!-- 84.0&#45;&gt;86.0 -->
<g id="edge30" class="edge">
<title>84.0&#45;&gt;86.0</title>
<path fill="none" stroke="black" d="M3646.39,-91C3668.24,-91 3695.44,-91 3717.14,-91"/>
<polygon fill="black" stroke="black" points="3717.05,-94.5 3727.05,-91 3717.05,-87.5 3717.05,-94.5"/>
</g>
<!-- 89.0 -->
<g id="node26" class="node">
<title>89.0</title>
<g id="a_node26"><a xlink:title="Node: 89.0">
<ellipse fill="none" stroke="black" cx="3893.82" cy="-163" rx="27.3" ry="18"/>
<text text-anchor="middle" x="3893.82" y="-157.95" font-family="Times New Roman,serif" font-size="14.00">89.0</text>
</a>
</g>
</g>
<!-- 85.0&#45;&gt;89.0 -->
<g id="edge73" class="edge">
<title>85.0&#45;&gt;89.0</title>
<path fill="none" stroke="black" d="M3795.5,-163C3814.13,-163 3836.4,-163 3854.94,-163"/>
<polygon fill="black" stroke="black" points="3854.7,-166.5 3864.7,-163 3854.7,-159.5 3854.7,-166.5"/>
</g>
<!-- 90.0 -->
<g id="node27" class="node">
<title>90.0</title>
<g id="a_node27"><a xlink:title="Node: 90.0">
<ellipse fill="none" stroke="black" cx="4020.41" cy="-164" rx="27.3" ry="18"/>
<text text-anchor="middle" x="4020.41" y="-158.95" font-family="Times New Roman,serif" font-size="14.00">90.0</text>
</a>
</g>
</g>
<!-- 89.0&#45;&gt;90.0 -->
<g id="edge64" class="edge">
<title>89.0&#45;&gt;90.0</title>
<path fill="none" stroke="black" d="M3921.55,-163.21C3938.96,-163.35 3961.94,-163.54 3981.26,-163.69"/>
<polygon fill="black" stroke="black" points="3981.19,-167.19 3991.22,-163.77 3981.24,-160.19 3981.19,-167.19"/>
</g>
<!-- 91.0 -->
<g id="node28" class="node">
<title>91.0</title>
<g id="a_node28"><a xlink:title="Node: 91.0">
<polygon fill="yellow" stroke="yellow" points="4158.31,-182 4119.71,-164 4158.31,-146 4196.92,-164 4158.31,-182"/>
<text text-anchor="middle" x="4158.31" y="-158.95" font-family="Times New Roman,serif" font-size="14.00">91.0</text>
</a>
</g>
</g>
<!-- 90.0&#45;&gt;91.0 -->
<g id="edge2" class="edge">
<title>90.0&#45;&gt;91.0</title>
<path fill="none" stroke="black" d="M4047.94,-164C4064.87,-164 4087.35,-164 4107.53,-164"/>
<polygon fill="black" stroke="black" points="4107.25,-167.5 4117.25,-164 4107.25,-160.5 4107.25,-167.5"/>
</g>
<!-- 92.0 -->
<g id="node29" class="node">
<title>92.0</title>
<g id="a_node29"><a xlink:title="Node: 92.0">
<polygon fill="orange" stroke="orange" points="4307.52,-254 4268.92,-236 4307.52,-218 4346.12,-236 4307.52,-254"/>
<text text-anchor="middle" x="4307.52" y="-230.95" font-family="Times New Roman,serif" font-size="14.00">92.0</text>
</a>
</g>
</g>
<!-- 91.0&#45;&gt;92.0 -->
<g id="edge16" class="edge">
<title>91.0&#45;&gt;92.0</title>
<path fill="none" stroke="black" d="M4177.96,-173.12C4203.18,-185.45 4248.39,-207.57 4277.92,-222.01"/>
<polygon fill="black" stroke="black" points="4276.15,-225.04 4286.67,-226.29 4279.22,-218.75 4276.15,-225.04"/>
</g>
<!-- 93.0 -->
<g id="node67" class="node">
<title>93.0</title>
<g id="a_node67"><a xlink:title="Node: 93.0">
<ellipse fill="none" stroke="black" cx="4307.52" cy="-164" rx="27.3" ry="18"/>
<text text-anchor="middle" x="4307.52" y="-158.95" font-family="Times New Roman,serif" font-size="14.00">93.0</text>
</a>
</g>
</g>
<!-- 91.0&#45;&gt;93.0 -->
<g id="edge71" class="edge">
<title>91.0&#45;&gt;93.0</title>
<path fill="none" stroke="black" d="M4197.99,-164C4219.84,-164 4247.04,-164 4268.74,-164"/>
<polygon fill="black" stroke="black" points="4268.65,-167.5 4278.65,-164 4268.65,-160.5 4268.65,-167.5"/>
</g>
<!-- 97.0 -->
<g id="node30" class="node">
<title>97.0</title>
<g id="a_node30"><a xlink:title="Node: 97.0">
<ellipse fill="none" stroke="black" cx="4445.42" cy="-236" rx="27.3" ry="18"/>
<text text-anchor="middle" x="4445.42" y="-230.95" font-family="Times New Roman,serif" font-size="14.00">97.0</text>
</a>
</g>
</g>
<!-- 92.0&#45;&gt;97.0 -->
<g id="edge18" class="edge">
<title>92.0&#45;&gt;97.0</title>
<path fill="none" stroke="black" d="M4347.1,-236C4365.73,-236 4388,-236 4406.53,-236"/>
<polygon fill="black" stroke="black" points="4406.3,-239.5 4416.3,-236 4406.3,-232.5 4406.3,-239.5"/>
</g>
<!-- 98.0 -->
<g id="node31" class="node">
<title>98.0</title>
<g id="a_node31"><a xlink:title="Node: 98.0">
<ellipse fill="none" stroke="black" cx="4572.01" cy="-236" rx="27.3" ry="18"/>
<text text-anchor="middle" x="4572.01" y="-230.95" font-family="Times New Roman,serif" font-size="14.00">98.0</text>
</a>
</g>
</g>
<!-- 97.0&#45;&gt;98.0 -->
<g id="edge36" class="edge">
<title>97.0&#45;&gt;98.0</title>
<path fill="none" stroke="black" d="M4473.15,-236C4490.56,-236 4513.54,-236 4532.85,-236"/>
<polygon fill="black" stroke="black" points="4532.81,-239.5 4542.81,-236 4532.81,-232.5 4532.81,-239.5"/>
</g>
<!-- 99.0 -->
<g id="node73" class="node">
<title>99.0</title>
<ellipse fill="none" stroke="black" cx="4709.91" cy="-236" rx="27.3" ry="18"/>
<text text-anchor="middle" x="4709.91" y="-230.95" font-family="Times New Roman,serif" font-size="14.00">99.0</text>
</g>
<!-- 98.0&#45;&gt;99.0 -->
<g id="edge52" class="edge">
<title>98.0&#45;&gt;99.0</title>
<path fill="none" stroke="black" d="M4599.54,-236C4619.93,-236 4648.37,-236 4671.14,-236"/>
<polygon fill="black" stroke="black" points="4670.94,-239.5 4680.94,-236 4670.94,-232.5 4670.94,-239.5"/>
</g>
<!-- 38.0 -->
<g id="node33" class="node">
<title>38.0</title>
<g id="a_node33"><a xlink:title="Node: 38.0">
<ellipse fill="none" stroke="black" cx="3215.63" cy="-19" rx="27.3" ry="18"/>
<text text-anchor="middle" x="3215.63" y="-13.95" font-family="Times New Roman,serif" font-size="14.00">38.0</text>
</a>
</g>
</g>
<!-- 37.0&#45;&gt;38.0 -->
<g id="edge41" class="edge">
<title>37.0&#45;&gt;38.0</title>
<path fill="none" stroke="black" d="M3105.26,-19C3125.65,-19 3154.09,-19 3176.86,-19"/>
<polygon fill="black" stroke="black" points="3176.66,-22.5 3186.66,-19 3176.66,-15.5 3176.66,-22.5"/>
</g>
<!-- 39.0 -->
<g id="node34" class="node">
<title>39.0</title>
<g id="a_node34"><a xlink:title="Node: 39.0">
<ellipse fill="none" stroke="black" cx="3342.22" cy="-19" rx="27.3" ry="18"/>
<text text-anchor="middle" x="3342.22" y="-13.95" font-family="Times New Roman,serif" font-size="14.00">39.0</text>
</a>
</g>
</g>
<!-- 38.0&#45;&gt;39.0 -->
<g id="edge60" class="edge">
<title>38.0&#45;&gt;39.0</title>
<path fill="none" stroke="black" d="M3243.36,-19C3260.77,-19 3283.75,-19 3303.07,-19"/>
<polygon fill="black" stroke="black" points="3303.03,-22.5 3313.03,-19 3303.03,-15.5 3303.03,-22.5"/>
</g>
<!-- 40.0 -->
<g id="node35" class="node">
<title>40.0</title>
<g id="a_node35"><a xlink:title="Node: 40.0">
<ellipse fill="none" stroke="black" cx="3468.82" cy="-19" rx="27.3" ry="18"/>
<text text-anchor="middle" x="3468.82" y="-13.95" font-family="Times New Roman,serif" font-size="14.00">40.0</text>
</a>
</g>
</g>
<!-- 39.0&#45;&gt;40.0 -->
<g id="edge61" class="edge">
<title>39.0&#45;&gt;40.0</title>
<path fill="none" stroke="black" d="M3369.95,-19C3387.36,-19 3410.34,-19 3429.66,-19"/>
<polygon fill="black" stroke="black" points="3429.62,-22.5 3439.62,-19 3429.62,-15.5 3429.62,-22.5"/>
</g>
<!-- 41.0 -->
<g id="node36" class="node">
<title>41.0</title>
<g id="a_node36"><a xlink:title="Node: 41.0">
<polygon fill="orange" stroke="orange" points="3606.72,-37 3568.11,-19 3606.72,-1 3645.32,-19 3606.72,-37"/>
<text text-anchor="middle" x="3606.72" y="-13.95" font-family="Times New Roman,serif" font-size="14.00">41.0</text>
</a>
</g>
</g>
<!-- 40.0&#45;&gt;41.0 -->
<g id="edge14" class="edge">
<title>40.0&#45;&gt;41.0</title>
<path fill="none" stroke="black" d="M3496.34,-19C3513.27,-19 3535.75,-19 3555.93,-19"/>
<polygon fill="black" stroke="black" points="3555.65,-22.5 3565.65,-19 3555.65,-15.5 3555.65,-22.5"/>
</g>
<!-- 51.0 -->
<g id="node37" class="node">
<title>51.0</title>
<g id="a_node37"><a xlink:title="Node: 51.0">
<ellipse fill="none" stroke="black" cx="3755.92" cy="-19" rx="27.3" ry="18"/>
<text text-anchor="middle" x="3755.92" y="-13.95" font-family="Times New Roman,serif" font-size="14.00">51.0</text>
</a>
</g>
</g>
<!-- 41.0&#45;&gt;51.0 -->
<g id="edge25" class="edge">
<title>41.0&#45;&gt;51.0</title>
<path fill="none" stroke="black" d="M3646.39,-19C3668.24,-19 3695.44,-19 3717.14,-19"/>
<polygon fill="black" stroke="black" points="3717.05,-22.5 3727.05,-19 3717.05,-15.5 3717.05,-22.5"/>
</g>
<!-- 52.0 -->
<g id="node38" class="node">
<title>52.0</title>
<g id="a_node38"><a xlink:title="Node: 52.0">
<ellipse fill="none" stroke="black" cx="3893.82" cy="-19" rx="27.3" ry="18"/>
<text text-anchor="middle" x="3893.82" y="-13.95" font-family="Times New Roman,serif" font-size="14.00">52.0</text>
</a>
</g>
</g>
<!-- 51.0&#45;&gt;52.0 -->
<g id="edge28" class="edge">
<title>51.0&#45;&gt;52.0</title>
<path fill="none" stroke="black" d="M3783.45,-19C3803.84,-19 3832.28,-19 3855.05,-19"/>
<polygon fill="black" stroke="black" points="3854.85,-22.5 3864.85,-19 3854.85,-15.5 3854.85,-22.5"/>
</g>
<!-- 53.0 -->
<g id="node39" class="node">
<title>53.0</title>
<g id="a_node39"><a xlink:title="Node: 53.0">
<ellipse fill="none" stroke="black" cx="4020.41" cy="-18" rx="27.3" ry="18"/>
<text text-anchor="middle" x="4020.41" y="-12.95" font-family="Times New Roman,serif" font-size="14.00">53.0</text>
</a>
</g>
</g>
<!-- 52.0&#45;&gt;53.0 -->
<g id="edge56" class="edge">
<title>52.0&#45;&gt;53.0</title>
<path fill="none" stroke="black" d="M3921.55,-18.79C3938.96,-18.65 3961.94,-18.46 3981.26,-18.31"/>
<polygon fill="black" stroke="black" points="3981.24,-21.81 3991.22,-18.23 3981.19,-14.81 3981.24,-21.81"/>
</g>
<!-- 54.0 -->
<g id="node40" class="node">
<title>54.0</title>
<g id="a_node40"><a xlink:title="Node: 54.0">
<ellipse fill="none" stroke="black" cx="4158.31" cy="-18" rx="27.3" ry="18"/>
<text text-anchor="middle" x="4158.31" y="-12.95" font-family="Times New Roman,serif" font-size="14.00">54.0</text>
</a>
</g>
</g>
<!-- 53.0&#45;&gt;54.0 -->
<g id="edge42" class="edge">
<title>53.0&#45;&gt;54.0</title>
<path fill="none" stroke="black" d="M4047.94,-18C4068.33,-18 4096.77,-18 4119.54,-18"/>
<polygon fill="black" stroke="black" points="4119.34,-21.5 4129.34,-18 4119.34,-14.5 4119.34,-21.5"/>
</g>
<!-- 55.0 -->
<g id="node41" class="node">
<title>55.0</title>
<g id="a_node41"><a xlink:title="Node: 55.0">
<ellipse fill="none" stroke="black" cx="4307.52" cy="-18" rx="27.3" ry="18"/>
<text text-anchor="middle" x="4307.52" y="-12.95" font-family="Times New Roman,serif" font-size="14.00">55.0</text>
</a>
</g>
</g>
<!-- 54.0&#45;&gt;55.0 -->
<g id="edge20" class="edge">
<title>54.0&#45;&gt;55.0</title>
<path fill="none" stroke="black" d="M4185.97,-18C4209.11,-18 4242.86,-18 4268.77,-18"/>
<polygon fill="black" stroke="black" points="4268.55,-21.5 4278.55,-18 4268.55,-14.5 4268.55,-21.5"/>
</g>
<!-- 56.0 -->
<g id="node42" class="node">
<title>56.0</title>
<g id="a_node42"><a xlink:title="Node: 56.0">
<ellipse fill="none" stroke="black" cx="4445.42" cy="-55" rx="27.3" ry="18"/>
<text text-anchor="middle" x="4445.42" y="-49.95" font-family="Times New Roman,serif" font-size="14.00">56.0</text>
</a>
</g>
</g>
<!-- 55.0&#45;&gt;56.0 -->
<g id="edge21" class="edge">
<title>55.0&#45;&gt;56.0</title>
<path fill="none" stroke="black" d="M4333.13,-24.7C4354.3,-30.46 4385.09,-38.85 4408.92,-45.34"/>
<polygon fill="black" stroke="black" points="4407.96,-48.7 4418.53,-47.95 4409.8,-41.95 4407.96,-48.7"/>
</g>
<!-- 57.0 -->
<g id="node43" class="node">
<title>57.0</title>
<g id="a_node43"><a xlink:title="Node: 57.0">
<ellipse fill="none" stroke="black" cx="4572.01" cy="-55" rx="27.3" ry="18"/>
<text text-anchor="middle" x="4572.01" y="-49.95" font-family="Times New Roman,serif" font-size="14.00">57.0</text>
</a>
</g>
</g>
<!-- 56.0&#45;&gt;57.0 -->
<g id="edge48" class="edge">
<title>56.0&#45;&gt;57.0</title>
<path fill="none" stroke="black" d="M4473.15,-55C4490.56,-55 4513.54,-55 4532.85,-55"/>
<polygon fill="black" stroke="black" points="4532.81,-58.5 4542.81,-55 4532.81,-51.5 4532.81,-58.5"/>
</g>
<!-- 58.0 -->
<g id="node44" class="node">
<title>58.0</title>
<g id="a_node44"><a xlink:title="Node: 58.0">
<polygon fill="yellow" stroke="yellow" points="4709.91,-73 4671.31,-55 4709.91,-37 4748.51,-55 4709.91,-73"/>
<text text-anchor="middle" x="4709.91" y="-49.95" font-family="Times New Roman,serif" font-size="14.00">58.0</text>
</a>
</g>
</g>
<!-- 57.0&#45;&gt;58.0 -->
<g id="edge62" class="edge">
<title>57.0&#45;&gt;58.0</title>
<path fill="none" stroke="black" d="M4599.54,-55C4616.47,-55 4638.95,-55 4659.13,-55"/>
<polygon fill="black" stroke="black" points="4658.85,-58.5 4668.85,-55 4658.85,-51.5 4658.85,-58.5"/>
</g>
<!-- 59.0 -->
<g id="node45" class="node">
<title>59.0</title>
<g id="a_node45"><a xlink:title="Node: 59.0">
<polygon fill="orange" stroke="orange" points="4859.12,-109 4820.51,-91 4859.12,-73 4897.72,-91 4859.12,-109"/>
<text text-anchor="middle" x="4859.12" y="-85.95" font-family="Times New Roman,serif" font-size="14.00">59.0</text>
</a>
</g>
</g>
<!-- 58.0&#45;&gt;59.0 -->
<g id="edge5" class="edge">
<title>58.0&#45;&gt;59.0</title>
<path fill="none" stroke="black" d="M4736.22,-61.19C4759.85,-66.97 4795.37,-75.65 4821.98,-82.16"/>
<polygon fill="black" stroke="black" points="4821.13,-85.56 4831.67,-84.53 4822.79,-78.76 4821.13,-85.56"/>
</g>
<!-- 60.0 -->
<g id="node54" class="node">
<title>60.0</title>
<g id="a_node54"><a xlink:title="Node: 60.0">
<ellipse fill="none" stroke="black" cx="4859.12" cy="-19" rx="27.3" ry="18"/>
<text text-anchor="middle" x="4859.12" y="-13.95" font-family="Times New Roman,serif" font-size="14.00">60.0</text>
</a>
</g>
</g>
<!-- 58.0&#45;&gt;60.0 -->
<g id="edge53" class="edge">
<title>58.0&#45;&gt;60.0</title>
<path fill="none" stroke="black" d="M4736.22,-48.81C4759.85,-43.03 4795.37,-34.35 4821.98,-27.84"/>
<polygon fill="black" stroke="black" points="4822.79,-31.24 4831.67,-25.47 4821.13,-24.44 4822.79,-31.24"/>
</g>
<!-- 71.0 -->
<g id="node46" class="node">
<title>71.0</title>
<g id="a_node46"><a xlink:title="Node: 71.0">
<ellipse fill="none" stroke="black" cx="4997.02" cy="-91" rx="27.3" ry="18"/>
<text text-anchor="middle" x="4997.02" y="-85.95" font-family="Times New Roman,serif" font-size="14.00">71.0</text>
</a>
</g>
</g>
<!-- 59.0&#45;&gt;71.0 -->
<g id="edge57" class="edge">
<title>59.0&#45;&gt;71.0</title>
<path fill="none" stroke="black" d="M4898.7,-91C4917.32,-91 4939.6,-91 4958.13,-91"/>
<polygon fill="black" stroke="black" points="4957.9,-94.5 4967.9,-91 4957.9,-87.5 4957.9,-94.5"/>
</g>
<!-- 72.0 -->
<g id="node47" class="node">
<title>72.0</title>
<g id="a_node47"><a xlink:title="Node: 72.0">
<ellipse fill="none" stroke="black" cx="5123.61" cy="-91" rx="27.3" ry="18"/>
<text text-anchor="middle" x="5123.61" y="-85.95" font-family="Times New Roman,serif" font-size="14.00">72.0</text>
</a>
</g>
</g>
<!-- 71.0&#45;&gt;72.0 -->
<g id="edge66" class="edge">
<title>71.0&#45;&gt;72.0</title>
<path fill="none" stroke="black" d="M5024.74,-91C5042.15,-91 5065.13,-91 5084.45,-91"/>
<polygon fill="black" stroke="black" points="5084.41,-94.5 5094.41,-91 5084.41,-87.5 5084.41,-94.5"/>
</g>
<!-- 73.0 -->
<g id="node48" class="node">
<title>73.0</title>
<g id="a_node48"><a xlink:title="Node: 73.0">
<ellipse fill="none" stroke="black" cx="5261.51" cy="-91" rx="27.3" ry="18"/>
<text text-anchor="middle" x="5261.51" y="-85.95" font-family="Times New Roman,serif" font-size="14.00">73.0</text>
</a>
</g>
</g>
<!-- 72.0&#45;&gt;73.0 -->
<g id="edge3" class="edge">
<title>72.0&#45;&gt;73.0</title>
<path fill="none" stroke="black" d="M5151.13,-91C5171.53,-91 5199.97,-91 5222.73,-91"/>
<polygon fill="black" stroke="black" points="5222.54,-94.5 5232.54,-91 5222.54,-87.5 5222.54,-94.5"/>
</g>
<!-- 74.0 -->
<g id="node49" class="node">
<title>74.0</title>
<g id="a_node49"><a xlink:title="Node: 74.0">
<polygon fill="orange" stroke="orange" points="5410.71,-109 5372.11,-91 5410.71,-73 5449.32,-91 5410.71,-109"/>
<text text-anchor="middle" x="5410.71" y="-85.95" font-family="Times New Roman,serif" font-size="14.00">74.0</text>
</a>
</g>
</g>
<!-- 73.0&#45;&gt;74.0 -->
<g id="edge24" class="edge">
<title>73.0&#45;&gt;74.0</title>
<path fill="none" stroke="black" d="M5289.17,-91C5308.82,-91 5336.13,-91 5359.79,-91"/>
<polygon fill="black" stroke="black" points="5359.55,-94.5 5369.55,-91 5359.55,-87.5 5359.55,-94.5"/>
</g>
<!-- 79.0 -->
<g id="node50" class="node">
<title>79.0</title>
<g id="a_node50"><a xlink:title="Node: 79.0">
<ellipse fill="none" stroke="black" cx="5548.61" cy="-91" rx="27.3" ry="18"/>
<text text-anchor="middle" x="5548.61" y="-85.95" font-family="Times New Roman,serif" font-size="14.00">79.0</text>
</a>
</g>
</g>
<!-- 74.0&#45;&gt;79.0 -->
<g id="edge15" class="edge">
<title>74.0&#45;&gt;79.0</title>
<path fill="none" stroke="black" d="M5450.29,-91C5468.92,-91 5491.2,-91 5509.73,-91"/>
<polygon fill="black" stroke="black" points="5509.49,-94.5 5519.49,-91 5509.49,-87.5 5509.49,-94.5"/>
</g>
<!-- 80.0 -->
<g id="node72" class="node">
<title>80.0</title>
<ellipse fill="none" stroke="black" cx="5675.21" cy="-91" rx="27.3" ry="18"/>
<text text-anchor="middle" x="5675.21" y="-85.95" font-family="Times New Roman,serif" font-size="14.00">80.0</text>
</g>
<!-- 79.0&#45;&gt;80.0 -->
<g id="edge47" class="edge">
<title>79.0&#45;&gt;80.0</title>
<path fill="none" stroke="black" d="M5576.34,-91C5593.75,-91 5616.73,-91 5636.05,-91"/>
<polygon fill="black" stroke="black" points="5636.01,-94.5 5646.01,-91 5636.01,-87.5 5636.01,-94.5"/>
</g>
<!-- 87.0 -->
<g id="node52" class="node">
<title>87.0</title>
<g id="a_node52"><a xlink:title="Node: 87.0">
<ellipse fill="none" stroke="black" cx="3893.82" cy="-91" rx="27.3" ry="18"/>
<text text-anchor="middle" x="3893.82" y="-85.95" font-family="Times New Roman,serif" font-size="14.00">87.0</text>
</a>
</g>
</g>
<!-- 86.0&#45;&gt;87.0 -->
<g id="edge11" class="edge">
<title>86.0&#45;&gt;87.0</title>
<path fill="none" stroke="black" d="M3783.45,-91C3803.84,-91 3832.28,-91 3855.05,-91"/>
<polygon fill="black" stroke="black" points="3854.85,-94.5 3864.85,-91 3854.85,-87.5 3854.85,-94.5"/>
</g>
<!-- 88.0 -->
<g id="node53" class="node">
<title>88.0</title>
<g id="a_node53"><a xlink:title="Node: 88.0">
<polygon fill="orange" stroke="orange" points="4158.31,-109 4119.71,-91 4158.31,-73 4196.92,-91 4158.31,-109"/>
<text text-anchor="middle" x="4158.31" y="-85.95" font-family="Times New Roman,serif" font-size="14.00">88.0</text>
</a>
</g>
</g>
<!-- 87.0&#45;&gt;88.0 -->
<g id="edge35" class="edge">
<title>87.0&#45;&gt;88.0</title>
<path fill="none" stroke="black" d="M3921.43,-91C3965,-91 4052.2,-91 4107.5,-91"/>
<polygon fill="black" stroke="black" points="4107.28,-94.5 4117.28,-91 4107.28,-87.5 4107.28,-94.5"/>
</g>
<!-- 88.0&#45;&gt;56.0 -->
<g id="edge32" class="edge">
<title>88.0&#45;&gt;56.0</title>
<path fill="none" stroke="black" d="M4189.82,-87.15C4242.4,-80.51 4349.89,-66.94 4406.93,-59.73"/>
<polygon fill="black" stroke="black" points="4407.31,-63.21 4416.8,-58.49 4406.44,-56.27 4407.31,-63.21"/>
</g>
<!-- 61.0 -->
<g id="node55" class="node">
<title>61.0</title>
<g id="a_node55"><a xlink:title="Node: 61.0">
<ellipse fill="none" stroke="black" cx="4997.02" cy="-19" rx="27.3" ry="18"/>
<text text-anchor="middle" x="4997.02" y="-13.95" font-family="Times New Roman,serif" font-size="14.00">61.0</text>
</a>
</g>
</g>
<!-- 60.0&#45;&gt;61.0 -->
<g id="edge29" class="edge">
<title>60.0&#45;&gt;61.0</title>
<path fill="none" stroke="black" d="M4886.64,-19C4907.03,-19 4935.47,-19 4958.24,-19"/>
<polygon fill="black" stroke="black" points="4958.04,-22.5 4968.04,-19 4958.04,-15.5 4958.04,-22.5"/>
</g>
<!-- 62.0 -->
<g id="node56" class="node">
<title>62.0</title>
<g id="a_node56"><a xlink:title="Node: 62.0">
<ellipse fill="none" stroke="black" cx="5123.61" cy="-19" rx="27.3" ry="18"/>
<text text-anchor="middle" x="5123.61" y="-13.95" font-family="Times New Roman,serif" font-size="14.00">62.0</text>
</a>
</g>
</g>
<!-- 61.0&#45;&gt;62.0 -->
<g id="edge58" class="edge">
<title>61.0&#45;&gt;62.0</title>
<path fill="none" stroke="black" d="M5024.74,-19C5042.15,-19 5065.13,-19 5084.45,-19"/>
<polygon fill="black" stroke="black" points="5084.41,-22.5 5094.41,-19 5084.41,-15.5 5084.41,-22.5"/>
</g>
<!-- 63.0 -->
<g id="node57" class="node">
<title>63.0</title>
<g id="a_node57"><a xlink:title="Node: 63.0">
<polygon fill="orange" stroke="orange" points="5261.51,-37 5222.91,-19 5261.51,-1 5300.11,-19 5261.51,-37"/>
<text text-anchor="middle" x="5261.51" y="-13.95" font-family="Times New Roman,serif" font-size="14.00">63.0</text>
</a>
</g>
</g>
<!-- 62.0&#45;&gt;63.0 -->
<g id="edge55" class="edge">
<title>62.0&#45;&gt;63.0</title>
<path fill="none" stroke="black" d="M5151.13,-19C5168.07,-19 5190.55,-19 5210.72,-19"/>
<polygon fill="black" stroke="black" points="5210.45,-22.5 5220.45,-19 5210.45,-15.5 5210.45,-22.5"/>
</g>
<!-- 67.0 -->
<g id="node58" class="node">
<title>67.0</title>
<g id="a_node58"><a xlink:title="Node: 67.0">
<ellipse fill="none" stroke="black" cx="5410.71" cy="-19" rx="27.3" ry="18"/>
<text text-anchor="middle" x="5410.71" y="-13.95" font-family="Times New Roman,serif" font-size="14.00">67.0</text>
</a>
</g>
</g>
<!-- 63.0&#45;&gt;67.0 -->
<g id="edge22" class="edge">
<title>63.0&#45;&gt;67.0</title>
<path fill="none" stroke="black" d="M5301.18,-19C5323.03,-19 5350.23,-19 5371.93,-19"/>
<polygon fill="black" stroke="black" points="5371.84,-22.5 5381.84,-19 5371.84,-15.5 5371.84,-22.5"/>
</g>
<!-- 68.0 -->
<g id="node59" class="node">
<title>68.0</title>
<g id="a_node59"><a xlink:title="Node: 68.0">
<ellipse fill="none" stroke="black" cx="5548.61" cy="-19" rx="27.3" ry="18"/>
<text text-anchor="middle" x="5548.61" y="-13.95" font-family="Times New Roman,serif" font-size="14.00">68.0</text>
</a>
</g>
</g>
<!-- 67.0&#45;&gt;68.0 -->
<g id="edge6" class="edge">
<title>67.0&#45;&gt;68.0</title>
<path fill="none" stroke="black" d="M5438.24,-19C5458.63,-19 5487.07,-19 5509.84,-19"/>
<polygon fill="black" stroke="black" points="5509.64,-22.5 5519.64,-19 5509.64,-15.5 5509.64,-22.5"/>
</g>
<!-- 69.0 -->
<g id="node60" class="node">
<title>69.0</title>
<g id="a_node60"><a xlink:title="Node: 69.0">
<ellipse fill="none" stroke="black" cx="5675.21" cy="-19" rx="27.3" ry="18"/>
<text text-anchor="middle" x="5675.21" y="-13.95" font-family="Times New Roman,serif" font-size="14.00">69.0</text>
</a>
</g>
</g>
<!-- 68.0&#45;&gt;69.0 -->
<g id="edge19" class="edge">
<title>68.0&#45;&gt;69.0</title>
<path fill="none" stroke="black" d="M5576.34,-19C5593.75,-19 5616.73,-19 5636.05,-19"/>
<polygon fill="black" stroke="black" points="5636.01,-22.5 5646.01,-19 5636.01,-15.5 5636.01,-22.5"/>
</g>
<!-- 70.0 -->
<g id="node71" class="node">
<title>70.0</title>
<ellipse fill="none" stroke="black" cx="5801.8" cy="-19" rx="27.3" ry="18"/>
<text text-anchor="middle" x="5801.8" y="-13.95" font-family="Times New Roman,serif" font-size="14.00">70.0</text>
</g>
<!-- 69.0&#45;&gt;70.0 -->
<g id="edge31" class="edge">
<title>69.0&#45;&gt;70.0</title>
<path fill="none" stroke="black" d="M5702.93,-19C5720.34,-19 5743.33,-19 5762.64,-19"/>
<polygon fill="black" stroke="black" points="5762.6,-22.5 5772.6,-19 5762.6,-15.5 5762.6,-22.5"/>
</g>
<!-- 11.0 -->
<g id="node62" class="node">
<title>11.0</title>
<g id="a_node62"><a xlink:title="Node: 11.0">
<ellipse fill="none" stroke="black" cx="1302.86" cy="-19" rx="27.3" ry="18"/>
<text text-anchor="middle" x="1302.86" y="-13.95" font-family="Times New Roman,serif" font-size="14.00">11.0</text>
</a>
</g>
</g>
<!-- 10.0&#45;&gt;11.0 -->
<g id="edge40" class="edge">
<title>10.0&#45;&gt;11.0</title>
<path fill="none" stroke="black" d="M1198.97,-19C1217.72,-19 1243.14,-19 1264.03,-19"/>
<polygon fill="black" stroke="black" points="1263.89,-22.5 1273.89,-19 1263.89,-15.5 1263.89,-22.5"/>
</g>
<!-- 12.0 -->
<g id="node63" class="node">
<title>12.0</title>
<g id="a_node63"><a xlink:title="Node: 12.0">
<polygon fill="orange" stroke="orange" points="1445.55,-37 1406.95,-19 1445.55,-1 1484.15,-19 1445.55,-37"/>
<text text-anchor="middle" x="1445.55" y="-13.95" font-family="Times New Roman,serif" font-size="14.00">12.0</text>
</a>
</g>
</g>
<!-- 11.0&#45;&gt;12.0 -->
<g id="edge70" class="edge">
<title>11.0&#45;&gt;12.0</title>
<path fill="none" stroke="black" d="M1330.65,-19C1348.7,-19 1373.04,-19 1394.6,-19"/>
<polygon fill="black" stroke="black" points="1394.38,-22.5 1404.38,-19 1394.38,-15.5 1394.38,-22.5"/>
</g>
<!-- 12.0&#45;&gt;21.0 -->
<g id="edge33" class="edge">
<title>12.0&#45;&gt;21.0</title>
<path fill="none" stroke="black" d="M1471.16,-25.52C1492.2,-31.09 1522.74,-39.18 1546.51,-45.48"/>
<polygon fill="black" stroke="black" points="1545.54,-48.84 1556.1,-48.02 1547.33,-42.08 1545.54,-48.84"/>
</g>
<!-- 28.0 -->
<g id="node65" class="node">
<title>28.0</title>
<g id="a_node65"><a xlink:title="Node: 28.0">
<ellipse fill="none" stroke="black" cx="2376.93" cy="-19" rx="27.3" ry="18"/>
<text text-anchor="middle" x="2376.93" y="-13.95" font-family="Times New Roman,serif" font-size="14.00">28.0</text>
</a>
</g>
</g>
<!-- 27.0&#45;&gt;28.0 -->
<g id="edge17" class="edge">
<title>27.0&#45;&gt;28.0</title>
<path fill="none" stroke="black" d="M2266.55,-19C2286.94,-19 2315.38,-19 2338.15,-19"/>
<polygon fill="black" stroke="black" points="2337.96,-22.5 2347.96,-19 2337.95,-15.5 2337.96,-22.5"/>
</g>
<!-- 29.0 -->
<g id="node66" class="node">
<title>29.0</title>
<g id="a_node66"><a xlink:title="Node: 29.0">
<polygon fill="orange" stroke="orange" points="2526.13,-37 2487.53,-19 2526.13,-1 2564.74,-19 2526.13,-37"/>
<text text-anchor="middle" x="2526.13" y="-13.95" font-family="Times New Roman,serif" font-size="14.00">29.0</text>
</a>
</g>
</g>
<!-- 28.0&#45;&gt;29.0 -->
<g id="edge43" class="edge">
<title>28.0&#45;&gt;29.0</title>
<path fill="none" stroke="black" d="M2404.58,-19C2424.24,-19 2451.55,-19 2475.21,-19"/>
<polygon fill="black" stroke="black" points="2474.97,-22.5 2484.97,-19 2474.97,-15.5 2474.97,-22.5"/>
</g>
<!-- 29.0&#45;&gt;33.0 -->
<g id="edge59" class="edge">
<title>29.0&#45;&gt;33.0</title>
<path fill="none" stroke="black" d="M2551.74,-25.52C2572.78,-31.09 2603.32,-39.18 2627.09,-45.48"/>
<polygon fill="black" stroke="black" points="2626.12,-48.84 2636.68,-48.02 2627.91,-42.08 2626.12,-48.84"/>
</g>
<!-- 94.0 -->
<g id="node68" class="node">
<title>94.0</title>
<g id="a_node68"><a xlink:title="Node: 94.0">
<ellipse fill="none" stroke="black" cx="4445.42" cy="-164" rx="27.3" ry="18"/>
<text text-anchor="middle" x="4445.42" y="-158.95" font-family="Times New Roman,serif" font-size="14.00">94.0</text>
</a>
</g>
</g>
<!-- 93.0&#45;&gt;94.0 -->
<g id="edge44" class="edge">
<title>93.0&#45;&gt;94.0</title>
<path fill="none" stroke="black" d="M4335.04,-164C4355.44,-164 4383.88,-164 4406.64,-164"/>
<polygon fill="black" stroke="black" points="4406.45,-167.5 4416.45,-164 4406.45,-160.5 4406.45,-167.5"/>
</g>
<!-- 95.0 -->
<g id="node69" class="node">
<title>95.0</title>
<g id="a_node69"><a xlink:title="Node: 95.0">
<ellipse fill="none" stroke="black" cx="4572.01" cy="-164" rx="27.3" ry="18"/>
<text text-anchor="middle" x="4572.01" y="-158.95" font-family="Times New Roman,serif" font-size="14.00">95.0</text>
</a>
</g>
</g>
<!-- 94.0&#45;&gt;95.0 -->
<g id="edge74" class="edge">
<title>94.0&#45;&gt;95.0</title>
<path fill="none" stroke="black" d="M4473.15,-164C4490.56,-164 4513.54,-164 4532.85,-164"/>
<polygon fill="black" stroke="black" points="4532.81,-167.5 4542.81,-164 4532.81,-160.5 4532.81,-167.5"/>
</g>
<!-- 96.0 -->
<g id="node70" class="node">
<title>96.0</title>
<ellipse fill="none" stroke="black" cx="4709.91" cy="-164" rx="27.3" ry="18"/>
<text text-anchor="middle" x="4709.91" y="-158.95" font-family="Times New Roman,serif" font-size="14.00">96.0</text>
</g>
<!-- 95.0&#45;&gt;96.0 -->
<g id="edge12" class="edge">
<title>95.0&#45;&gt;96.0</title>
<path fill="none" stroke="black" d="M4599.54,-164C4619.93,-164 4648.37,-164 4671.14,-164"/>
<polygon fill="black" stroke="black" points="4670.94,-167.5 4680.94,-164 4670.94,-160.5 4670.94,-167.5"/>
</g>
</g>
</svg>
