<?xml version="1.0" encoding="UTF-8" standalone="no"?>
<!DOCTYPE svg PUBLIC "-//W3C//DTD SVG 1.1//EN"
 "http://www.w3.org/Graphics/SVG/1.1/DTD/svg11.dtd">
<!-- Generated by graphviz version 12.2.1 (20241206.2353)
 -->
<!-- Pages: 1 -->
<svg width="5667pt" height="323pt"
 viewBox="0.00 0.00 5667.15 323.00" xmlns="http://www.w3.org/2000/svg" xmlns:xlink="http://www.w3.org/1999/xlink">
<g id="graph0" class="graph" transform="scale(1 1) rotate(0) translate(4 319)">
<polygon fill="white" stroke="none" points="-4,4 -4,-319 5663.15,-319 5663.15,4 -4,4"/>
<!-- 0.0 -->
<g id="node1" class="node">
<title>0.0</title>
<g id="a_node1"><a xlink:title="Node: 0.0">
<ellipse fill="none" stroke="black" cx="27" cy="-126" rx="27" ry="18"/>
<text text-anchor="middle" x="27" y="-120.95" font-family="Times New Roman,serif" font-size="14.00">0.0</text>
</a>
</g>
</g>
<!-- 1.0 -->
<g id="node2" class="node">
<title>1.0</title>
<g id="a_node2"><a xlink:title="Node: 1.0">
<ellipse fill="none" stroke="black" cx="153" cy="-126" rx="27" ry="18"/>
<text text-anchor="middle" x="153" y="-120.95" font-family="Times New Roman,serif" font-size="14.00">1.0</text>
</a>
</g>
</g>
<!-- 0.0&#45;&gt;1.0 -->
<g id="edge31" class="edge">
<title>0.0&#45;&gt;1.0</title>
<path fill="none" stroke="black" d="M54.3,-126C71.72,-126 94.86,-126 114.24,-126"/>
<polygon fill="black" stroke="black" points="114.23,-129.5 124.23,-126 114.23,-122.5 114.23,-129.5"/>
</g>
<!-- 2.0 -->
<g id="node3" class="node">
<title>2.0</title>
<g id="a_node3"><a xlink:title="Node: 2.0">
<ellipse fill="none" stroke="black" cx="279" cy="-126" rx="27" ry="18"/>
<text text-anchor="middle" x="279" y="-120.95" font-family="Times New Roman,serif" font-size="14.00">2.0</text>
</a>
</g>
</g>
<!-- 1.0&#45;&gt;2.0 -->
<g id="edge32" class="edge">
<title>1.0&#45;&gt;2.0</title>
<path fill="none" stroke="black" d="M180.3,-126C197.72,-126 220.86,-126 240.24,-126"/>
<polygon fill="black" stroke="black" points="240.23,-129.5 250.23,-126 240.23,-122.5 240.23,-129.5"/>
</g>
<!-- 3.0 -->
<g id="node4" class="node">
<title>3.0</title>
<g id="a_node4"><a xlink:title="Node: 3.0">
<ellipse fill="none" stroke="black" cx="405" cy="-126" rx="27" ry="18"/>
<text text-anchor="middle" x="405" y="-120.95" font-family="Times New Roman,serif" font-size="14.00">3.0</text>
</a>
</g>
</g>
<!-- 2.0&#45;&gt;3.0 -->
<g id="edge64" class="edge">
<title>2.0&#45;&gt;3.0</title>
<path fill="none" stroke="black" d="M306.3,-126C323.72,-126 346.86,-126 366.24,-126"/>
<polygon fill="black" stroke="black" points="366.23,-129.5 376.23,-126 366.23,-122.5 366.23,-129.5"/>
</g>
<!-- 4.0 -->
<g id="node5" class="node">
<title>4.0</title>
<g id="a_node5"><a xlink:title="Node: 4.0">
<polygon fill="orange" stroke="orange" points="536.09,-144 504,-126 536.09,-108 568.18,-126 536.09,-144"/>
<text text-anchor="middle" x="536.09" y="-120.95" font-family="Times New Roman,serif" font-size="14.00">4.0</text>
</a>
</g>
</g>
<!-- 3.0&#45;&gt;4.0 -->
<g id="edge2" class="edge">
<title>3.0&#45;&gt;4.0</title>
<path fill="none" stroke="black" d="M432.43,-126C449.5,-126 472.09,-126 491.74,-126"/>
<polygon fill="black" stroke="black" points="491.7,-129.5 501.7,-126 491.7,-122.5 491.7,-129.5"/>
</g>
<!-- 12.0 -->
<g id="node6" class="node">
<title>12.0</title>
<g id="a_node6"><a xlink:title="Node: 12.0">
<ellipse fill="none" stroke="black" cx="667.47" cy="-126" rx="27.3" ry="18"/>
<text text-anchor="middle" x="667.47" y="-120.95" font-family="Times New Roman,serif" font-size="14.00">12.0</text>
</a>
</g>
</g>
<!-- 4.0&#45;&gt;12.0 -->
<g id="edge7" class="edge">
<title>4.0&#45;&gt;12.0</title>
<path fill="none" stroke="black" d="M569.07,-126C587.08,-126 609.68,-126 628.58,-126"/>
<polygon fill="black" stroke="black" points="628.57,-129.5 638.57,-126 628.57,-122.5 628.57,-129.5"/>
</g>
<!-- 13.0 -->
<g id="node7" class="node">
<title>13.0</title>
<g id="a_node7"><a xlink:title="Node: 13.0">
<ellipse fill="none" stroke="black" cx="794.07" cy="-126" rx="27.3" ry="18"/>
<text text-anchor="middle" x="794.07" y="-120.95" font-family="Times New Roman,serif" font-size="14.00">13.0</text>
</a>
</g>
</g>
<!-- 12.0&#45;&gt;13.0 -->
<g id="edge8" class="edge">
<title>12.0&#45;&gt;13.0</title>
<path fill="none" stroke="black" d="M695.2,-126C712.61,-126 735.59,-126 754.91,-126"/>
<polygon fill="black" stroke="black" points="754.87,-129.5 764.87,-126 754.87,-122.5 754.87,-129.5"/>
</g>
<!-- 14.0 -->
<g id="node8" class="node">
<title>14.0</title>
<g id="a_node8"><a xlink:title="Node: 14.0">
<ellipse fill="none" stroke="black" cx="920.66" cy="-126" rx="27.3" ry="18"/>
<text text-anchor="middle" x="920.66" y="-120.95" font-family="Times New Roman,serif" font-size="14.00">14.0</text>
</a>
</g>
</g>
<!-- 13.0&#45;&gt;14.0 -->
<g id="edge16" class="edge">
<title>13.0&#45;&gt;14.0</title>
<path fill="none" stroke="black" d="M821.8,-126C839.2,-126 862.19,-126 881.5,-126"/>
<polygon fill="black" stroke="black" points="881.46,-129.5 891.46,-126 881.46,-122.5 881.46,-129.5"/>
</g>
<!-- 15.0 -->
<g id="node9" class="node">
<title>15.0</title>
<g id="a_node9"><a xlink:title="Node: 15.0">
<ellipse fill="none" stroke="black" cx="1047.25" cy="-126" rx="27.3" ry="18"/>
<text text-anchor="middle" x="1047.25" y="-120.95" font-family="Times New Roman,serif" font-size="14.00">15.0</text>
</a>
</g>
</g>
<!-- 14.0&#45;&gt;15.0 -->
<g id="edge28" class="edge">
<title>14.0&#45;&gt;15.0</title>
<path fill="none" stroke="black" d="M948.39,-126C965.8,-126 988.78,-126 1008.1,-126"/>
<polygon fill="black" stroke="black" points="1008.05,-129.5 1018.05,-126 1008.05,-122.5 1008.05,-129.5"/>
</g>
<!-- 16.0 -->
<g id="node10" class="node">
<title>16.0</title>
<g id="a_node10"><a xlink:title="Node: 16.0">
<polygon fill="yellow" stroke="yellow" points="1185.15,-144 1146.55,-126 1185.15,-108 1223.75,-126 1185.15,-144"/>
<text text-anchor="middle" x="1185.15" y="-120.95" font-family="Times New Roman,serif" font-size="14.00">16.0</text>
</a>
</g>
</g>
<!-- 15.0&#45;&gt;16.0 -->
<g id="edge38" class="edge">
<title>15.0&#45;&gt;16.0</title>
<path fill="none" stroke="black" d="M1074.78,-126C1091.71,-126 1114.19,-126 1134.37,-126"/>
<polygon fill="black" stroke="black" points="1134.09,-129.5 1144.09,-126 1134.09,-122.5 1134.09,-129.5"/>
</g>
<!-- 17.0 -->
<g id="node11" class="node">
<title>17.0</title>
<g id="a_node11"><a xlink:title="Node: 17.0">
<polygon fill="orange" stroke="orange" points="1460.95,-181 1422.35,-163 1460.95,-145 1499.55,-163 1460.95,-181"/>
<text text-anchor="middle" x="1460.95" y="-157.95" font-family="Times New Roman,serif" font-size="14.00">17.0</text>
</a>
</g>
</g>
<!-- 16.0&#45;&gt;17.0 -->
<g id="edge6" class="edge">
<title>16.0&#45;&gt;17.0</title>
<path fill="none" stroke="black" d="M1215.97,-130.03C1265.14,-136.67 1363.31,-149.94 1418.97,-157.46"/>
<polygon fill="black" stroke="black" points="1418.29,-160.9 1428.67,-158.77 1419.22,-153.96 1418.29,-160.9"/>
</g>
<!-- 18.0 -->
<g id="node43" class="node">
<title>18.0</title>
<g id="a_node43"><a xlink:title="Node: 18.0">
<ellipse fill="none" stroke="black" cx="1323.05" cy="-90" rx="27.3" ry="18"/>
<text text-anchor="middle" x="1323.05" y="-84.95" font-family="Times New Roman,serif" font-size="14.00">18.0</text>
</a>
</g>
</g>
<!-- 16.0&#45;&gt;18.0 -->
<g id="edge44" class="edge">
<title>16.0&#45;&gt;18.0</title>
<path fill="none" stroke="black" d="M1210.76,-119.48C1231.8,-113.91 1262.34,-105.82 1286.11,-99.52"/>
<polygon fill="black" stroke="black" points="1286.93,-102.92 1295.7,-96.98 1285.14,-96.16 1286.93,-102.92"/>
</g>
<!-- 24.0 -->
<g id="node12" class="node">
<title>24.0</title>
<g id="a_node12"><a xlink:title="Node: 24.0">
<ellipse fill="none" stroke="black" cx="2001.24" cy="-126" rx="27.3" ry="18"/>
<text text-anchor="middle" x="2001.24" y="-120.95" font-family="Times New Roman,serif" font-size="14.00">24.0</text>
</a>
</g>
</g>
<!-- 17.0&#45;&gt;24.0 -->
<g id="edge13" class="edge">
<title>17.0&#45;&gt;24.0</title>
<path fill="none" stroke="black" d="M1495.62,-160.69C1590.95,-154.13 1862.25,-135.49 1962.45,-128.6"/>
<polygon fill="black" stroke="black" points="1962.55,-132.1 1972.29,-127.92 1962.07,-125.12 1962.55,-132.1"/>
</g>
<!-- 25.0 -->
<g id="node13" class="node">
<title>25.0</title>
<g id="a_node13"><a xlink:title="Node: 25.0">
<polygon fill="yellow" stroke="yellow" points="2139.14,-144 2100.54,-126 2139.14,-108 2177.74,-126 2139.14,-144"/>
<text text-anchor="middle" x="2139.14" y="-120.95" font-family="Times New Roman,serif" font-size="14.00">25.0</text>
</a>
</g>
</g>
<!-- 24.0&#45;&gt;25.0 -->
<g id="edge39" class="edge">
<title>24.0&#45;&gt;25.0</title>
<path fill="none" stroke="black" d="M2028.77,-126C2045.7,-126 2068.18,-126 2088.36,-126"/>
<polygon fill="black" stroke="black" points="2088.08,-129.5 2098.08,-126 2088.08,-122.5 2088.08,-129.5"/>
</g>
<!-- 26.0 -->
<g id="node14" class="node">
<title>26.0</title>
<g id="a_node14"><a xlink:title="Node: 26.0">
<polygon fill="orange" stroke="orange" points="2414.94,-181 2376.34,-163 2414.94,-145 2453.54,-163 2414.94,-181"/>
<text text-anchor="middle" x="2414.94" y="-157.95" font-family="Times New Roman,serif" font-size="14.00">26.0</text>
</a>
</g>
</g>
<!-- 25.0&#45;&gt;26.0 -->
<g id="edge66" class="edge">
<title>25.0&#45;&gt;26.0</title>
<path fill="none" stroke="black" d="M2169.96,-130.03C2219.13,-136.67 2317.3,-149.94 2372.96,-157.46"/>
<polygon fill="black" stroke="black" points="2372.28,-160.9 2382.65,-158.77 2373.21,-153.96 2372.28,-160.9"/>
</g>
<!-- 27.0 -->
<g id="node54" class="node">
<title>27.0</title>
<g id="a_node54"><a xlink:title="Node: 27.0">
<ellipse fill="none" stroke="black" cx="2277.04" cy="-90" rx="27.3" ry="18"/>
<text text-anchor="middle" x="2277.04" y="-84.95" font-family="Times New Roman,serif" font-size="14.00">27.0</text>
</a>
</g>
</g>
<!-- 25.0&#45;&gt;27.0 -->
<g id="edge47" class="edge">
<title>25.0&#45;&gt;27.0</title>
<path fill="none" stroke="black" d="M2164.75,-119.48C2185.79,-113.91 2216.33,-105.82 2240.1,-99.52"/>
<polygon fill="black" stroke="black" points="2240.92,-102.92 2249.69,-96.98 2239.13,-96.16 2240.92,-102.92"/>
</g>
<!-- 36.0 -->
<g id="node15" class="node">
<title>36.0</title>
<g id="a_node15"><a xlink:title="Node: 36.0">
<ellipse fill="none" stroke="black" cx="2702.05" cy="-126" rx="27.3" ry="18"/>
<text text-anchor="middle" x="2702.05" y="-120.95" font-family="Times New Roman,serif" font-size="14.00">36.0</text>
</a>
</g>
</g>
<!-- 26.0&#45;&gt;36.0 -->
<g id="edge9" class="edge">
<title>26.0&#45;&gt;36.0</title>
<path fill="none" stroke="black" d="M2446.18,-159.08C2498.63,-152.27 2606.31,-138.29 2663.47,-130.88"/>
<polygon fill="black" stroke="black" points="2663.9,-134.35 2673.36,-129.59 2663,-127.41 2663.9,-134.35"/>
</g>
<!-- 37.0 -->
<g id="node16" class="node">
<title>37.0</title>
<g id="a_node16"><a xlink:title="Node: 37.0">
<ellipse fill="none" stroke="black" cx="2828.64" cy="-126" rx="27.3" ry="18"/>
<text text-anchor="middle" x="2828.64" y="-120.95" font-family="Times New Roman,serif" font-size="14.00">37.0</text>
</a>
</g>
</g>
<!-- 36.0&#45;&gt;37.0 -->
<g id="edge14" class="edge">
<title>36.0&#45;&gt;37.0</title>
<path fill="none" stroke="black" d="M2729.77,-126C2747.18,-126 2770.16,-126 2789.48,-126"/>
<polygon fill="black" stroke="black" points="2789.44,-129.5 2799.44,-126 2789.44,-122.5 2789.44,-129.5"/>
</g>
<!-- 38.0 -->
<g id="node17" class="node">
<title>38.0</title>
<g id="a_node17"><a xlink:title="Node: 38.0">
<ellipse fill="none" stroke="black" cx="2955.23" cy="-126" rx="27.3" ry="18"/>
<text text-anchor="middle" x="2955.23" y="-120.95" font-family="Times New Roman,serif" font-size="14.00">38.0</text>
</a>
</g>
</g>
<!-- 37.0&#45;&gt;38.0 -->
<g id="edge34" class="edge">
<title>37.0&#45;&gt;38.0</title>
<path fill="none" stroke="black" d="M2856.37,-126C2873.78,-126 2896.76,-126 2916.08,-126"/>
<polygon fill="black" stroke="black" points="2916.03,-129.5 2926.03,-126 2916.03,-122.5 2916.03,-129.5"/>
</g>
<!-- 39.0 -->
<g id="node18" class="node">
<title>39.0</title>
<g id="a_node18"><a xlink:title="Node: 39.0">
<ellipse fill="none" stroke="black" cx="3081.82" cy="-126" rx="27.3" ry="18"/>
<text text-anchor="middle" x="3081.82" y="-120.95" font-family="Times New Roman,serif" font-size="14.00">39.0</text>
</a>
</g>
</g>
<!-- 38.0&#45;&gt;39.0 -->
<g id="edge56" class="edge">
<title>38.0&#45;&gt;39.0</title>
<path fill="none" stroke="black" d="M2982.96,-126C3000.37,-126 3023.35,-126 3042.67,-126"/>
<polygon fill="black" stroke="black" points="3042.63,-129.5 3052.63,-126 3042.63,-122.5 3042.63,-129.5"/>
</g>
<!-- 40.0 -->
<g id="node19" class="node">
<title>40.0</title>
<g id="a_node19"><a xlink:title="Node: 40.0">
<ellipse fill="none" stroke="black" cx="3208.42" cy="-126" rx="27.3" ry="18"/>
<text text-anchor="middle" x="3208.42" y="-120.95" font-family="Times New Roman,serif" font-size="14.00">40.0</text>
</a>
</g>
</g>
<!-- 39.0&#45;&gt;40.0 -->
<g id="edge59" class="edge">
<title>39.0&#45;&gt;40.0</title>
<path fill="none" stroke="black" d="M3109.55,-126C3126.96,-126 3149.94,-126 3169.26,-126"/>
<polygon fill="black" stroke="black" points="3169.22,-129.5 3179.22,-126 3169.22,-122.5 3169.22,-129.5"/>
</g>
<!-- 41.0 -->
<g id="node20" class="node">
<title>41.0</title>
<g id="a_node20"><a xlink:title="Node: 41.0">
<ellipse fill="none" stroke="black" cx="3335.01" cy="-126" rx="27.3" ry="18"/>
<text text-anchor="middle" x="3335.01" y="-120.95" font-family="Times New Roman,serif" font-size="14.00">41.0</text>
</a>
</g>
</g>
<!-- 40.0&#45;&gt;41.0 -->
<g id="edge12" class="edge">
<title>40.0&#45;&gt;41.0</title>
<path fill="none" stroke="black" d="M3236.15,-126C3253.55,-126 3276.54,-126 3295.85,-126"/>
<polygon fill="black" stroke="black" points="3295.81,-129.5 3305.81,-126 3295.81,-122.5 3295.81,-129.5"/>
</g>
<!-- 42.0 -->
<g id="node21" class="node">
<title>42.0</title>
<g id="a_node21"><a xlink:title="Node: 42.0">
<polygon fill="yellow" stroke="yellow" points="3472.91,-144 3434.31,-126 3472.91,-108 3511.51,-126 3472.91,-144"/>
<text text-anchor="middle" x="3472.91" y="-120.95" font-family="Times New Roman,serif" font-size="14.00">42.0</text>
</a>
</g>
</g>
<!-- 41.0&#45;&gt;42.0 -->
<g id="edge20" class="edge">
<title>41.0&#45;&gt;42.0</title>
<path fill="none" stroke="black" d="M3362.54,-126C3379.47,-126 3401.95,-126 3422.12,-126"/>
<polygon fill="black" stroke="black" points="3421.85,-129.5 3431.85,-126 3421.85,-122.5 3421.85,-129.5"/>
</g>
<!-- 43.0 -->
<g id="node22" class="node">
<title>43.0</title>
<g id="a_node22"><a xlink:title="Node: 43.0">
<polygon fill="orange" stroke="orange" points="3622.12,-180 3583.51,-162 3622.12,-144 3660.72,-162 3622.12,-180"/>
<text text-anchor="middle" x="3622.12" y="-156.95" font-family="Times New Roman,serif" font-size="14.00">43.0</text>
</a>
</g>
</g>
<!-- 42.0&#45;&gt;43.0 -->
<g id="edge45" class="edge">
<title>42.0&#45;&gt;43.0</title>
<path fill="none" stroke="black" d="M3499.21,-132.19C3522.85,-137.97 3558.37,-146.65 3584.98,-153.16"/>
<polygon fill="black" stroke="black" points="3584.12,-156.56 3594.67,-155.53 3585.79,-149.76 3584.12,-156.56"/>
</g>
<!-- 44.0 -->
<g id="node31" class="node">
<title>44.0</title>
<g id="a_node31"><a xlink:title="Node: 44.0">
<ellipse fill="none" stroke="black" cx="3622.12" cy="-90" rx="27.3" ry="18"/>
<text text-anchor="middle" x="3622.12" y="-84.95" font-family="Times New Roman,serif" font-size="14.00">44.0</text>
</a>
</g>
</g>
<!-- 42.0&#45;&gt;44.0 -->
<g id="edge24" class="edge">
<title>42.0&#45;&gt;44.0</title>
<path fill="none" stroke="black" d="M3499.21,-119.81C3522.85,-114.03 3558.37,-105.35 3584.98,-98.84"/>
<polygon fill="black" stroke="black" points="3585.79,-102.24 3594.67,-96.47 3584.12,-95.44 3585.79,-102.24"/>
</g>
<!-- 50.0 -->
<g id="node23" class="node">
<title>50.0</title>
<g id="a_node23"><a xlink:title="Node: 50.0">
<ellipse fill="none" stroke="black" cx="3771.32" cy="-162" rx="27.3" ry="18"/>
<text text-anchor="middle" x="3771.32" y="-156.95" font-family="Times New Roman,serif" font-size="14.00">50.0</text>
</a>
</g>
</g>
<!-- 43.0&#45;&gt;50.0 -->
<g id="edge53" class="edge">
<title>43.0&#45;&gt;50.0</title>
<path fill="none" stroke="black" d="M3661.79,-162C3683.64,-162 3710.84,-162 3732.54,-162"/>
<polygon fill="black" stroke="black" points="3732.45,-165.5 3742.45,-162 3732.45,-158.5 3732.45,-165.5"/>
</g>
<!-- 51.0 -->
<g id="node24" class="node">
<title>51.0</title>
<g id="a_node24"><a xlink:title="Node: 51.0">
<ellipse fill="none" stroke="black" cx="3920.53" cy="-162" rx="27.3" ry="18"/>
<text text-anchor="middle" x="3920.53" y="-156.95" font-family="Times New Roman,serif" font-size="14.00">51.0</text>
</a>
</g>
</g>
<!-- 50.0&#45;&gt;51.0 -->
<g id="edge21" class="edge">
<title>50.0&#45;&gt;51.0</title>
<path fill="none" stroke="black" d="M3798.98,-162C3822.11,-162 3855.87,-162 3881.78,-162"/>
<polygon fill="black" stroke="black" points="3881.55,-165.5 3891.55,-162 3881.55,-158.5 3881.55,-165.5"/>
</g>
<!-- 52.0 -->
<g id="node25" class="node">
<title>52.0</title>
<g id="a_node25"><a xlink:title="Node: 52.0">
<polygon fill="yellow" stroke="yellow" points="4069.73,-180 4031.13,-162 4069.73,-144 4108.34,-162 4069.73,-180"/>
<text text-anchor="middle" x="4069.73" y="-156.95" font-family="Times New Roman,serif" font-size="14.00">52.0</text>
</a>
</g>
</g>
<!-- 51.0&#45;&gt;52.0 -->
<g id="edge26" class="edge">
<title>51.0&#45;&gt;52.0</title>
<path fill="none" stroke="black" d="M3948.19,-162C3967.84,-162 3995.15,-162 4018.81,-162"/>
<polygon fill="black" stroke="black" points="4018.57,-165.5 4028.57,-162 4018.57,-158.5 4018.57,-165.5"/>
</g>
<!-- 53.0 -->
<g id="node26" class="node">
<title>53.0</title>
<g id="a_node26"><a xlink:title="Node: 53.0">
<polygon fill="orange" stroke="orange" points="4218.94,-252 4180.34,-234 4218.94,-216 4257.54,-234 4218.94,-252"/>
<text text-anchor="middle" x="4218.94" y="-228.95" font-family="Times New Roman,serif" font-size="14.00">53.0</text>
</a>
</g>
</g>
<!-- 52.0&#45;&gt;53.0 -->
<g id="edge52" class="edge">
<title>52.0&#45;&gt;53.0</title>
<path fill="none" stroke="black" d="M4089.38,-171.12C4114.6,-183.45 4159.81,-205.57 4189.34,-220.01"/>
<polygon fill="black" stroke="black" points="4187.57,-223.04 4198.09,-224.29 4190.64,-216.75 4187.57,-223.04"/>
</g>
<!-- 54.0 -->
<g id="node48" class="node">
<title>54.0</title>
<g id="a_node48"><a xlink:title="Node: 54.0">
<polygon fill="orange" stroke="orange" points="4218.94,-180 4180.34,-162 4218.94,-144 4257.54,-162 4218.94,-180"/>
<text text-anchor="middle" x="4218.94" y="-156.95" font-family="Times New Roman,serif" font-size="14.00">54.0</text>
</a>
</g>
</g>
<!-- 52.0&#45;&gt;54.0 -->
<g id="edge25" class="edge">
<title>52.0&#45;&gt;54.0</title>
<path fill="none" stroke="black" d="M4109.41,-162C4127.34,-162 4148.87,-162 4168.01,-162"/>
<polygon fill="black" stroke="black" points="4167.75,-165.5 4177.75,-162 4167.75,-158.5 4167.75,-165.5"/>
</g>
<!-- 77.0 -->
<g id="node27" class="node">
<title>77.0</title>
<g id="a_node27"><a xlink:title="Node: 77.0">
<ellipse fill="none" stroke="black" cx="4356.84" cy="-234" rx="27.3" ry="18"/>
<text text-anchor="middle" x="4356.84" y="-228.95" font-family="Times New Roman,serif" font-size="14.00">77.0</text>
</a>
</g>
</g>
<!-- 53.0&#45;&gt;77.0 -->
<g id="edge23" class="edge">
<title>53.0&#45;&gt;77.0</title>
<path fill="none" stroke="black" d="M4258.52,-234C4277.15,-234 4299.42,-234 4317.96,-234"/>
<polygon fill="black" stroke="black" points="4317.72,-237.5 4327.72,-234 4317.72,-230.5 4317.72,-237.5"/>
</g>
<!-- 78.0 -->
<g id="node28" class="node">
<title>78.0</title>
<g id="a_node28"><a xlink:title="Node: 78.0">
<ellipse fill="none" stroke="black" cx="4494.74" cy="-234" rx="27.3" ry="18"/>
<text text-anchor="middle" x="4494.74" y="-228.95" font-family="Times New Roman,serif" font-size="14.00">78.0</text>
</a>
</g>
</g>
<!-- 77.0&#45;&gt;78.0 -->
<g id="edge10" class="edge">
<title>77.0&#45;&gt;78.0</title>
<path fill="none" stroke="black" d="M4384.36,-234C4404.76,-234 4433.19,-234 4455.96,-234"/>
<polygon fill="black" stroke="black" points="4455.77,-237.5 4465.77,-234 4455.77,-230.5 4455.77,-237.5"/>
</g>
<!-- 79.0 -->
<g id="node29" class="node">
<title>79.0</title>
<g id="a_node29"><a xlink:title="Node: 79.0">
<polygon fill="yellow" stroke="yellow" points="4643.94,-252 4605.34,-234 4643.94,-216 4682.55,-234 4643.94,-252"/>
<text text-anchor="middle" x="4643.94" y="-228.95" font-family="Times New Roman,serif" font-size="14.00">79.0</text>
</a>
</g>
</g>
<!-- 78.0&#45;&gt;79.0 -->
<g id="edge29" class="edge">
<title>78.0&#45;&gt;79.0</title>
<path fill="none" stroke="black" d="M4522.4,-234C4542.05,-234 4569.36,-234 4593.02,-234"/>
<polygon fill="black" stroke="black" points="4592.78,-237.5 4602.78,-234 4592.78,-230.5 4592.78,-237.5"/>
</g>
<!-- 80.0 -->
<g id="node30" class="node">
<title>80.0</title>
<g id="a_node30"><a xlink:title="Node: 80.0">
<polygon fill="orange" stroke="orange" points="4793.15,-315 4754.55,-297 4793.15,-279 4831.75,-297 4793.15,-315"/>
<text text-anchor="middle" x="4793.15" y="-291.95" font-family="Times New Roman,serif" font-size="14.00">80.0</text>
</a>
</g>
</g>
<!-- 79.0&#45;&gt;80.0 -->
<g id="edge40" class="edge">
<title>79.0&#45;&gt;80.0</title>
<path fill="none" stroke="black" d="M4665.1,-242.63C4690.1,-253.33 4732.94,-271.66 4761.89,-284.05"/>
<polygon fill="black" stroke="black" points="4760.27,-287.16 4770.84,-287.88 4763.03,-280.73 4760.27,-287.16"/>
</g>
<!-- 81.0 -->
<g id="node57" class="node">
<title>81.0</title>
<g id="a_node57"><a xlink:title="Node: 81.0">
<polygon fill="orange" stroke="orange" points="4793.15,-243 4754.55,-225 4793.15,-207 4831.75,-225 4793.15,-243"/>
<text text-anchor="middle" x="4793.15" y="-219.95" font-family="Times New Roman,serif" font-size="14.00">81.0</text>
</a>
</g>
</g>
<!-- 79.0&#45;&gt;81.0 -->
<g id="edge19" class="edge">
<title>79.0&#45;&gt;81.0</title>
<path fill="none" stroke="black" d="M4679.09,-231.91C4699.17,-230.68 4724.83,-229.12 4746.62,-227.78"/>
<polygon fill="black" stroke="black" points="4746.66,-231.29 4756.43,-227.18 4746.23,-224.3 4746.66,-231.29"/>
</g>
<!-- 82.0 -->
<g id="node59" class="node">
<title>82.0</title>
<ellipse fill="none" stroke="black" cx="4942.36" cy="-297" rx="27.3" ry="18"/>
<text text-anchor="middle" x="4942.36" y="-291.95" font-family="Times New Roman,serif" font-size="14.00">82.0</text>
</g>
<!-- 80.0&#45;&gt;82.0 -->
<g id="edge30" class="edge">
<title>80.0&#45;&gt;82.0</title>
<path fill="none" stroke="black" d="M4832.83,-297C4854.68,-297 4881.87,-297 4903.57,-297"/>
<polygon fill="black" stroke="black" points="4903.48,-300.5 4913.48,-297 4903.48,-293.5 4903.48,-300.5"/>
</g>
<!-- 45.0 -->
<g id="node32" class="node">
<title>45.0</title>
<g id="a_node32"><a xlink:title="Node: 45.0">
<polygon fill="yellow" stroke="yellow" points="3771.32,-108 3732.72,-90 3771.32,-72 3809.92,-90 3771.32,-108"/>
<text text-anchor="middle" x="3771.32" y="-84.95" font-family="Times New Roman,serif" font-size="14.00">45.0</text>
</a>
</g>
</g>
<!-- 44.0&#45;&gt;45.0 -->
<g id="edge4" class="edge">
<title>44.0&#45;&gt;45.0</title>
<path fill="none" stroke="black" d="M3649.77,-90C3669.42,-90 3696.74,-90 3720.4,-90"/>
<polygon fill="black" stroke="black" points="3720.16,-93.5 3730.16,-90 3720.16,-86.5 3720.16,-93.5"/>
</g>
<!-- 46.0 -->
<g id="node33" class="node">
<title>46.0</title>
<g id="a_node33"><a xlink:title="Node: 46.0">
<polygon fill="orange" stroke="orange" points="3920.53,-108 3881.92,-90 3920.53,-72 3959.13,-90 3920.53,-108"/>
<text text-anchor="middle" x="3920.53" y="-84.95" font-family="Times New Roman,serif" font-size="14.00">46.0</text>
</a>
</g>
</g>
<!-- 45.0&#45;&gt;46.0 -->
<g id="edge17" class="edge">
<title>45.0&#45;&gt;46.0</title>
<path fill="none" stroke="black" d="M3811,-90C3828.93,-90 3850.46,-90 3869.6,-90"/>
<polygon fill="black" stroke="black" points="3869.34,-93.5 3879.34,-90 3869.34,-86.5 3869.34,-93.5"/>
</g>
<!-- 47.0 -->
<g id="node52" class="node">
<title>47.0</title>
<g id="a_node52"><a xlink:title="Node: 47.0">
<ellipse fill="none" stroke="black" cx="3920.53" cy="-18" rx="27.3" ry="18"/>
<text text-anchor="middle" x="3920.53" y="-12.95" font-family="Times New Roman,serif" font-size="14.00">47.0</text>
</a>
</g>
</g>
<!-- 45.0&#45;&gt;47.0 -->
<g id="edge65" class="edge">
<title>45.0&#45;&gt;47.0</title>
<path fill="none" stroke="black" d="M3790.96,-80.88C3815.36,-68.95 3858.46,-47.87 3887.98,-33.43"/>
<polygon fill="black" stroke="black" points="3889.37,-36.64 3896.82,-29.11 3886.3,-30.36 3889.37,-36.64"/>
</g>
<!-- 55.0 -->
<g id="node34" class="node">
<title>55.0</title>
<g id="a_node34"><a xlink:title="Node: 55.0">
<ellipse fill="none" stroke="black" cx="4069.73" cy="-90" rx="27.3" ry="18"/>
<text text-anchor="middle" x="4069.73" y="-84.95" font-family="Times New Roman,serif" font-size="14.00">55.0</text>
</a>
</g>
</g>
<!-- 46.0&#45;&gt;55.0 -->
<g id="edge62" class="edge">
<title>46.0&#45;&gt;55.0</title>
<path fill="none" stroke="black" d="M3960.2,-90C3982.05,-90 4009.25,-90 4030.95,-90"/>
<polygon fill="black" stroke="black" points="4030.86,-93.5 4040.86,-90 4030.86,-86.5 4030.86,-93.5"/>
</g>
<!-- 56.0 -->
<g id="node35" class="node">
<title>56.0</title>
<g id="a_node35"><a xlink:title="Node: 56.0">
<ellipse fill="none" stroke="black" cx="4218.94" cy="-90" rx="27.3" ry="18"/>
<text text-anchor="middle" x="4218.94" y="-84.95" font-family="Times New Roman,serif" font-size="14.00">56.0</text>
</a>
</g>
</g>
<!-- 55.0&#45;&gt;56.0 -->
<g id="edge18" class="edge">
<title>55.0&#45;&gt;56.0</title>
<path fill="none" stroke="black" d="M4097.39,-90C4120.53,-90 4154.28,-90 4180.19,-90"/>
<polygon fill="black" stroke="black" points="4179.97,-93.5 4189.97,-90 4179.97,-86.5 4179.97,-93.5"/>
</g>
<!-- 57.0 -->
<g id="node36" class="node">
<title>57.0</title>
<g id="a_node36"><a xlink:title="Node: 57.0">
<ellipse fill="none" stroke="black" cx="4356.84" cy="-125" rx="27.3" ry="18"/>
<text text-anchor="middle" x="4356.84" y="-119.95" font-family="Times New Roman,serif" font-size="14.00">57.0</text>
</a>
</g>
</g>
<!-- 56.0&#45;&gt;57.0 -->
<g id="edge41" class="edge">
<title>56.0&#45;&gt;57.0</title>
<path fill="none" stroke="black" d="M4244.87,-96.42C4265.94,-101.85 4296.39,-109.69 4320.06,-115.79"/>
<polygon fill="black" stroke="black" points="4319.05,-119.14 4329.6,-118.24 4320.79,-112.36 4319.05,-119.14"/>
</g>
<!-- 58.0 -->
<g id="node37" class="node">
<title>58.0</title>
<g id="a_node37"><a xlink:title="Node: 58.0">
<polygon fill="yellow" stroke="yellow" points="4494.74,-143 4456.13,-125 4494.74,-107 4533.34,-125 4494.74,-143"/>
<text text-anchor="middle" x="4494.74" y="-119.95" font-family="Times New Roman,serif" font-size="14.00">58.0</text>
</a>
</g>
</g>
<!-- 57.0&#45;&gt;58.0 -->
<g id="edge60" class="edge">
<title>57.0&#45;&gt;58.0</title>
<path fill="none" stroke="black" d="M4384.36,-125C4401.3,-125 4423.78,-125 4443.95,-125"/>
<polygon fill="black" stroke="black" points="4443.68,-128.5 4453.68,-125 4443.68,-121.5 4443.68,-128.5"/>
</g>
<!-- 59.0 -->
<g id="node38" class="node">
<title>59.0</title>
<g id="a_node38"><a xlink:title="Node: 59.0">
<polygon fill="orange" stroke="orange" points="4643.94,-152 4605.34,-134 4643.94,-116 4682.55,-134 4643.94,-152"/>
<text text-anchor="middle" x="4643.94" y="-128.95" font-family="Times New Roman,serif" font-size="14.00">59.0</text>
</a>
</g>
</g>
<!-- 58.0&#45;&gt;59.0 -->
<g id="edge3" class="edge">
<title>58.0&#45;&gt;59.0</title>
<path fill="none" stroke="black" d="M4529.88,-127.09C4549.97,-128.32 4575.62,-129.88 4597.41,-131.22"/>
<polygon fill="black" stroke="black" points="4597.03,-134.7 4607.22,-131.82 4597.45,-127.71 4597.03,-134.7"/>
</g>
<!-- 60.0 -->
<g id="node49" class="node">
<title>60.0</title>
<g id="a_node49"><a xlink:title="Node: 60.0">
<ellipse fill="none" stroke="black" cx="4643.94" cy="-62" rx="27.3" ry="18"/>
<text text-anchor="middle" x="4643.94" y="-56.95" font-family="Times New Roman,serif" font-size="14.00">60.0</text>
</a>
</g>
</g>
<!-- 58.0&#45;&gt;60.0 -->
<g id="edge50" class="edge">
<title>58.0&#45;&gt;60.0</title>
<path fill="none" stroke="black" d="M4515.9,-116.37C4540.2,-105.97 4581.35,-88.36 4610.22,-76"/>
<polygon fill="black" stroke="black" points="4611.42,-79.3 4619.23,-72.15 4608.66,-72.86 4611.42,-79.3"/>
</g>
<!-- 70.0 -->
<g id="node39" class="node">
<title>70.0</title>
<g id="a_node39"><a xlink:title="Node: 70.0">
<ellipse fill="none" stroke="black" cx="5080.26" cy="-97" rx="27.3" ry="18"/>
<text text-anchor="middle" x="5080.26" y="-91.95" font-family="Times New Roman,serif" font-size="14.00">70.0</text>
</a>
</g>
</g>
<!-- 59.0&#45;&gt;70.0 -->
<g id="edge5" class="edge">
<title>59.0&#45;&gt;70.0</title>
<path fill="none" stroke="black" d="M4677.59,-131.22C4756.55,-124.49 4957.52,-107.37 5041.49,-100.22"/>
<polygon fill="black" stroke="black" points="5041.59,-103.72 5051.26,-99.39 5041,-96.75 5041.59,-103.72"/>
</g>
<!-- 71.0 -->
<g id="node40" class="node">
<title>71.0</title>
<g id="a_node40"><a xlink:title="Node: 71.0">
<ellipse fill="none" stroke="black" cx="5206.85" cy="-97" rx="27.3" ry="18"/>
<text text-anchor="middle" x="5206.85" y="-91.95" font-family="Times New Roman,serif" font-size="14.00">71.0</text>
</a>
</g>
</g>
<!-- 70.0&#45;&gt;71.0 -->
<g id="edge54" class="edge">
<title>70.0&#45;&gt;71.0</title>
<path fill="none" stroke="black" d="M5107.98,-97C5125.39,-97 5148.37,-97 5167.69,-97"/>
<polygon fill="black" stroke="black" points="5167.65,-100.5 5177.65,-97 5167.65,-93.5 5167.65,-100.5"/>
</g>
<!-- 72.0 -->
<g id="node41" class="node">
<title>72.0</title>
<g id="a_node41"><a xlink:title="Node: 72.0">
<polygon fill="yellow" stroke="yellow" points="5344.75,-115 5306.14,-97 5344.75,-79 5383.35,-97 5344.75,-115"/>
<text text-anchor="middle" x="5344.75" y="-91.95" font-family="Times New Roman,serif" font-size="14.00">72.0</text>
</a>
</g>
</g>
<!-- 71.0&#45;&gt;72.0 -->
<g id="edge61" class="edge">
<title>71.0&#45;&gt;72.0</title>
<path fill="none" stroke="black" d="M5234.37,-97C5251.31,-97 5273.79,-97 5293.96,-97"/>
<polygon fill="black" stroke="black" points="5293.68,-100.5 5303.68,-97 5293.68,-93.5 5293.68,-100.5"/>
</g>
<!-- 73.0 -->
<g id="node42" class="node">
<title>73.0</title>
<g id="a_node42"><a xlink:title="Node: 73.0">
<polygon fill="orange" stroke="orange" points="5493.95,-151 5455.35,-133 5493.95,-115 5532.56,-133 5493.95,-151"/>
<text text-anchor="middle" x="5493.95" y="-127.95" font-family="Times New Roman,serif" font-size="14.00">73.0</text>
</a>
</g>
</g>
<!-- 72.0&#45;&gt;73.0 -->
<g id="edge1" class="edge">
<title>72.0&#45;&gt;73.0</title>
<path fill="none" stroke="black" d="M5371.05,-103.19C5394.68,-108.97 5430.21,-117.65 5456.82,-124.16"/>
<polygon fill="black" stroke="black" points="5455.96,-127.56 5466.51,-126.53 5457.63,-120.76 5455.96,-127.56"/>
</g>
<!-- 74.0 -->
<g id="node58" class="node">
<title>74.0</title>
<g id="a_node58"><a xlink:title="Node: 74.0">
<ellipse fill="none" stroke="black" cx="5493.95" cy="-61" rx="27.3" ry="18"/>
<text text-anchor="middle" x="5493.95" y="-55.95" font-family="Times New Roman,serif" font-size="14.00">74.0</text>
</a>
</g>
</g>
<!-- 72.0&#45;&gt;74.0 -->
<g id="edge49" class="edge">
<title>72.0&#45;&gt;74.0</title>
<path fill="none" stroke="black" d="M5371.05,-90.81C5394.68,-85.03 5430.21,-76.35 5456.82,-69.84"/>
<polygon fill="black" stroke="black" points="5457.63,-73.24 5466.51,-67.47 5455.96,-66.44 5457.63,-73.24"/>
</g>
<!-- 76.0 -->
<g id="node61" class="node">
<title>76.0</title>
<ellipse fill="none" stroke="black" cx="5631.85" cy="-133" rx="27.3" ry="18"/>
<text text-anchor="middle" x="5631.85" y="-127.95" font-family="Times New Roman,serif" font-size="14.00">76.0</text>
</g>
<!-- 73.0&#45;&gt;76.0 -->
<g id="edge46" class="edge">
<title>73.0&#45;&gt;76.0</title>
<path fill="none" stroke="black" d="M5533.53,-133C5552.16,-133 5574.43,-133 5592.97,-133"/>
<polygon fill="black" stroke="black" points="5592.73,-136.5 5602.73,-133 5592.73,-129.5 5592.73,-136.5"/>
</g>
<!-- 19.0 -->
<g id="node44" class="node">
<title>19.0</title>
<g id="a_node44"><a xlink:title="Node: 19.0">
<ellipse fill="none" stroke="black" cx="1460.95" cy="-90" rx="27.3" ry="18"/>
<text text-anchor="middle" x="1460.95" y="-84.95" font-family="Times New Roman,serif" font-size="14.00">19.0</text>
</a>
</g>
</g>
<!-- 18.0&#45;&gt;19.0 -->
<g id="edge22" class="edge">
<title>18.0&#45;&gt;19.0</title>
<path fill="none" stroke="black" d="M1350.58,-90C1370.97,-90 1399.41,-90 1422.18,-90"/>
<polygon fill="black" stroke="black" points="1421.98,-93.5 1431.98,-90 1421.98,-86.5 1421.98,-93.5"/>
</g>
<!-- 20.0 -->
<g id="node45" class="node">
<title>20.0</title>
<g id="a_node45"><a xlink:title="Node: 20.0">
<ellipse fill="none" stroke="black" cx="1598.85" cy="-90" rx="27.3" ry="18"/>
<text text-anchor="middle" x="1598.85" y="-84.95" font-family="Times New Roman,serif" font-size="14.00">20.0</text>
</a>
</g>
</g>
<!-- 19.0&#45;&gt;20.0 -->
<g id="edge35" class="edge">
<title>19.0&#45;&gt;20.0</title>
<path fill="none" stroke="black" d="M1488.48,-90C1508.87,-90 1537.31,-90 1560.08,-90"/>
<polygon fill="black" stroke="black" points="1559.88,-93.5 1569.88,-90 1559.88,-86.5 1559.88,-93.5"/>
</g>
<!-- 21.0 -->
<g id="node46" class="node">
<title>21.0</title>
<g id="a_node46"><a xlink:title="Node: 21.0">
<ellipse fill="none" stroke="black" cx="1725.44" cy="-90" rx="27.3" ry="18"/>
<text text-anchor="middle" x="1725.44" y="-84.95" font-family="Times New Roman,serif" font-size="14.00">21.0</text>
</a>
</g>
</g>
<!-- 20.0&#45;&gt;21.0 -->
<g id="edge51" class="edge">
<title>20.0&#45;&gt;21.0</title>
<path fill="none" stroke="black" d="M1626.58,-90C1643.99,-90 1666.97,-90 1686.29,-90"/>
<polygon fill="black" stroke="black" points="1686.25,-93.5 1696.25,-90 1686.25,-86.5 1686.25,-93.5"/>
</g>
<!-- 22.0 -->
<g id="node47" class="node">
<title>22.0</title>
<g id="a_node47"><a xlink:title="Node: 22.0">
<polygon fill="orange" stroke="orange" points="1863.34,-108 1824.74,-90 1863.34,-72 1901.95,-90 1863.34,-108"/>
<text text-anchor="middle" x="1863.34" y="-84.95" font-family="Times New Roman,serif" font-size="14.00">22.0</text>
</a>
</g>
</g>
<!-- 21.0&#45;&gt;22.0 -->
<g id="edge11" class="edge">
<title>21.0&#45;&gt;22.0</title>
<path fill="none" stroke="black" d="M1752.97,-90C1769.9,-90 1792.38,-90 1812.56,-90"/>
<polygon fill="black" stroke="black" points="1812.28,-93.5 1822.28,-90 1812.28,-86.5 1812.28,-93.5"/>
</g>
<!-- 22.0&#45;&gt;24.0 -->
<g id="edge58" class="edge">
<title>22.0&#45;&gt;24.0</title>
<path fill="none" stroke="black" d="M1888.95,-96.52C1909.99,-102.09 1940.53,-110.18 1964.3,-116.48"/>
<polygon fill="black" stroke="black" points="1963.33,-119.84 1973.89,-119.02 1965.12,-113.08 1963.33,-119.84"/>
</g>
<!-- 54.0&#45;&gt;57.0 -->
<g id="edge37" class="edge">
<title>54.0&#45;&gt;57.0</title>
<path fill="none" stroke="black" d="M4244.24,-155.39C4265.46,-149.61 4296.53,-141.15 4320.51,-134.62"/>
<polygon fill="black" stroke="black" points="4321.1,-138.08 4329.83,-132.08 4319.27,-131.33 4321.1,-138.08"/>
</g>
<!-- 61.0 -->
<g id="node50" class="node">
<title>61.0</title>
<g id="a_node50"><a xlink:title="Node: 61.0">
<ellipse fill="none" stroke="black" cx="4793.15" cy="-61" rx="27.3" ry="18"/>
<text text-anchor="middle" x="4793.15" y="-55.95" font-family="Times New Roman,serif" font-size="14.00">61.0</text>
</a>
</g>
</g>
<!-- 60.0&#45;&gt;61.0 -->
<g id="edge27" class="edge">
<title>60.0&#45;&gt;61.0</title>
<path fill="none" stroke="black" d="M4671.6,-61.82C4694.74,-61.66 4728.49,-61.43 4754.4,-61.26"/>
<polygon fill="black" stroke="black" points="4754.2,-64.76 4764.18,-61.19 4754.15,-57.76 4754.2,-64.76"/>
</g>
<!-- 62.0 -->
<g id="node51" class="node">
<title>62.0</title>
<g id="a_node51"><a xlink:title="Node: 62.0">
<polygon fill="orange" stroke="orange" points="4942.36,-79 4903.75,-61 4942.36,-43 4980.96,-61 4942.36,-79"/>
<text text-anchor="middle" x="4942.36" y="-55.95" font-family="Times New Roman,serif" font-size="14.00">62.0</text>
</a>
</g>
</g>
<!-- 61.0&#45;&gt;62.0 -->
<g id="edge55" class="edge">
<title>61.0&#45;&gt;62.0</title>
<path fill="none" stroke="black" d="M4820.81,-61C4840.46,-61 4867.77,-61 4891.43,-61"/>
<polygon fill="black" stroke="black" points="4891.19,-64.5 4901.19,-61 4891.19,-57.5 4891.19,-64.5"/>
</g>
<!-- 62.0&#45;&gt;70.0 -->
<g id="edge42" class="edge">
<title>62.0&#45;&gt;70.0</title>
<path fill="none" stroke="black" d="M4967.97,-67.52C4989,-73.09 5019.54,-81.18 5043.32,-87.48"/>
<polygon fill="black" stroke="black" points="5042.34,-90.84 5052.91,-90.02 5044.14,-84.08 5042.34,-90.84"/>
</g>
<!-- 48.0 -->
<g id="node53" class="node">
<title>48.0</title>
<g id="a_node53"><a xlink:title="Node: 48.0">
<ellipse fill="none" stroke="black" cx="4069.73" cy="-18" rx="27.3" ry="18"/>
<text text-anchor="middle" x="4069.73" y="-12.95" font-family="Times New Roman,serif" font-size="14.00">48.0</text>
</a>
</g>
</g>
<!-- 47.0&#45;&gt;48.0 -->
<g id="edge43" class="edge">
<title>47.0&#45;&gt;48.0</title>
<path fill="none" stroke="black" d="M3948.19,-18C3971.32,-18 4005.08,-18 4030.99,-18"/>
<polygon fill="black" stroke="black" points="4030.76,-21.5 4040.76,-18 4030.76,-14.5 4030.76,-21.5"/>
</g>
<!-- 49.0 -->
<g id="node63" class="node">
<title>49.0</title>
<ellipse fill="none" stroke="black" cx="4218.94" cy="-18" rx="27.3" ry="18"/>
<text text-anchor="middle" x="4218.94" y="-12.95" font-family="Times New Roman,serif" font-size="14.00">49.0</text>
</g>
<!-- 48.0&#45;&gt;49.0 -->
<g id="edge63" class="edge">
<title>48.0&#45;&gt;49.0</title>
<path fill="none" stroke="black" d="M4097.39,-18C4120.53,-18 4154.28,-18 4180.19,-18"/>
<polygon fill="black" stroke="black" points="4179.97,-21.5 4189.97,-18 4179.97,-14.5 4179.97,-21.5"/>
</g>
<!-- 28.0 -->
<g id="node55" class="node">
<title>28.0</title>
<g id="a_node55"><a xlink:title="Node: 28.0">
<ellipse fill="none" stroke="black" cx="2414.94" cy="-90" rx="27.3" ry="18"/>
<text text-anchor="middle" x="2414.94" y="-84.95" font-family="Times New Roman,serif" font-size="14.00">28.0</text>
</a>
</g>
</g>
<!-- 27.0&#45;&gt;28.0 -->
<g id="edge15" class="edge">
<title>27.0&#45;&gt;28.0</title>
<path fill="none" stroke="black" d="M2304.57,-90C2324.96,-90 2353.4,-90 2376.17,-90"/>
<polygon fill="black" stroke="black" points="2375.97,-93.5 2385.97,-90 2375.97,-86.5 2375.97,-93.5"/>
</g>
<!-- 29.0 -->
<g id="node56" class="node">
<title>29.0</title>
<g id="a_node56"><a xlink:title="Node: 29.0">
<polygon fill="orange" stroke="orange" points="2564.15,-108 2525.54,-90 2564.15,-72 2602.75,-90 2564.15,-108"/>
<text text-anchor="middle" x="2564.15" y="-84.95" font-family="Times New Roman,serif" font-size="14.00">29.0</text>
</a>
</g>
</g>
<!-- 28.0&#45;&gt;29.0 -->
<g id="edge36" class="edge">
<title>28.0&#45;&gt;29.0</title>
<path fill="none" stroke="black" d="M2442.6,-90C2462.25,-90 2489.56,-90 2513.22,-90"/>
<polygon fill="black" stroke="black" points="2512.98,-93.5 2522.98,-90 2512.98,-86.5 2512.98,-93.5"/>
</g>
<!-- 29.0&#45;&gt;36.0 -->
<g id="edge57" class="edge">
<title>29.0&#45;&gt;36.0</title>
<path fill="none" stroke="black" d="M2589.76,-96.52C2610.79,-102.09 2641.34,-110.18 2665.11,-116.48"/>
<polygon fill="black" stroke="black" points="2664.13,-119.84 2674.7,-119.02 2665.93,-113.08 2664.13,-119.84"/>
</g>
<!-- 83.0 -->
<g id="node62" class="node">
<title>83.0</title>
<ellipse fill="none" stroke="black" cx="4942.36" cy="-225" rx="27.3" ry="18"/>
<text text-anchor="middle" x="4942.36" y="-219.95" font-family="Times New Roman,serif" font-size="14.00">83.0</text>
</g>
<!-- 81.0&#45;&gt;83.0 -->
<g id="edge48" class="edge">
<title>81.0&#45;&gt;83.0</title>
<path fill="none" stroke="black" d="M4832.83,-225C4854.68,-225 4881.87,-225 4903.57,-225"/>
<polygon fill="black" stroke="black" points="4903.48,-228.5 4913.48,-225 4903.48,-221.5 4903.48,-228.5"/>
</g>
<!-- 75.0 -->
<g id="node60" class="node">
<title>75.0</title>
<ellipse fill="none" stroke="black" cx="5631.85" cy="-61" rx="27.3" ry="18"/>
<text text-anchor="middle" x="5631.85" y="-55.95" font-family="Times New Roman,serif" font-size="14.00">75.0</text>
</g>
<!-- 74.0&#45;&gt;75.0 -->
<g id="edge33" class="edge">
<title>74.0&#45;&gt;75.0</title>
<path fill="none" stroke="black" d="M5521.48,-61C5541.87,-61 5570.31,-61 5593.08,-61"/>
<polygon fill="black" stroke="black" points="5592.88,-64.5 5602.88,-61 5592.88,-57.5 5592.88,-64.5"/>
</g>
</g>
</svg>
