<?xml version="1.0" encoding="UTF-8" standalone="no"?>
<!DOCTYPE svg PUBLIC "-//W3C//DTD SVG 1.1//EN"
 "http://www.w3.org/Graphics/SVG/1.1/DTD/svg11.dtd">
<!-- Generated by graphviz version 12.2.1 (20241206.2353)
 -->
<!-- Pages: 1 -->
<svg width="4506pt" height="188pt"
 viewBox="0.00 0.00 4505.61 188.00" xmlns="http://www.w3.org/2000/svg" xmlns:xlink="http://www.w3.org/1999/xlink">
<g id="graph0" class="graph" transform="scale(1 1) rotate(0) translate(4 184)">
<polygon fill="white" stroke="none" points="-4,4 -4,-184 4501.61,-184 4501.61,4 -4,4"/>
<!-- 0.0 -->
<g id="node1" class="node">
<title>0.0</title>
<g id="a_node1"><a xlink:title="Node: 0.0">
<ellipse fill="none" stroke="black" cx="27" cy="-54" rx="27" ry="18"/>
<text text-anchor="middle" x="27" y="-48.95" font-family="Times New Roman,serif" font-size="14.00">0.0</text>
</a>
</g>
</g>
<!-- 1.0 -->
<g id="node2" class="node">
<title>1.0</title>
<g id="a_node2"><a xlink:title="Node: 1.0">
<ellipse fill="none" stroke="black" cx="153" cy="-54" rx="27" ry="18"/>
<text text-anchor="middle" x="153" y="-48.95" font-family="Times New Roman,serif" font-size="14.00">1.0</text>
</a>
</g>
</g>
<!-- 0.0&#45;&gt;1.0 -->
<g id="edge26" class="edge">
<title>0.0&#45;&gt;1.0</title>
<path fill="none" stroke="black" d="M54.3,-54C71.72,-54 94.86,-54 114.24,-54"/>
<polygon fill="black" stroke="black" points="114.23,-57.5 124.23,-54 114.23,-50.5 114.23,-57.5"/>
</g>
<!-- 2.0 -->
<g id="node3" class="node">
<title>2.0</title>
<g id="a_node3"><a xlink:title="Node: 2.0">
<polygon fill="yellow" stroke="yellow" points="284.09,-72 252,-54 284.09,-36 316.18,-54 284.09,-72"/>
<text text-anchor="middle" x="284.09" y="-48.95" font-family="Times New Roman,serif" font-size="14.00">2.0</text>
</a>
</g>
</g>
<!-- 1.0&#45;&gt;2.0 -->
<g id="edge28" class="edge">
<title>1.0&#45;&gt;2.0</title>
<path fill="none" stroke="black" d="M180.43,-54C197.5,-54 220.09,-54 239.74,-54"/>
<polygon fill="black" stroke="black" points="239.7,-57.5 249.7,-54 239.7,-50.5 239.7,-57.5"/>
</g>
<!-- 3.0 -->
<g id="node4" class="node">
<title>3.0</title>
<g id="a_node4"><a xlink:title="Node: 3.0">
<ellipse fill="none" stroke="black" cx="542.07" cy="-91" rx="27" ry="18"/>
<text text-anchor="middle" x="542.07" y="-85.95" font-family="Times New Roman,serif" font-size="14.00">3.0</text>
</a>
</g>
</g>
<!-- 2.0&#45;&gt;3.0 -->
<g id="edge48" class="edge">
<title>2.0&#45;&gt;3.0</title>
<path fill="none" stroke="black" d="M310.57,-57.68C356.07,-64.26 451.44,-78.05 504.13,-85.66"/>
<polygon fill="black" stroke="black" points="503.41,-89.09 513.81,-87.06 504.42,-82.17 503.41,-89.09"/>
</g>
<!-- 93.0 -->
<g id="node40" class="node">
<title>93.0</title>
<g id="a_node40"><a xlink:title="Node: 93.0">
<ellipse fill="none" stroke="black" cx="415.47" cy="-18" rx="27.3" ry="18"/>
<text text-anchor="middle" x="415.47" y="-12.95" font-family="Times New Roman,serif" font-size="14.00">93.0</text>
</a>
</g>
</g>
<!-- 2.0&#45;&gt;93.0 -->
<g id="edge20" class="edge">
<title>2.0&#45;&gt;93.0</title>
<path fill="none" stroke="black" d="M306.45,-48.06C326.19,-42.56 355.89,-34.3 379.15,-27.83"/>
<polygon fill="black" stroke="black" points="379.83,-31.27 388.53,-25.22 377.96,-24.53 379.83,-31.27"/>
</g>
<!-- 4.0 -->
<g id="node5" class="node">
<title>4.0</title>
<g id="a_node5"><a xlink:title="Node: 4.0">
<ellipse fill="none" stroke="black" cx="817.57" cy="-54" rx="27" ry="18"/>
<text text-anchor="middle" x="817.57" y="-48.95" font-family="Times New Roman,serif" font-size="14.00">4.0</text>
</a>
</g>
</g>
<!-- 3.0&#45;&gt;4.0 -->
<g id="edge1" class="edge">
<title>3.0&#45;&gt;4.0</title>
<path fill="none" stroke="black" d="M568.8,-87.52C617.46,-80.94 723.15,-66.64 779.48,-59.02"/>
<polygon fill="black" stroke="black" points="779.77,-62.51 789.21,-57.7 778.83,-55.57 779.77,-62.51"/>
</g>
<!-- 5.0 -->
<g id="node6" class="node">
<title>5.0</title>
<g id="a_node6"><a xlink:title="Node: 5.0">
<ellipse fill="none" stroke="black" cx="943.57" cy="-54" rx="27" ry="18"/>
<text text-anchor="middle" x="943.57" y="-48.95" font-family="Times New Roman,serif" font-size="14.00">5.0</text>
</a>
</g>
</g>
<!-- 4.0&#45;&gt;5.0 -->
<g id="edge21" class="edge">
<title>4.0&#45;&gt;5.0</title>
<path fill="none" stroke="black" d="M844.87,-54C862.29,-54 885.43,-54 904.81,-54"/>
<polygon fill="black" stroke="black" points="904.8,-57.5 914.8,-54 904.8,-50.5 904.8,-57.5"/>
</g>
<!-- 6.0 -->
<g id="node7" class="node">
<title>6.0</title>
<g id="a_node7"><a xlink:title="Node: 6.0">
<polygon fill="yellow" stroke="yellow" points="1074.66,-72 1042.57,-54 1074.66,-36 1106.75,-54 1074.66,-72"/>
<text text-anchor="middle" x="1074.66" y="-48.95" font-family="Times New Roman,serif" font-size="14.00">6.0</text>
</a>
</g>
</g>
<!-- 5.0&#45;&gt;6.0 -->
<g id="edge23" class="edge">
<title>5.0&#45;&gt;6.0</title>
<path fill="none" stroke="black" d="M971,-54C988.07,-54 1010.66,-54 1030.31,-54"/>
<polygon fill="black" stroke="black" points="1030.27,-57.5 1040.27,-54 1030.27,-50.5 1030.27,-57.5"/>
</g>
<!-- 7.0 -->
<g id="node8" class="node">
<title>7.0</title>
<g id="a_node8"><a xlink:title="Node: 7.0">
<ellipse fill="none" stroke="black" cx="1332.64" cy="-91" rx="27" ry="18"/>
<text text-anchor="middle" x="1332.64" y="-85.95" font-family="Times New Roman,serif" font-size="14.00">7.0</text>
</a>
</g>
</g>
<!-- 6.0&#45;&gt;7.0 -->
<g id="edge35" class="edge">
<title>6.0&#45;&gt;7.0</title>
<path fill="none" stroke="black" d="M1101.14,-57.68C1146.64,-64.26 1242.01,-78.05 1294.7,-85.66"/>
<polygon fill="black" stroke="black" points="1293.98,-89.09 1304.38,-87.06 1294.98,-82.17 1293.98,-89.09"/>
</g>
<!-- 85.0 -->
<g id="node26" class="node">
<title>85.0</title>
<g id="a_node26"><a xlink:title="Node: 85.0">
<ellipse fill="none" stroke="black" cx="1206.04" cy="-18" rx="27.3" ry="18"/>
<text text-anchor="middle" x="1206.04" y="-12.95" font-family="Times New Roman,serif" font-size="14.00">85.0</text>
</a>
</g>
</g>
<!-- 6.0&#45;&gt;85.0 -->
<g id="edge2" class="edge">
<title>6.0&#45;&gt;85.0</title>
<path fill="none" stroke="black" d="M1097.02,-48.06C1116.76,-42.56 1146.46,-34.3 1169.72,-27.83"/>
<polygon fill="black" stroke="black" points="1170.4,-31.27 1179.1,-25.22 1168.52,-24.53 1170.4,-31.27"/>
</g>
<!-- 8.0 -->
<g id="node9" class="node">
<title>8.0</title>
<g id="a_node9"><a xlink:title="Node: 8.0">
<ellipse fill="none" stroke="black" cx="1608.14" cy="-54" rx="27" ry="18"/>
<text text-anchor="middle" x="1608.14" y="-48.95" font-family="Times New Roman,serif" font-size="14.00">8.0</text>
</a>
</g>
</g>
<!-- 7.0&#45;&gt;8.0 -->
<g id="edge51" class="edge">
<title>7.0&#45;&gt;8.0</title>
<path fill="none" stroke="black" d="M1359.37,-87.52C1408.03,-80.94 1513.72,-66.64 1570.04,-59.02"/>
<polygon fill="black" stroke="black" points="1570.34,-62.51 1579.78,-57.7 1569.4,-55.57 1570.34,-62.51"/>
</g>
<!-- 9.0 -->
<g id="node10" class="node">
<title>9.0</title>
<g id="a_node10"><a xlink:title="Node: 9.0">
<polygon fill="yellow" stroke="yellow" points="1739.23,-72 1707.14,-54 1739.23,-36 1771.32,-54 1739.23,-72"/>
<text text-anchor="middle" x="1739.23" y="-48.95" font-family="Times New Roman,serif" font-size="14.00">9.0</text>
</a>
</g>
</g>
<!-- 8.0&#45;&gt;9.0 -->
<g id="edge10" class="edge">
<title>8.0&#45;&gt;9.0</title>
<path fill="none" stroke="black" d="M1635.57,-54C1652.63,-54 1675.23,-54 1694.88,-54"/>
<polygon fill="black" stroke="black" points="1694.84,-57.5 1704.84,-54 1694.84,-50.5 1694.84,-57.5"/>
</g>
<!-- 10.0 -->
<g id="node11" class="node">
<title>10.0</title>
<g id="a_node11"><a xlink:title="Node: 10.0">
<ellipse fill="none" stroke="black" cx="1997.21" cy="-91" rx="27.3" ry="18"/>
<text text-anchor="middle" x="1997.21" y="-85.95" font-family="Times New Roman,serif" font-size="14.00">10.0</text>
</a>
</g>
</g>
<!-- 9.0&#45;&gt;10.0 -->
<g id="edge27" class="edge">
<title>9.0&#45;&gt;10.0</title>
<path fill="none" stroke="black" d="M1765.71,-57.68C1811.09,-64.24 1906.09,-77.97 1958.86,-85.6"/>
<polygon fill="black" stroke="black" points="1958.17,-89.04 1968.57,-87.01 1959.17,-82.11 1958.17,-89.04"/>
</g>
<!-- 61.0 -->
<g id="node43" class="node">
<title>61.0</title>
<g id="a_node43"><a xlink:title="Node: 61.0">
<ellipse fill="none" stroke="black" cx="1870.61" cy="-18" rx="27.3" ry="18"/>
<text text-anchor="middle" x="1870.61" y="-12.95" font-family="Times New Roman,serif" font-size="14.00">61.0</text>
</a>
</g>
</g>
<!-- 9.0&#45;&gt;61.0 -->
<g id="edge43" class="edge">
<title>9.0&#45;&gt;61.0</title>
<path fill="none" stroke="black" d="M1761.59,-48.06C1781.33,-42.56 1811.03,-34.3 1834.29,-27.83"/>
<polygon fill="black" stroke="black" points="1834.97,-31.27 1843.67,-25.22 1833.09,-24.53 1834.97,-31.27"/>
</g>
<!-- 11.0 -->
<g id="node12" class="node">
<title>11.0</title>
<g id="a_node12"><a xlink:title="Node: 11.0">
<ellipse fill="none" stroke="black" cx="2273" cy="-54" rx="27.3" ry="18"/>
<text text-anchor="middle" x="2273" y="-48.95" font-family="Times New Roman,serif" font-size="14.00">11.0</text>
</a>
</g>
</g>
<!-- 10.0&#45;&gt;11.0 -->
<g id="edge29" class="edge">
<title>10.0&#45;&gt;11.0</title>
<path fill="none" stroke="black" d="M2024.46,-87.45C2073.32,-80.85 2178.34,-66.66 2234.6,-59.05"/>
<polygon fill="black" stroke="black" points="2234.89,-62.55 2244.33,-57.74 2233.95,-55.61 2234.89,-62.55"/>
</g>
<!-- 12.0 -->
<g id="node13" class="node">
<title>12.0</title>
<g id="a_node13"><a xlink:title="Node: 12.0">
<ellipse fill="none" stroke="black" cx="2399.6" cy="-54" rx="27.3" ry="18"/>
<text text-anchor="middle" x="2399.6" y="-48.95" font-family="Times New Roman,serif" font-size="14.00">12.0</text>
</a>
</g>
</g>
<!-- 11.0&#45;&gt;12.0 -->
<g id="edge49" class="edge">
<title>11.0&#45;&gt;12.0</title>
<path fill="none" stroke="black" d="M2300.73,-54C2318.14,-54 2341.12,-54 2360.44,-54"/>
<polygon fill="black" stroke="black" points="2360.4,-57.5 2370.4,-54 2360.4,-50.5 2360.4,-57.5"/>
</g>
<!-- 13.0 -->
<g id="node14" class="node">
<title>13.0</title>
<g id="a_node14"><a xlink:title="Node: 13.0">
<ellipse fill="none" stroke="black" cx="2526.19" cy="-54" rx="27.3" ry="18"/>
<text text-anchor="middle" x="2526.19" y="-48.95" font-family="Times New Roman,serif" font-size="14.00">13.0</text>
</a>
</g>
</g>
<!-- 12.0&#45;&gt;13.0 -->
<g id="edge5" class="edge">
<title>12.0&#45;&gt;13.0</title>
<path fill="none" stroke="black" d="M2427.33,-54C2444.73,-54 2467.72,-54 2487.03,-54"/>
<polygon fill="black" stroke="black" points="2486.99,-57.5 2496.99,-54 2486.99,-50.5 2486.99,-57.5"/>
</g>
<!-- 14.0 -->
<g id="node15" class="node">
<title>14.0</title>
<g id="a_node15"><a xlink:title="Node: 14.0">
<ellipse fill="none" stroke="black" cx="2652.78" cy="-54" rx="27.3" ry="18"/>
<text text-anchor="middle" x="2652.78" y="-48.95" font-family="Times New Roman,serif" font-size="14.00">14.0</text>
</a>
</g>
</g>
<!-- 13.0&#45;&gt;14.0 -->
<g id="edge15" class="edge">
<title>13.0&#45;&gt;14.0</title>
<path fill="none" stroke="black" d="M2553.92,-54C2571.33,-54 2594.31,-54 2613.63,-54"/>
<polygon fill="black" stroke="black" points="2613.58,-57.5 2623.58,-54 2613.58,-50.5 2613.58,-57.5"/>
</g>
<!-- 15.0 -->
<g id="node16" class="node">
<title>15.0</title>
<g id="a_node16"><a xlink:title="Node: 15.0">
<ellipse fill="none" stroke="black" cx="2779.38" cy="-54" rx="27.3" ry="18"/>
<text text-anchor="middle" x="2779.38" y="-48.95" font-family="Times New Roman,serif" font-size="14.00">15.0</text>
</a>
</g>
</g>
<!-- 14.0&#45;&gt;15.0 -->
<g id="edge24" class="edge">
<title>14.0&#45;&gt;15.0</title>
<path fill="none" stroke="black" d="M2680.51,-54C2697.92,-54 2720.9,-54 2740.22,-54"/>
<polygon fill="black" stroke="black" points="2740.18,-57.5 2750.18,-54 2740.18,-50.5 2740.18,-57.5"/>
</g>
<!-- 16.0 -->
<g id="node17" class="node">
<title>16.0</title>
<g id="a_node17"><a xlink:title="Node: 16.0">
<polygon fill="yellow" stroke="yellow" points="2917.27,-72 2878.67,-54 2917.27,-36 2955.88,-54 2917.27,-72"/>
<text text-anchor="middle" x="2917.27" y="-48.95" font-family="Times New Roman,serif" font-size="14.00">16.0</text>
</a>
</g>
</g>
<!-- 15.0&#45;&gt;16.0 -->
<g id="edge36" class="edge">
<title>15.0&#45;&gt;16.0</title>
<path fill="none" stroke="black" d="M2806.9,-54C2823.83,-54 2846.31,-54 2866.49,-54"/>
<polygon fill="black" stroke="black" points="2866.21,-57.5 2876.21,-54 2866.21,-50.5 2866.21,-57.5"/>
</g>
<!-- 17.0 -->
<g id="node18" class="node">
<title>17.0</title>
<g id="a_node18"><a xlink:title="Node: 17.0">
<ellipse fill="none" stroke="black" cx="3055.17" cy="-90" rx="27.3" ry="18"/>
<text text-anchor="middle" x="3055.17" y="-84.95" font-family="Times New Roman,serif" font-size="14.00">17.0</text>
</a>
</g>
</g>
<!-- 16.0&#45;&gt;17.0 -->
<g id="edge54" class="edge">
<title>16.0&#45;&gt;17.0</title>
<path fill="none" stroke="black" d="M2942.89,-60.52C2963.92,-66.09 2994.46,-74.18 3018.23,-80.48"/>
<polygon fill="black" stroke="black" points="3017.26,-83.84 3027.82,-83.02 3019.05,-77.08 3017.26,-83.84"/>
</g>
<!-- 31.0 -->
<g id="node29" class="node">
<title>31.0</title>
<g id="a_node29"><a xlink:title="Node: 31.0">
<ellipse fill="none" stroke="black" cx="3055.17" cy="-18" rx="27.3" ry="18"/>
<text text-anchor="middle" x="3055.17" y="-12.95" font-family="Times New Roman,serif" font-size="14.00">31.0</text>
</a>
</g>
</g>
<!-- 16.0&#45;&gt;31.0 -->
<g id="edge22" class="edge">
<title>16.0&#45;&gt;31.0</title>
<path fill="none" stroke="black" d="M2942.89,-47.48C2963.92,-41.91 2994.46,-33.82 3018.23,-27.52"/>
<polygon fill="black" stroke="black" points="3019.05,-30.92 3027.82,-24.98 3017.26,-24.16 3019.05,-30.92"/>
</g>
<!-- 18.0 -->
<g id="node19" class="node">
<title>18.0</title>
<g id="a_node19"><a xlink:title="Node: 18.0">
<ellipse fill="none" stroke="black" cx="3181.77" cy="-90" rx="27.3" ry="18"/>
<text text-anchor="middle" x="3181.77" y="-84.95" font-family="Times New Roman,serif" font-size="14.00">18.0</text>
</a>
</g>
</g>
<!-- 17.0&#45;&gt;18.0 -->
<g id="edge12" class="edge">
<title>17.0&#45;&gt;18.0</title>
<path fill="none" stroke="black" d="M3082.9,-90C3100.31,-90 3123.29,-90 3142.61,-90"/>
<polygon fill="black" stroke="black" points="3142.57,-93.5 3152.57,-90 3142.57,-86.5 3142.57,-93.5"/>
</g>
<!-- 19.0 -->
<g id="node20" class="node">
<title>19.0</title>
<g id="a_node20"><a xlink:title="Node: 19.0">
<polygon fill="yellow" stroke="yellow" points="3319.67,-108 3281.06,-90 3319.67,-72 3358.27,-90 3319.67,-108"/>
<text text-anchor="middle" x="3319.67" y="-84.95" font-family="Times New Roman,serif" font-size="14.00">19.0</text>
</a>
</g>
</g>
<!-- 18.0&#45;&gt;19.0 -->
<g id="edge19" class="edge">
<title>18.0&#45;&gt;19.0</title>
<path fill="none" stroke="black" d="M3209.29,-90C3226.22,-90 3248.71,-90 3268.88,-90"/>
<polygon fill="black" stroke="black" points="3268.6,-93.5 3278.6,-90 3268.6,-86.5 3268.6,-93.5"/>
</g>
<!-- 20.0 -->
<g id="node21" class="node">
<title>20.0</title>
<g id="a_node21"><a xlink:title="Node: 20.0">
<ellipse fill="none" stroke="black" cx="3457.57" cy="-162" rx="27.3" ry="18"/>
<text text-anchor="middle" x="3457.57" y="-156.95" font-family="Times New Roman,serif" font-size="14.00">20.0</text>
</a>
</g>
</g>
<!-- 19.0&#45;&gt;20.0 -->
<g id="edge30" class="edge">
<title>19.0&#45;&gt;20.0</title>
<path fill="none" stroke="black" d="M3338.71,-99.56C3360.89,-111.31 3398.89,-131.44 3425.73,-145.66"/>
<polygon fill="black" stroke="black" points="3423.96,-148.69 3434.43,-150.27 3427.24,-142.5 3423.96,-148.69"/>
</g>
<!-- 26.0 -->
<g id="node46" class="node">
<title>26.0</title>
<g id="a_node46"><a xlink:title="Node: 26.0">
<ellipse fill="none" stroke="black" cx="3457.57" cy="-90" rx="27.3" ry="18"/>
<text text-anchor="middle" x="3457.57" y="-84.95" font-family="Times New Roman,serif" font-size="14.00">26.0</text>
</a>
</g>
</g>
<!-- 19.0&#45;&gt;26.0 -->
<g id="edge32" class="edge">
<title>19.0&#45;&gt;26.0</title>
<path fill="none" stroke="black" d="M3359.25,-90C3377.87,-90 3400.15,-90 3418.68,-90"/>
<polygon fill="black" stroke="black" points="3418.45,-93.5 3428.45,-90 3418.45,-86.5 3418.45,-93.5"/>
</g>
<!-- 21.0 -->
<g id="node22" class="node">
<title>21.0</title>
<g id="a_node22"><a xlink:title="Node: 21.0">
<ellipse fill="none" stroke="black" cx="3584.16" cy="-162" rx="27.3" ry="18"/>
<text text-anchor="middle" x="3584.16" y="-156.95" font-family="Times New Roman,serif" font-size="14.00">21.0</text>
</a>
</g>
</g>
<!-- 20.0&#45;&gt;21.0 -->
<g id="edge41" class="edge">
<title>20.0&#45;&gt;21.0</title>
<path fill="none" stroke="black" d="M3485.29,-162C3502.7,-162 3525.68,-162 3545,-162"/>
<polygon fill="black" stroke="black" points="3544.96,-165.5 3554.96,-162 3544.96,-158.5 3544.96,-165.5"/>
</g>
<!-- 22.0 -->
<g id="node23" class="node">
<title>22.0</title>
<g id="a_node23"><a xlink:title="Node: 22.0">
<ellipse fill="none" stroke="black" cx="3710.75" cy="-162" rx="27.3" ry="18"/>
<text text-anchor="middle" x="3710.75" y="-156.95" font-family="Times New Roman,serif" font-size="14.00">22.0</text>
</a>
</g>
</g>
<!-- 21.0&#45;&gt;22.0 -->
<g id="edge6" class="edge">
<title>21.0&#45;&gt;22.0</title>
<path fill="none" stroke="black" d="M3611.89,-162C3629.3,-162 3652.28,-162 3671.6,-162"/>
<polygon fill="black" stroke="black" points="3671.55,-165.5 3681.55,-162 3671.55,-158.5 3671.55,-165.5"/>
</g>
<!-- 23.0 -->
<g id="node24" class="node">
<title>23.0</title>
<g id="a_node24"><a xlink:title="Node: 23.0">
<ellipse fill="none" stroke="black" cx="3837.34" cy="-162" rx="27.3" ry="18"/>
<text text-anchor="middle" x="3837.34" y="-156.95" font-family="Times New Roman,serif" font-size="14.00">23.0</text>
</a>
</g>
</g>
<!-- 22.0&#45;&gt;23.0 -->
<g id="edge7" class="edge">
<title>22.0&#45;&gt;23.0</title>
<path fill="none" stroke="black" d="M3738.48,-162C3755.89,-162 3778.87,-162 3798.19,-162"/>
<polygon fill="black" stroke="black" points="3798.15,-165.5 3808.15,-162 3798.15,-158.5 3798.15,-165.5"/>
</g>
<!-- 24.0 -->
<g id="node25" class="node">
<title>24.0</title>
<g id="a_node25"><a xlink:title="Node: 24.0">
<ellipse fill="none" stroke="black" cx="3963.94" cy="-162" rx="27.3" ry="18"/>
<text text-anchor="middle" x="3963.94" y="-156.95" font-family="Times New Roman,serif" font-size="14.00">24.0</text>
</a>
</g>
</g>
<!-- 23.0&#45;&gt;24.0 -->
<g id="edge25" class="edge">
<title>23.0&#45;&gt;24.0</title>
<path fill="none" stroke="black" d="M3865.07,-162C3882.48,-162 3905.46,-162 3924.78,-162"/>
<polygon fill="black" stroke="black" points="3924.74,-165.5 3934.74,-162 3924.74,-158.5 3924.74,-165.5"/>
</g>
<!-- 25.0 -->
<g id="node51" class="node">
<title>25.0</title>
<ellipse fill="none" stroke="black" cx="4090.53" cy="-162" rx="27.3" ry="18"/>
<text text-anchor="middle" x="4090.53" y="-156.95" font-family="Times New Roman,serif" font-size="14.00">25.0</text>
</g>
<!-- 24.0&#45;&gt;25.0 -->
<g id="edge37" class="edge">
<title>24.0&#45;&gt;25.0</title>
<path fill="none" stroke="black" d="M3991.67,-162C4009.07,-162 4032.06,-162 4051.37,-162"/>
<polygon fill="black" stroke="black" points="4051.33,-165.5 4061.33,-162 4051.33,-158.5 4051.33,-165.5"/>
</g>
<!-- 86.0 -->
<g id="node27" class="node">
<title>86.0</title>
<g id="a_node27"><a xlink:title="Node: 86.0">
<ellipse fill="none" stroke="black" cx="1332.64" cy="-18" rx="27.3" ry="18"/>
<text text-anchor="middle" x="1332.64" y="-12.95" font-family="Times New Roman,serif" font-size="14.00">86.0</text>
</a>
</g>
</g>
<!-- 85.0&#45;&gt;86.0 -->
<g id="edge50" class="edge">
<title>85.0&#45;&gt;86.0</title>
<path fill="none" stroke="black" d="M1233.77,-18C1251.18,-18 1274.16,-18 1293.48,-18"/>
<polygon fill="black" stroke="black" points="1293.44,-21.5 1303.44,-18 1293.44,-14.5 1293.44,-21.5"/>
</g>
<!-- 87.0 -->
<g id="node28" class="node">
<title>87.0</title>
<g id="a_node28"><a xlink:title="Node: 87.0">
<polygon fill="orange" stroke="orange" points="1470.54,-36 1431.93,-18 1470.54,0 1509.14,-18 1470.54,-36"/>
<text text-anchor="middle" x="1470.54" y="-12.95" font-family="Times New Roman,serif" font-size="14.00">87.0</text>
</a>
</g>
</g>
<!-- 86.0&#45;&gt;87.0 -->
<g id="edge8" class="edge">
<title>86.0&#45;&gt;87.0</title>
<path fill="none" stroke="black" d="M1360.16,-18C1377.09,-18 1399.57,-18 1419.75,-18"/>
<polygon fill="black" stroke="black" points="1419.47,-21.5 1429.47,-18 1419.47,-14.5 1419.47,-21.5"/>
</g>
<!-- 87.0&#45;&gt;8.0 -->
<g id="edge40" class="edge">
<title>87.0&#45;&gt;8.0</title>
<path fill="none" stroke="black" d="M1496.09,-24.52C1517.21,-30.13 1547.94,-38.28 1571.72,-44.6"/>
<polygon fill="black" stroke="black" points="1570.74,-47.96 1581.3,-47.14 1572.53,-41.19 1570.74,-47.96"/>
</g>
<!-- 32.0 -->
<g id="node30" class="node">
<title>32.0</title>
<g id="a_node30"><a xlink:title="Node: 32.0">
<ellipse fill="none" stroke="black" cx="3181.77" cy="-18" rx="27.3" ry="18"/>
<text text-anchor="middle" x="3181.77" y="-12.95" font-family="Times New Roman,serif" font-size="14.00">32.0</text>
</a>
</g>
</g>
<!-- 31.0&#45;&gt;32.0 -->
<g id="edge9" class="edge">
<title>31.0&#45;&gt;32.0</title>
<path fill="none" stroke="black" d="M3082.9,-18C3100.31,-18 3123.29,-18 3142.61,-18"/>
<polygon fill="black" stroke="black" points="3142.57,-21.5 3152.57,-18 3142.57,-14.5 3142.57,-21.5"/>
</g>
<!-- 33.0 -->
<g id="node31" class="node">
<title>33.0</title>
<g id="a_node31"><a xlink:title="Node: 33.0">
<ellipse fill="none" stroke="black" cx="3319.67" cy="-18" rx="27.3" ry="18"/>
<text text-anchor="middle" x="3319.67" y="-12.95" font-family="Times New Roman,serif" font-size="14.00">33.0</text>
</a>
</g>
</g>
<!-- 32.0&#45;&gt;33.0 -->
<g id="edge17" class="edge">
<title>32.0&#45;&gt;33.0</title>
<path fill="none" stroke="black" d="M3209.29,-18C3229.68,-18 3258.12,-18 3280.89,-18"/>
<polygon fill="black" stroke="black" points="3280.69,-21.5 3290.69,-18 3280.69,-14.5 3280.69,-21.5"/>
</g>
<!-- 34.0 -->
<g id="node32" class="node">
<title>34.0</title>
<g id="a_node32"><a xlink:title="Node: 34.0">
<ellipse fill="none" stroke="black" cx="3457.57" cy="-18" rx="27.3" ry="18"/>
<text text-anchor="middle" x="3457.57" y="-12.95" font-family="Times New Roman,serif" font-size="14.00">34.0</text>
</a>
</g>
</g>
<!-- 33.0&#45;&gt;34.0 -->
<g id="edge39" class="edge">
<title>33.0&#45;&gt;34.0</title>
<path fill="none" stroke="black" d="M3347.19,-18C3367.58,-18 3396.02,-18 3418.79,-18"/>
<polygon fill="black" stroke="black" points="3418.59,-21.5 3428.59,-18 3418.59,-14.5 3418.59,-21.5"/>
</g>
<!-- 35.0 -->
<g id="node33" class="node">
<title>35.0</title>
<g id="a_node33"><a xlink:title="Node: 35.0">
<ellipse fill="none" stroke="black" cx="3584.16" cy="-18" rx="27.3" ry="18"/>
<text text-anchor="middle" x="3584.16" y="-12.95" font-family="Times New Roman,serif" font-size="14.00">35.0</text>
</a>
</g>
</g>
<!-- 34.0&#45;&gt;35.0 -->
<g id="edge47" class="edge">
<title>34.0&#45;&gt;35.0</title>
<path fill="none" stroke="black" d="M3485.29,-18C3502.7,-18 3525.68,-18 3545,-18"/>
<polygon fill="black" stroke="black" points="3544.96,-21.5 3554.96,-18 3544.96,-14.5 3544.96,-21.5"/>
</g>
<!-- 36.0 -->
<g id="node34" class="node">
<title>36.0</title>
<g id="a_node34"><a xlink:title="Node: 36.0">
<ellipse fill="none" stroke="black" cx="3710.75" cy="-18" rx="27.3" ry="18"/>
<text text-anchor="middle" x="3710.75" y="-12.95" font-family="Times New Roman,serif" font-size="14.00">36.0</text>
</a>
</g>
</g>
<!-- 35.0&#45;&gt;36.0 -->
<g id="edge3" class="edge">
<title>35.0&#45;&gt;36.0</title>
<path fill="none" stroke="black" d="M3611.89,-18C3629.3,-18 3652.28,-18 3671.6,-18"/>
<polygon fill="black" stroke="black" points="3671.55,-21.5 3681.55,-18 3671.55,-14.5 3671.55,-21.5"/>
</g>
<!-- 37.0 -->
<g id="node35" class="node">
<title>37.0</title>
<g id="a_node35"><a xlink:title="Node: 37.0">
<ellipse fill="none" stroke="black" cx="3837.34" cy="-18" rx="27.3" ry="18"/>
<text text-anchor="middle" x="3837.34" y="-12.95" font-family="Times New Roman,serif" font-size="14.00">37.0</text>
</a>
</g>
</g>
<!-- 36.0&#45;&gt;37.0 -->
<g id="edge13" class="edge">
<title>36.0&#45;&gt;37.0</title>
<path fill="none" stroke="black" d="M3738.48,-18C3755.89,-18 3778.87,-18 3798.19,-18"/>
<polygon fill="black" stroke="black" points="3798.15,-21.5 3808.15,-18 3798.15,-14.5 3798.15,-21.5"/>
</g>
<!-- 38.0 -->
<g id="node36" class="node">
<title>38.0</title>
<g id="a_node36"><a xlink:title="Node: 38.0">
<ellipse fill="none" stroke="black" cx="3963.94" cy="-18" rx="27.3" ry="18"/>
<text text-anchor="middle" x="3963.94" y="-12.95" font-family="Times New Roman,serif" font-size="14.00">38.0</text>
</a>
</g>
</g>
<!-- 37.0&#45;&gt;38.0 -->
<g id="edge31" class="edge">
<title>37.0&#45;&gt;38.0</title>
<path fill="none" stroke="black" d="M3865.07,-18C3882.48,-18 3905.46,-18 3924.78,-18"/>
<polygon fill="black" stroke="black" points="3924.74,-21.5 3934.74,-18 3924.74,-14.5 3924.74,-21.5"/>
</g>
<!-- 39.0 -->
<g id="node37" class="node">
<title>39.0</title>
<g id="a_node37"><a xlink:title="Node: 39.0">
<ellipse fill="none" stroke="black" cx="4090.53" cy="-18" rx="27.3" ry="18"/>
<text text-anchor="middle" x="4090.53" y="-12.95" font-family="Times New Roman,serif" font-size="14.00">39.0</text>
</a>
</g>
</g>
<!-- 38.0&#45;&gt;39.0 -->
<g id="edge45" class="edge">
<title>38.0&#45;&gt;39.0</title>
<path fill="none" stroke="black" d="M3991.67,-18C4009.07,-18 4032.06,-18 4051.37,-18"/>
<polygon fill="black" stroke="black" points="4051.33,-21.5 4061.33,-18 4051.33,-14.5 4051.33,-21.5"/>
</g>
<!-- 40.0 -->
<g id="node38" class="node">
<title>40.0</title>
<g id="a_node38"><a xlink:title="Node: 40.0">
<ellipse fill="none" stroke="black" cx="4217.12" cy="-18" rx="27.3" ry="18"/>
<text text-anchor="middle" x="4217.12" y="-12.95" font-family="Times New Roman,serif" font-size="14.00">40.0</text>
</a>
</g>
</g>
<!-- 39.0&#45;&gt;40.0 -->
<g id="edge46" class="edge">
<title>39.0&#45;&gt;40.0</title>
<path fill="none" stroke="black" d="M4118.26,-18C4135.67,-18 4158.65,-18 4177.97,-18"/>
<polygon fill="black" stroke="black" points="4177.93,-21.5 4187.93,-18 4177.93,-14.5 4177.93,-21.5"/>
</g>
<!-- 41.0 -->
<g id="node39" class="node">
<title>41.0</title>
<g id="a_node39"><a xlink:title="Node: 41.0">
<ellipse fill="none" stroke="black" cx="4343.72" cy="-18" rx="27.3" ry="18"/>
<text text-anchor="middle" x="4343.72" y="-12.95" font-family="Times New Roman,serif" font-size="14.00">41.0</text>
</a>
</g>
</g>
<!-- 40.0&#45;&gt;41.0 -->
<g id="edge11" class="edge">
<title>40.0&#45;&gt;41.0</title>
<path fill="none" stroke="black" d="M4244.85,-18C4262.26,-18 4285.24,-18 4304.56,-18"/>
<polygon fill="black" stroke="black" points="4304.52,-21.5 4314.52,-18 4304.52,-14.5 4304.52,-21.5"/>
</g>
<!-- 42.0 -->
<g id="node50" class="node">
<title>42.0</title>
<ellipse fill="none" stroke="black" cx="4470.31" cy="-18" rx="27.3" ry="18"/>
<text text-anchor="middle" x="4470.31" y="-12.95" font-family="Times New Roman,serif" font-size="14.00">42.0</text>
</g>
<!-- 41.0&#45;&gt;42.0 -->
<g id="edge18" class="edge">
<title>41.0&#45;&gt;42.0</title>
<path fill="none" stroke="black" d="M4371.44,-18C4388.85,-18 4411.83,-18 4431.15,-18"/>
<polygon fill="black" stroke="black" points="4431.11,-21.5 4441.11,-18 4431.11,-14.5 4431.11,-21.5"/>
</g>
<!-- 94.0 -->
<g id="node41" class="node">
<title>94.0</title>
<g id="a_node41"><a xlink:title="Node: 94.0">
<ellipse fill="none" stroke="black" cx="542.07" cy="-18" rx="27.3" ry="18"/>
<text text-anchor="middle" x="542.07" y="-12.95" font-family="Times New Roman,serif" font-size="14.00">94.0</text>
</a>
</g>
</g>
<!-- 93.0&#45;&gt;94.0 -->
<g id="edge33" class="edge">
<title>93.0&#45;&gt;94.0</title>
<path fill="none" stroke="black" d="M443.2,-18C460.61,-18 483.59,-18 502.91,-18"/>
<polygon fill="black" stroke="black" points="502.87,-21.5 512.87,-18 502.87,-14.5 502.87,-21.5"/>
</g>
<!-- 95.0 -->
<g id="node42" class="node">
<title>95.0</title>
<g id="a_node42"><a xlink:title="Node: 95.0">
<polygon fill="orange" stroke="orange" points="679.97,-36 641.36,-18 679.97,0 718.57,-18 679.97,-36"/>
<text text-anchor="middle" x="679.97" y="-12.95" font-family="Times New Roman,serif" font-size="14.00">95.0</text>
</a>
</g>
</g>
<!-- 94.0&#45;&gt;95.0 -->
<g id="edge53" class="edge">
<title>94.0&#45;&gt;95.0</title>
<path fill="none" stroke="black" d="M569.59,-18C586.52,-18 609.01,-18 629.18,-18"/>
<polygon fill="black" stroke="black" points="628.9,-21.5 638.9,-18 628.9,-14.5 628.9,-21.5"/>
</g>
<!-- 95.0&#45;&gt;4.0 -->
<g id="edge16" class="edge">
<title>95.0&#45;&gt;4.0</title>
<path fill="none" stroke="black" d="M705.52,-24.52C726.64,-30.13 757.37,-38.28 781.15,-44.6"/>
<polygon fill="black" stroke="black" points="780.17,-47.96 790.73,-47.14 781.97,-41.19 780.17,-47.96"/>
</g>
<!-- 62.0 -->
<g id="node44" class="node">
<title>62.0</title>
<g id="a_node44"><a xlink:title="Node: 62.0">
<ellipse fill="none" stroke="black" cx="1997.21" cy="-18" rx="27.3" ry="18"/>
<text text-anchor="middle" x="1997.21" y="-12.95" font-family="Times New Roman,serif" font-size="14.00">62.0</text>
</a>
</g>
</g>
<!-- 61.0&#45;&gt;62.0 -->
<g id="edge44" class="edge">
<title>61.0&#45;&gt;62.0</title>
<path fill="none" stroke="black" d="M1898.34,-18C1915.75,-18 1938.73,-18 1958.05,-18"/>
<polygon fill="black" stroke="black" points="1958.01,-21.5 1968.01,-18 1958.01,-14.5 1958.01,-21.5"/>
</g>
<!-- 63.0 -->
<g id="node45" class="node">
<title>63.0</title>
<g id="a_node45"><a xlink:title="Node: 63.0">
<polygon fill="orange" stroke="orange" points="2135.1,-36 2096.5,-18 2135.1,0 2173.71,-18 2135.1,-36"/>
<text text-anchor="middle" x="2135.1" y="-12.95" font-family="Times New Roman,serif" font-size="14.00">63.0</text>
</a>
</g>
</g>
<!-- 62.0&#45;&gt;63.0 -->
<g id="edge52" class="edge">
<title>62.0&#45;&gt;63.0</title>
<path fill="none" stroke="black" d="M2024.73,-18C2041.66,-18 2064.14,-18 2084.32,-18"/>
<polygon fill="black" stroke="black" points="2084.04,-21.5 2094.04,-18 2084.04,-14.5 2084.04,-21.5"/>
</g>
<!-- 63.0&#45;&gt;11.0 -->
<g id="edge38" class="edge">
<title>63.0&#45;&gt;11.0</title>
<path fill="none" stroke="black" d="M2160.71,-24.52C2181.75,-30.09 2212.29,-38.18 2236.06,-44.48"/>
<polygon fill="black" stroke="black" points="2235.09,-47.84 2245.65,-47.02 2236.88,-41.08 2235.09,-47.84"/>
</g>
<!-- 27.0 -->
<g id="node47" class="node">
<title>27.0</title>
<g id="a_node47"><a xlink:title="Node: 27.0">
<ellipse fill="none" stroke="black" cx="3584.16" cy="-90" rx="27.3" ry="18"/>
<text text-anchor="middle" x="3584.16" y="-84.95" font-family="Times New Roman,serif" font-size="14.00">27.0</text>
</a>
</g>
</g>
<!-- 26.0&#45;&gt;27.0 -->
<g id="edge4" class="edge">
<title>26.0&#45;&gt;27.0</title>
<path fill="none" stroke="black" d="M3485.29,-90C3502.7,-90 3525.68,-90 3545,-90"/>
<polygon fill="black" stroke="black" points="3544.96,-93.5 3554.96,-90 3544.96,-86.5 3544.96,-93.5"/>
</g>
<!-- 28.0 -->
<g id="node48" class="node">
<title>28.0</title>
<g id="a_node48"><a xlink:title="Node: 28.0">
<ellipse fill="none" stroke="black" cx="3710.75" cy="-90" rx="27.3" ry="18"/>
<text text-anchor="middle" x="3710.75" y="-84.95" font-family="Times New Roman,serif" font-size="14.00">28.0</text>
</a>
</g>
</g>
<!-- 27.0&#45;&gt;28.0 -->
<g id="edge14" class="edge">
<title>27.0&#45;&gt;28.0</title>
<path fill="none" stroke="black" d="M3611.89,-90C3629.3,-90 3652.28,-90 3671.6,-90"/>
<polygon fill="black" stroke="black" points="3671.55,-93.5 3681.55,-90 3671.55,-86.5 3671.55,-93.5"/>
</g>
<!-- 29.0 -->
<g id="node49" class="node">
<title>29.0</title>
<g id="a_node49"><a xlink:title="Node: 29.0">
<ellipse fill="none" stroke="black" cx="3837.34" cy="-90" rx="27.3" ry="18"/>
<text text-anchor="middle" x="3837.34" y="-84.95" font-family="Times New Roman,serif" font-size="14.00">29.0</text>
</a>
</g>
</g>
<!-- 28.0&#45;&gt;29.0 -->
<g id="edge34" class="edge">
<title>28.0&#45;&gt;29.0</title>
<path fill="none" stroke="black" d="M3738.48,-90C3755.89,-90 3778.87,-90 3798.19,-90"/>
<polygon fill="black" stroke="black" points="3798.15,-93.5 3808.15,-90 3798.15,-86.5 3798.15,-93.5"/>
</g>
<!-- 30.0 -->
<g id="node52" class="node">
<title>30.0</title>
<ellipse fill="none" stroke="black" cx="3963.94" cy="-90" rx="27.3" ry="18"/>
<text text-anchor="middle" x="3963.94" y="-84.95" font-family="Times New Roman,serif" font-size="14.00">30.0</text>
</g>
<!-- 29.0&#45;&gt;30.0 -->
<g id="edge42" class="edge">
<title>29.0&#45;&gt;30.0</title>
<path fill="none" stroke="black" d="M3865.07,-90C3882.48,-90 3905.46,-90 3924.78,-90"/>
<polygon fill="black" stroke="black" points="3924.74,-93.5 3934.74,-90 3924.74,-86.5 3924.74,-93.5"/>
</g>
</g>
</svg>
